<svg width="16" height="16" viewBox="0 0 16 16" fill="none" xmlns="http://www.w3.org/2000/svg">
<path d="M4.82666 1.33334H3.55999C2.09999 1.33334 1.33333 2.10001 1.33333 3.55334V4.82001C1.33333 6.27334 2.09999 7.04001 3.55333 7.04001H4.81999C6.27333 7.04001 7.03999 6.27334 7.03999 4.82001V3.55334C7.04666 2.10001 6.27999 1.33334 4.82666 1.33334Z" fill="#D6BBFB"/>
<path d="M12.4467 1.33334H11.18C9.72667 1.33334 8.96001 2.10001 8.96001 3.55334V4.82001C8.96001 6.27334 9.72667 7.04001 11.18 7.04001H12.4467C13.9 7.04001 14.6667 6.27334 14.6667 4.82001V3.55334C14.6667 2.10001 13.9 1.33334 12.4467 1.33334Z" fill="#D6BBFB"/>
<path d="M12.4467 8.95334H11.18C9.72667 8.95334 8.96001 9.72001 8.96001 11.1733V12.44C8.96001 13.8933 9.72667 14.66 11.18 14.66H12.4467C13.9 14.66 14.6667 13.8933 14.6667 12.44V11.1733C14.6667 9.72001 13.9 8.95334 12.4467 8.95334Z" fill="#D6BBFB"/>
<path d="M4.82666 8.95334H3.55999C2.09999 8.95334 1.33333 9.72001 1.33333 11.1733V12.44C1.33333 13.9 2.09999 14.6667 3.55333 14.6667H4.81999C6.27333 14.6667 7.03999 13.9 7.03999 12.4467V11.18C7.04666 9.72001 6.27999 8.95334 4.82666 8.95334Z" fill="#D6BBFB"/>
</svg>
