<svg width="67" height="69" viewBox="0 0 67 69" fill="none" xmlns="http://www.w3.org/2000/svg">
<path opacity="0.14" fill-rule="evenodd" clip-rule="evenodd" d="M29.7915 68.772C21.0568 67.9011 15.2852 60.5 11.2713 52.7004C11.0964 52.3605 10.9164 52.0265 10.7299 51.6994C9.78007 50.0331 8.30905 48.1252 6.77559 46.2197C3.16293 41.7307 -0.3938 36.2198 1.47017 30.7644C1.7339 29.9925 2.08014 29.1861 2.51671 28.3128C4.61202 24.121 10.539 23.3334 13.4312 19.6459C16.0342 16.3273 14.9331 10.5651 18.362 8.11084C21.7938 5.65454 24.5046 0.774573 28.7145 0.546642C32.3443 0.350123 37.5851 4.97838 41.2137 4.75987C45.4187 4.50664 50.3041 4.07035 54.1587 5.76334C57.9441 7.42591 58.3671 11.4651 60.6085 14.9405C62.66 18.1216 65.9814 21.8283 66.8905 25.505C67.7773 29.0916 63.3833 32.2368 63.179 35.9278C62.9789 39.541 65.7837 44.0783 65.6888 47.2121C65.6138 49.7497 65.2498 51.4837 64.5176 53.0217C63.2074 55.7738 60.762 57.9524 57.8229 58.7633C54.7715 59.6052 51.3756 59.684 48.957 60.7213C48.3391 60.9863 47.7833 61.2737 47.2681 61.5817C42.245 64.5838 37.6334 68.8591 31.7827 68.8714C31.1402 68.8727 30.4802 68.8407 29.7915 68.772Z" fill="#9E77ED"/>
</svg>
