<svg width="24" height="24" viewBox="0 0 24 24" fill="none" xmlns="http://www.w3.org/2000/svg">
<mask id="path-1-inside-1_64_245" fill="white">
<path d="M22 22H2C1.59 22 1.25 21.66 1.25 21.25C1.25 20.84 1.59 20.5 2 20.5H22C22.41 20.5 22.75 20.84 22.75 21.25C22.75 21.66 22.41 22 22 22Z"/>
</mask>
<path d="M22 22H2C1.59 22 1.25 21.66 1.25 21.25C1.25 20.84 1.59 20.5 2 20.5H22C22.41 20.5 22.75 20.84 22.75 21.25C22.75 21.66 22.41 22 22 22Z" fill="#7F56D9"/>
<path d="M22 20.5H2V23.5H22V20.5ZM2 20.5C2.41843 20.5 2.75 20.8316 2.75 21.25H-0.25C-0.25 22.4884 0.761573 23.5 2 23.5V20.5ZM2.75 21.25C2.75 21.6684 2.41843 22 2 22V19C0.761573 19 -0.25 20.0116 -0.25 21.25H2.75ZM2 22H22V19H2V22ZM22 22C21.5816 22 21.25 21.6684 21.25 21.25H24.25C24.25 20.0116 23.2384 19 22 19V22ZM21.25 21.25C21.25 20.8316 21.5816 20.5 22 20.5V23.5C23.2384 23.5 24.25 22.4884 24.25 21.25H21.25Z" fill="#7F56D9" mask="url(#path-1-inside-1_64_245)"/>
<path d="M13.5 21.25H10.5V4C10.5 3.53352 10.5984 3.22502 10.7363 3.04725C10.8475 2.90392 11.0569 2.75 11.55 2.75H12.45C12.9431 2.75 13.1525 2.90392 13.2637 3.04725C13.4016 3.22502 13.5 3.53352 13.5 4V21.25Z" fill="#7F56D9" stroke="#7F56D9" stroke-width="1.5"/>
<path d="M6.25 21.25H3.75V10C3.75 9.5196 3.84103 9.19655 3.96741 9.0133C4.06119 8.87733 4.21655 8.75 4.6 8.75H5.4C5.78345 8.75 5.93881 8.87733 6.03259 9.0133C6.15897 9.19655 6.25 9.5196 6.25 10V21.25Z" fill="#7F56D9" stroke="#7F56D9" stroke-width="1.5"/>
<path d="M20.25 21.25H17.75V15C17.75 14.5196 17.841 14.1965 17.9674 14.0133C18.0612 13.8773 18.2165 13.75 18.6 13.75H19.4C19.7835 13.75 19.9388 13.8773 20.0326 14.0133C20.159 14.1965 20.25 14.5196 20.25 15V21.25Z" fill="#7F56D9" stroke="#7F56D9" stroke-width="1.5"/>
</svg>
