<svg width="16" height="16" viewBox="0 0 16 16" fill="none" xmlns="http://www.w3.org/2000/svg">
<path d="M8.01315 1.94C5.80648 1.94 4.01315 3.73334 4.01315 5.94V7.86667C4.01315 8.27334 3.83981 8.89334 3.63315 9.24L2.86648 10.5133C2.39315 11.3 2.71981 12.1733 3.58648 12.4667C6.45981 13.4267 9.55981 13.4267 12.4331 12.4667C13.2398 12.2 13.5931 11.2467 13.1531 10.5133L12.3865 9.24C12.1865 8.89334 12.0131 8.27334 12.0131 7.86667V5.94C12.0131 3.74 10.2131 1.94 8.01315 1.94Z" stroke="#7F56D9" stroke-width="1.5" stroke-miterlimit="10" stroke-linecap="round"/>
<path d="M9.24648 2.13333C9.03982 2.07333 8.82648 2.02667 8.60648 2C7.96648 1.92 7.35315 1.96667 6.77982 2.13333C6.97315 1.64 7.45315 1.29333 8.01315 1.29333C8.57315 1.29333 9.05315 1.64 9.24648 2.13333Z" stroke="#7F56D9" stroke-width="1.5" stroke-miterlimit="10" stroke-linecap="round" stroke-linejoin="round"/>
<path d="M10.0132 12.7067C10.0132 13.8067 9.11315 14.7067 8.01315 14.7067C7.46649 14.7067 6.95982 14.48 6.59982 14.12C6.23982 13.76 6.01315 13.2533 6.01315 12.7067" stroke="#7F56D9" stroke-width="1.5" stroke-miterlimit="10"/>
</svg>
