<svg width="343" height="110" viewBox="0 0 343 110" fill="none" xmlns="http://www.w3.org/2000/svg">
<g clip-path="url(#clip0_1_45809)">
<rect width="343" height="110" rx="10" fill="#BDB4FE"/>
<g opacity="0.16">
<path fill-rule="evenodd" clip-rule="evenodd" d="M61.0519 -121.525C48.6821 -110.948 39.4974 -94.7483 37.9836 -75.5335C36.2768 -53.8701 25.2559 -35.865 11.7406 -23.5418C-1.57147 -11.4039 -18.1376 -4.07625 -31.4686 -5.20677C-42.1582 -6.11332 -53.8613 -5.27622 -64.7213 1.50318C-75.605 8.29738 -86.4212 21.5499 -94.1418 47.0135C-107.514 91.1174 -145.141 102.56 -163.02 102.565C-165.778 102.566 -168.044 100.488 -168.082 97.9231C-168.121 95.3586 -165.916 93.279 -163.159 93.2782C-148.831 93.2738 -115.712 83.8124 -103.757 44.3814C-95.6473 17.6357 -83.8147 2.16696 -70.3648 -6.22924C-56.8911 -14.6402 -42.5757 -15.4627 -30.6955 -14.4552C-21.4567 -13.6717 -7.58585 -19.0142 4.69951 -30.216C16.7817 -41.2325 26.5186 -57.2365 28.0234 -76.3369C29.7211 -97.8859 40.0321 -116.253 54.2384 -128.4C68.3982 -140.508 86.8191 -146.709 104.562 -142.992C107.26 -142.427 108.984 -139.941 108.413 -137.439C107.842 -134.938 105.192 -133.368 102.494 -133.933C88.7038 -136.822 73.4683 -132.142 61.0519 -121.525Z" fill="white"/>
<path fill-rule="evenodd" clip-rule="evenodd" d="M111.387 -95.9678C99.0198 -85.3891 89.8383 -69.1881 88.3283 -49.9731C86.6259 -28.3094 75.6085 -10.3028 62.0958 2.02233C48.7861 14.1621 32.2214 21.4921 18.8903 20.3635C8.20053 19.4584 -3.50246 20.2972 -14.3611 27.0781C-25.2434 33.8739 -36.0569 47.1279 -43.7725 72.5926C-57.1361 116.699 -94.761 128.146 -112.64 128.154C-115.397 128.155 -117.664 126.077 -117.703 123.513C-117.742 120.948 -115.538 118.868 -112.78 118.867C-98.4521 118.861 -65.3355 109.395 -53.3878 69.9619C-45.2838 43.215 -33.4543 27.7446 -20.0061 19.3465C-6.53412 10.9336 7.78114 10.1091 19.6615 11.1149C28.9005 11.8971 42.7702 6.55263 55.0534 -4.65086C67.1333 -15.6691 76.867 -31.6745 78.368 -50.7751C80.0614 -72.3244 90.3688 -90.6927 104.573 -102.842C118.73 -114.951 137.15 -121.155 154.894 -117.441C157.592 -116.876 159.316 -114.39 158.746 -111.889C158.175 -109.387 155.525 -107.817 152.827 -108.382C139.036 -111.269 123.802 -106.586 111.387 -95.9678Z" fill="white"/>
<path fill-rule="evenodd" clip-rule="evenodd" d="M161.721 -70.379C149.354 -59.8003 140.172 -43.5993 138.662 -24.3843C136.96 -2.72056 125.943 15.2861 112.43 27.6112C99.1201 39.751 82.5554 47.081 69.2243 45.9523C58.5345 45.0473 46.8315 45.886 35.9729 52.667C25.0906 59.4628 14.2771 72.7168 6.56151 98.1815C-6.80213 142.287 -44.427 153.735 -62.3057 153.743C-65.0632 153.744 -67.3301 151.666 -67.3689 149.102C-67.4077 146.537 -65.2038 144.457 -62.4462 144.456C-48.1181 144.45 -15.0015 134.983 -3.05383 95.5508C5.05021 68.8039 16.8796 53.3335 30.3279 44.9354C43.7999 36.5225 58.1151 35.698 69.9955 36.7038C79.2345 37.486 93.1042 32.1415 105.387 20.938C117.467 9.91981 127.201 -6.08561 128.702 -25.1862C130.395 -46.7355 140.703 -65.1039 154.907 -77.2532C169.064 -89.3626 187.484 -95.5666 205.228 -91.8521C207.926 -91.2873 209.65 -88.8015 209.08 -86.3C208.509 -83.7984 205.859 -82.2284 203.161 -82.7932C189.37 -85.6801 174.136 -80.9975 161.721 -70.379Z" fill="white"/>
<path fill-rule="evenodd" clip-rule="evenodd" d="M212.048 -44.7882C199.68 -34.2094 190.498 -18.0085 188.988 1.20657C187.286 22.8703 176.269 40.8769 162.756 53.202C149.446 65.3418 132.882 72.6718 119.55 71.5432C108.861 70.6381 97.1577 71.4769 86.2991 78.2578C75.4167 85.0536 64.6032 98.3076 56.8877 123.772C43.524 167.878 5.89916 179.326 -11.9795 179.334C-14.737 179.335 -17.0039 177.257 -17.0427 174.692C-17.0815 172.128 -14.8776 170.048 -12.1201 170.047C2.20809 170.04 35.3246 160.574 47.2723 121.142C55.3764 94.3947 67.2058 78.9243 80.6541 70.5262C94.126 62.1133 108.441 61.2888 120.322 62.2946C129.561 63.0768 143.43 57.7323 155.714 46.5288C167.793 35.5106 177.527 19.5052 179.028 0.404601C180.722 -21.1447 191.029 -39.5131 205.233 -51.6623C219.39 -63.7718 237.81 -69.9757 255.554 -66.2613C258.252 -65.6964 259.977 -63.2107 259.406 -60.7092C258.835 -58.2076 256.185 -56.6376 253.487 -57.2024C239.696 -60.0893 224.462 -55.4066 212.048 -44.7882Z" fill="white"/>
<path fill-rule="evenodd" clip-rule="evenodd" d="M262.378 -19.1992C250.01 -8.62052 240.829 7.58047 239.319 26.7955C237.616 48.4592 226.599 66.4658 213.086 78.7909C199.776 90.9307 183.212 98.2607 169.881 97.1321C159.191 96.2271 147.488 97.0658 136.629 103.847C125.747 110.642 114.933 123.897 107.218 149.361C93.8541 193.467 56.2293 204.915 38.3506 204.923C35.5931 204.924 33.3262 202.846 33.2874 200.281C33.2486 197.717 35.4525 195.637 38.21 195.636C52.5382 195.629 85.6547 186.163 97.6024 146.731C105.706 119.984 117.536 104.513 130.984 96.1151C144.456 87.7022 158.771 86.8777 170.652 87.8835C179.891 88.6657 193.76 83.3212 206.044 72.1178C218.124 61.0996 227.857 45.0941 229.358 25.9935C231.052 4.44426 241.359 -13.9241 255.563 -26.0734C269.72 -38.1829 288.14 -44.3868 305.884 -40.6723C308.582 -40.1075 310.307 -37.6218 309.736 -35.1202C309.165 -32.6187 306.515 -31.0487 303.817 -31.6135C290.027 -34.5003 274.792 -29.8177 262.378 -19.1992Z" fill="white"/>
<path fill-rule="evenodd" clip-rule="evenodd" d="M312.706 6.38958C300.338 16.9683 291.157 33.1693 289.647 52.3843C287.944 74.048 276.927 92.0547 263.414 104.38C250.104 116.52 233.54 123.85 220.209 122.721C209.519 121.816 197.816 122.655 186.957 129.436C176.075 136.231 165.261 149.485 157.546 174.95C144.182 219.056 106.557 230.503 88.6787 230.511C85.9212 230.513 83.6543 228.435 83.6155 225.87C83.5767 223.306 85.7806 221.226 88.5381 221.224C102.866 221.218 135.983 211.752 147.931 172.319C156.035 145.572 167.864 130.102 181.312 121.704C194.784 113.291 209.099 112.467 220.98 113.472C230.219 114.255 244.089 108.91 256.372 97.7066C268.452 86.6884 278.185 70.6829 279.686 51.5823C281.38 30.0331 291.687 11.6647 305.891 -0.484595C320.048 -12.5941 338.468 -18.798 356.212 -15.0835C358.91 -14.5187 360.635 -12.033 360.064 -9.53142C359.493 -7.02989 356.843 -5.45987 354.145 -6.02468C340.355 -8.91154 325.12 -4.22891 312.706 6.38958Z" fill="white"/>
<path fill-rule="evenodd" clip-rule="evenodd" d="M363.042 31.9784C350.674 42.5572 341.493 58.7581 339.983 77.9732C338.28 99.6369 327.263 117.644 313.75 129.969C300.44 142.108 283.876 149.438 270.545 148.31C259.855 147.405 248.152 148.243 237.293 155.024C226.411 161.82 215.597 175.074 207.882 200.539C194.518 244.645 156.893 256.092 139.015 256.1C136.257 256.101 133.99 254.024 133.951 251.459C133.913 248.895 136.117 246.815 138.874 246.813C153.202 246.807 186.319 237.341 198.266 197.908C206.371 171.161 218.2 155.691 231.648 147.293C245.12 138.88 259.435 138.055 271.316 139.061C280.555 139.843 294.425 134.499 306.708 123.295C318.788 112.277 328.521 96.2718 330.022 77.1712C331.716 55.6219 342.023 37.2535 356.227 25.1043C370.384 12.9948 388.804 6.79086 406.548 10.5053C409.246 11.0702 410.971 13.5559 410.4 16.0574C409.829 18.559 407.179 20.129 404.481 19.5642C390.691 16.6773 375.456 21.36 363.042 31.9784Z" fill="white"/>
<path fill-rule="evenodd" clip-rule="evenodd" d="M413.372 57.5683C401.004 68.147 391.823 84.348 390.313 103.563C388.61 125.227 377.593 143.233 364.08 155.558C350.771 167.698 334.206 175.028 320.875 173.9C310.185 172.995 298.482 173.833 287.623 180.614C276.741 187.41 265.927 200.664 258.212 226.129C244.848 270.235 207.223 281.682 189.345 281.69C186.587 281.691 184.32 279.613 184.282 277.049C184.243 274.484 186.447 272.404 189.204 272.403C203.532 272.397 236.649 262.931 248.597 223.498C256.701 196.751 268.53 181.281 281.978 172.883C295.45 164.47 309.766 163.645 321.646 164.651C330.885 165.433 344.755 160.089 357.038 148.885C369.118 137.867 378.851 121.862 380.352 102.761C382.046 81.2118 392.353 62.8434 406.557 50.6941C420.714 38.5846 439.134 32.3807 456.878 36.0952C459.576 36.66 461.301 39.1458 460.73 41.6473C460.159 44.1488 457.509 45.7188 454.811 45.154C441.021 42.2672 425.786 46.9498 413.372 57.5683Z" fill="white"/>
<path fill-rule="evenodd" clip-rule="evenodd" d="M463.704 83.1581C451.336 93.7368 442.155 109.938 440.645 129.153C438.942 150.817 427.925 168.823 414.412 181.148C401.103 193.288 384.538 200.618 371.207 199.489C360.517 198.584 348.814 199.423 337.955 206.204C327.073 213 316.259 226.254 308.544 251.719C295.18 295.824 257.555 307.272 239.677 307.28C236.919 307.281 234.652 305.203 234.614 302.639C234.575 300.074 236.779 297.994 239.536 297.993C253.864 297.987 286.981 288.521 298.929 249.088C307.033 222.341 318.862 206.871 332.31 198.472C345.782 190.06 360.098 189.235 371.978 190.241C381.217 191.023 395.087 185.679 407.37 174.475C419.45 163.457 429.183 147.452 430.684 128.351C432.378 106.802 442.685 88.4332 456.889 76.284C471.046 64.1745 489.466 57.9705 507.21 61.685C509.908 62.2498 511.633 64.7356 511.062 67.2371C510.491 69.7387 507.841 71.3087 505.143 70.7439C491.353 67.857 476.118 72.5396 463.704 83.1581Z" fill="white"/>
</g>
<path d="M37.1705 54.358C35.8239 54.3494 34.5241 54.1236 33.2713 53.6804C32.027 53.2372 30.9105 52.517 29.9219 51.5199C28.9332 50.5227 28.1491 49.2017 27.5696 47.5568C26.9986 45.9119 26.7131 43.892 26.7131 41.4972C26.7216 39.2983 26.973 37.3338 27.4673 35.6037C27.9702 33.8651 28.6861 32.3906 29.6151 31.1804C30.5526 29.9702 31.6733 29.0497 32.9773 28.419C34.2813 27.7798 35.7429 27.4602 37.3622 27.4602C39.1094 27.4602 40.652 27.8011 41.9901 28.483C43.3281 29.1562 44.402 30.0724 45.2116 31.2315C46.0298 32.3906 46.5241 33.6903 46.6946 35.1307H41.2358C41.0227 34.2188 40.5753 33.5028 39.8935 32.983C39.2116 32.4631 38.3679 32.2031 37.3622 32.2031C35.6577 32.2031 34.3622 32.9446 33.4759 34.4276C32.598 35.9105 32.1506 37.9261 32.1335 40.4744H32.3125C32.7045 39.6989 33.233 39.0384 33.8977 38.4929C34.571 37.9389 35.3338 37.517 36.1861 37.2273C37.0469 36.929 37.9545 36.7798 38.9091 36.7798C40.4602 36.7798 41.8409 37.1463 43.0511 37.8793C44.2614 38.6037 45.2159 39.6009 45.9148 40.8707C46.6136 42.1406 46.9631 43.5937 46.9631 45.2301C46.9631 47.0028 46.5497 48.5795 45.723 49.9602C44.9048 51.3409 43.7585 52.4233 42.2841 53.2074C40.8182 53.983 39.1136 54.3665 37.1705 54.358ZM37.1449 50.0114C37.9972 50.0114 38.7599 49.8068 39.4332 49.3977C40.1065 48.9886 40.6349 48.4347 41.0185 47.7358C41.402 47.0369 41.5938 46.2528 41.5938 45.3835C41.5938 44.5142 41.402 43.7344 41.0185 43.044C40.6435 42.3537 40.1236 41.804 39.4588 41.3949C38.794 40.9858 38.0355 40.7812 37.1832 40.7812C36.544 40.7812 35.9517 40.9006 35.4062 41.1392C34.8693 41.3778 34.3963 41.7102 33.9872 42.1364C33.5866 42.5625 33.2713 43.0568 33.0412 43.6193C32.8111 44.1733 32.696 44.7656 32.696 45.3963C32.696 46.2401 32.8878 47.0114 33.2713 47.7102C33.6634 48.4091 34.1918 48.9673 34.8565 49.3849C35.5298 49.8026 36.2926 50.0114 37.1449 50.0114ZM60.6134 54.5753C58.4145 54.5668 56.5225 54.0256 54.9373 52.9517C53.3606 51.8778 52.1461 50.3224 51.2938 48.2855C50.4501 46.2486 50.0324 43.7983 50.041 40.9347C50.041 38.0795 50.4628 35.6463 51.3066 33.6349C52.1589 31.6236 53.3734 30.0937 54.9501 29.0455C56.5353 27.9886 58.4231 27.4602 60.6134 27.4602C62.8037 27.4602 64.6873 27.9886 66.264 29.0455C67.8492 30.1023 69.068 31.6364 69.9202 33.6477C70.7725 35.6506 71.1944 38.0795 71.1859 40.9347C71.1859 43.8068 70.7597 46.2614 69.9074 48.2983C69.0637 50.3352 67.8535 51.8906 66.2768 52.9645C64.7001 54.0384 62.8123 54.5753 60.6134 54.5753ZM60.6134 49.9858C62.1134 49.9858 63.3109 49.2315 64.2057 47.723C65.1006 46.2145 65.5438 43.9517 65.5353 40.9347C65.5353 38.9489 65.3307 37.2955 64.9216 35.9744C64.5211 34.6534 63.9501 33.6605 63.2086 32.9957C62.4756 32.331 61.6106 31.9986 60.6134 31.9986C59.1219 31.9986 57.9287 32.7443 57.0339 34.2358C56.139 35.7273 55.6873 37.9602 55.6787 40.9347C55.6787 42.946 55.879 44.625 56.2796 45.9716C56.6887 47.3097 57.264 48.3153 58.0055 48.9886C58.7469 49.6534 59.6162 49.9858 60.6134 49.9858ZM84.8586 54.5753C82.6597 54.5668 80.7677 54.0256 79.1824 52.9517C77.6057 51.8778 76.3912 50.3224 75.539 48.2855C74.6952 46.2486 74.2776 43.7983 74.2861 40.9347C74.2861 38.0795 74.708 35.6463 75.5517 33.6349C76.404 31.6236 77.6185 30.0937 79.1952 29.0455C80.7804 27.9886 82.6682 27.4602 84.8586 27.4602C87.0489 27.4602 88.9324 27.9886 90.5091 29.0455C92.0944 30.1023 93.3131 31.6364 94.1654 33.6477C95.0177 35.6506 95.4395 38.0795 95.431 40.9347C95.431 43.8068 95.0049 46.2614 94.1526 48.2983C93.3088 50.3352 92.0986 51.8906 90.5219 52.9645C88.9452 54.0384 87.0574 54.5753 84.8586 54.5753ZM84.8586 49.9858C86.3586 49.9858 87.556 49.2315 88.4509 47.723C89.3458 46.2145 89.789 43.9517 89.7804 40.9347C89.7804 38.9489 89.5759 37.2955 89.1668 35.9744C88.7662 34.6534 88.1952 33.6605 87.4537 32.9957C86.7208 32.331 85.8557 31.9986 84.8586 31.9986C83.3671 31.9986 82.1739 32.7443 81.279 34.2358C80.3841 35.7273 79.9324 37.9602 79.9239 40.9347C79.9239 42.946 80.1242 44.625 80.5248 45.9716C80.9338 47.3097 81.5091 48.3153 82.2506 48.9886C82.9921 49.6534 83.8614 49.9858 84.8586 49.9858Z" fill="#1D2939"/>
<path d="M32.8295 71.4545C32.7784 71.0227 32.571 70.6875 32.2074 70.4489C31.8438 70.2102 31.3977 70.0909 30.8693 70.0909C30.483 70.0909 30.1449 70.1534 29.8551 70.2784C29.5682 70.4034 29.3438 70.5753 29.1818 70.794C29.0227 71.0128 28.9432 71.2614 28.9432 71.5398C28.9432 71.7727 28.9986 71.973 29.1094 72.1406C29.223 72.3054 29.3679 72.4432 29.544 72.554C29.7202 72.6619 29.9048 72.7514 30.098 72.8224C30.2912 72.8906 30.4688 72.946 30.6307 72.9886L31.517 73.2273C31.7443 73.2869 31.9972 73.3693 32.2756 73.4744C32.5568 73.5795 32.8253 73.723 33.081 73.9048C33.3395 74.0838 33.5526 74.3139 33.7202 74.5952C33.8878 74.8764 33.9716 75.2216 33.9716 75.6307C33.9716 76.1023 33.848 76.5284 33.6009 76.9091C33.3565 77.2898 32.9986 77.5923 32.527 77.8168C32.0582 78.0412 31.4886 78.1534 30.8182 78.1534C30.1932 78.1534 29.652 78.0526 29.1946 77.8509C28.7401 77.6491 28.3821 77.3679 28.1207 77.0071C27.8622 76.6463 27.7159 76.2273 27.6818 75.75H28.7727C28.8011 76.0795 28.9119 76.3523 29.1051 76.5682C29.3011 76.7812 29.5483 76.9403 29.8466 77.0455C30.1477 77.1477 30.4716 77.1989 30.8182 77.1989C31.2216 77.1989 31.5838 77.1335 31.9048 77.0028C32.2259 76.8693 32.4801 76.6847 32.6676 76.4489C32.8551 76.2102 32.9489 75.9318 32.9489 75.6136C32.9489 75.3239 32.8679 75.0881 32.706 74.9062C32.544 74.7244 32.331 74.5767 32.0668 74.4631C31.8026 74.3494 31.517 74.25 31.2102 74.1648L30.1364 73.858C29.4545 73.6619 28.9148 73.3821 28.517 73.0185C28.1193 72.6548 27.9205 72.179 27.9205 71.5909C27.9205 71.1023 28.0526 70.6761 28.3168 70.3125C28.5838 69.946 28.9418 69.6619 29.3906 69.4602C29.8423 69.2557 30.3466 69.1534 30.9034 69.1534C31.4659 69.1534 31.9659 69.2543 32.4034 69.456C32.8409 69.6548 33.1875 69.9276 33.4432 70.2741C33.7017 70.6207 33.8381 71.0142 33.8523 71.4545H32.8295ZM36.2703 75.6136L36.2533 74.3693H36.4578L39.3214 71.4545H40.5658L37.5146 74.5398H37.4294L36.2703 75.6136ZM35.3328 78V69.2727H36.3385V78H35.3328ZM39.4919 78L36.9351 74.7614L37.651 74.0625L40.7703 78H39.4919ZM41.6201 78V71.4545H42.5917V72.4432H42.6599C42.7792 72.1193 42.9951 71.8565 43.3076 71.6548C43.6201 71.4531 43.9724 71.3523 44.3645 71.3523C44.4383 71.3523 44.5307 71.3537 44.6414 71.3565C44.7522 71.3594 44.8361 71.3636 44.8929 71.3693V72.392C44.8588 72.3835 44.7807 72.3707 44.6585 72.3537C44.5392 72.3338 44.4128 72.3239 44.2792 72.3239C43.9611 72.3239 43.677 72.3906 43.427 72.5241C43.1798 72.6548 42.9838 72.8366 42.8389 73.0696C42.6968 73.2997 42.6258 73.5625 42.6258 73.858V78H41.6201ZM46.6919 80.4545C46.5215 80.4545 46.3695 80.4403 46.236 80.4119C46.1024 80.3864 46.0101 80.3608 45.959 80.3352L46.2147 79.4489C46.459 79.5114 46.6749 79.5341 46.8624 79.517C47.0499 79.5 47.2161 79.4162 47.361 79.2656C47.5087 79.1179 47.6436 78.8778 47.7658 78.5455L47.9533 78.0341L45.5328 71.4545H46.6238L48.4306 76.6705H48.4988L50.3056 71.4545H51.3965L48.6181 78.9545C48.4931 79.2926 48.3382 79.5724 48.1536 79.794C47.9689 80.0185 47.7544 80.1847 47.5101 80.2926C47.2686 80.4006 46.9959 80.4545 46.6919 80.4545ZM52.4839 80.4545V71.4545H53.4555V72.4943H53.5748C53.6487 72.3807 53.7509 72.2358 53.8816 72.0597C54.0151 71.8807 54.2055 71.7216 54.4526 71.5824C54.7026 71.4403 55.0407 71.3693 55.4668 71.3693C56.018 71.3693 56.5038 71.5071 56.9242 71.7827C57.3447 72.0582 57.6728 72.4489 57.9086 72.9545C58.1444 73.4602 58.2623 74.0568 58.2623 74.7443C58.2623 75.4375 58.1444 76.0384 57.9086 76.5469C57.6728 77.0526 57.3461 77.4446 56.9285 77.723C56.5109 77.9986 56.0293 78.1364 55.4839 78.1364C55.0634 78.1364 54.7268 78.0668 54.4739 77.9276C54.2211 77.7855 54.0265 77.625 53.8901 77.446C53.7538 77.2642 53.6487 77.1136 53.5748 76.9943H53.4896V80.4545H52.4839ZM53.4725 74.7273C53.4725 75.2216 53.545 75.6577 53.6899 76.0355C53.8347 76.4105 54.0464 76.7045 54.3248 76.9176C54.6032 77.1278 54.9441 77.233 55.3475 77.233C55.768 77.233 56.1188 77.1222 56.4001 76.9006C56.6842 76.6761 56.8972 76.375 57.0393 75.9972C57.1842 75.6165 57.2566 75.1932 57.2566 74.7273C57.2566 74.267 57.1856 73.8523 57.0436 73.483C56.9043 73.1108 56.6927 72.8168 56.4086 72.6009C56.1274 72.3821 55.7737 72.2727 55.3475 72.2727C54.9384 72.2727 54.5947 72.3764 54.3163 72.5838C54.0379 72.7884 53.8276 73.0753 53.6856 73.4446C53.5436 73.8111 53.4725 74.2386 53.4725 74.7273ZM62.403 71.4545V72.3068H59.0109V71.4545H62.403ZM59.9996 69.8864H61.0053V76.125C61.0053 76.4091 61.0464 76.6222 61.1288 76.7642C61.2141 76.9034 61.322 76.9972 61.4527 77.0455C61.5862 77.0909 61.7268 77.1136 61.8746 77.1136C61.9854 77.1136 62.0763 77.108 62.1473 77.0966C62.2183 77.0824 62.2751 77.071 62.3178 77.0625L62.5223 77.9659C62.4541 77.9915 62.3589 78.017 62.2368 78.0426C62.1146 78.071 61.9598 78.0852 61.7723 78.0852C61.4882 78.0852 61.2098 78.0241 60.9371 77.902C60.6672 77.7798 60.4428 77.5938 60.2638 77.3438C60.0876 77.0938 59.9996 76.7784 59.9996 76.3977V69.8864ZM66.9471 78V69.2727H69.896C70.5807 69.2727 71.1403 69.3963 71.575 69.6435C72.0125 69.8878 72.3363 70.2188 72.5466 70.6364C72.7568 71.054 72.8619 71.5199 72.8619 72.0341C72.8619 72.5483 72.7568 73.0156 72.5466 73.4361C72.3392 73.8565 72.0182 74.1918 71.5835 74.4418C71.1488 74.6889 70.592 74.8125 69.913 74.8125H67.7994V73.875H69.8789C70.3477 73.875 70.7241 73.794 71.0082 73.6321C71.2923 73.4702 71.4983 73.2514 71.6261 72.9759C71.7568 72.6974 71.8221 72.3835 71.8221 72.0341C71.8221 71.6847 71.7568 71.3722 71.6261 71.0966C71.4983 70.821 71.2909 70.6051 71.0039 70.4489C70.717 70.2898 70.3363 70.2102 69.8619 70.2102H68.0039V78H66.9471ZM76.7767 78.1364C76.1858 78.1364 75.6674 77.9957 75.2213 77.7145C74.7782 77.4332 74.4316 77.0398 74.1816 76.5341C73.9344 76.0284 73.8108 75.4375 73.8108 74.7614C73.8108 74.0795 73.9344 73.4844 74.1816 72.9759C74.4316 72.4673 74.7782 72.0724 75.2213 71.7912C75.6674 71.5099 76.1858 71.3693 76.7767 71.3693C77.3676 71.3693 77.8847 71.5099 78.3279 71.7912C78.7739 72.0724 79.1205 72.4673 79.3676 72.9759C79.6176 73.4844 79.7426 74.0795 79.7426 74.7614C79.7426 75.4375 79.6176 76.0284 79.3676 76.5341C79.1205 77.0398 78.7739 77.4332 78.3279 77.7145C77.8847 77.9957 77.3676 78.1364 76.7767 78.1364ZM76.7767 77.233C77.2256 77.233 77.5949 77.1179 77.8847 76.8878C78.1745 76.6577 78.389 76.3551 78.5282 75.9801C78.6674 75.6051 78.737 75.1989 78.737 74.7614C78.737 74.3239 78.6674 73.9162 78.5282 73.5384C78.389 73.1605 78.1745 72.8551 77.8847 72.6222C77.5949 72.3892 77.2256 72.2727 76.7767 72.2727C76.3279 72.2727 75.9586 72.3892 75.6688 72.6222C75.379 72.8551 75.1645 73.1605 75.0253 73.5384C74.8861 73.9162 74.8165 74.3239 74.8165 74.7614C74.8165 75.1989 74.8861 75.6051 75.0253 75.9801C75.1645 76.3551 75.379 76.6577 75.6688 76.8878C75.9586 77.1179 76.3279 77.233 76.7767 77.233ZM81.0378 78V71.4545H82.0435V78H81.0378ZM81.5492 70.3636C81.3531 70.3636 81.1841 70.2969 81.0421 70.1634C80.9029 70.0298 80.8333 69.8693 80.8333 69.6818C80.8333 69.4943 80.9029 69.3338 81.0421 69.2003C81.1841 69.0668 81.3531 69 81.5492 69C81.7452 69 81.9128 69.0668 82.052 69.2003C82.194 69.3338 82.2651 69.4943 82.2651 69.6818C82.2651 69.8693 82.194 70.0298 82.052 70.1634C81.9128 70.2969 81.7452 70.3636 81.5492 70.3636ZM84.6511 74.0625V78H83.6455V71.4545H84.617V72.4773H84.7023C84.8557 72.1449 85.0886 71.8778 85.4011 71.6761C85.7136 71.4716 86.117 71.3693 86.6114 71.3693C87.0545 71.3693 87.4423 71.4602 87.7747 71.642C88.1071 71.821 88.3656 72.0938 88.5503 72.4602C88.7349 72.8239 88.8273 73.2841 88.8273 73.8409V78H87.8216V73.9091C87.8216 73.3949 87.6881 72.9943 87.421 72.7074C87.154 72.4176 86.7875 72.2727 86.3216 72.2727C86.0006 72.2727 85.7136 72.3423 85.4608 72.4815C85.2108 72.6207 85.0134 72.8239 84.8685 73.0909C84.7236 73.358 84.6511 73.6818 84.6511 74.0625ZM93.2716 71.4545V72.3068H89.8795V71.4545H93.2716ZM90.8682 69.8864H91.8739V76.125C91.8739 76.4091 91.915 76.6222 91.9974 76.7642C92.0827 76.9034 92.1906 76.9972 92.3213 77.0455C92.4548 77.0909 92.5954 77.1136 92.7432 77.1136C92.854 77.1136 92.9449 77.108 93.0159 77.0966C93.0869 77.0824 93.1437 77.071 93.1864 77.0625L93.3909 77.9659C93.3227 77.9915 93.2275 78.017 93.1054 78.0426C92.9832 78.071 92.8284 78.0852 92.6409 78.0852C92.3568 78.0852 92.0784 78.0241 91.8057 77.902C91.5358 77.7798 91.3114 77.5938 91.1324 77.3438C90.9562 77.0938 90.8682 76.7784 90.8682 76.3977V69.8864ZM99.0635 72.9205L98.1601 73.1761C98.1033 73.0256 98.0195 72.8793 97.9087 72.7372C97.8008 72.5923 97.653 72.473 97.4655 72.3793C97.278 72.2855 97.038 72.2386 96.7454 72.2386C96.3448 72.2386 96.011 72.331 95.7439 72.5156C95.4797 72.6974 95.3476 72.929 95.3476 73.2102C95.3476 73.4602 95.4385 73.6577 95.6204 73.8026C95.8022 73.9474 96.0863 74.0682 96.4726 74.1648L97.4442 74.4034C98.0294 74.5455 98.4655 74.7628 98.7525 75.0554C99.0394 75.3452 99.1829 75.7187 99.1829 76.1761C99.1829 76.5511 99.0749 76.8864 98.859 77.1818C98.6459 77.4773 98.3476 77.7102 97.9641 77.8807C97.5806 78.0511 97.1346 78.1364 96.626 78.1364C95.9584 78.1364 95.4059 77.9915 94.9684 77.7017C94.5309 77.4119 94.2539 76.9886 94.1374 76.4318L95.0919 76.1932C95.1829 76.5455 95.3547 76.8097 95.6076 76.9858C95.8633 77.1619 96.1971 77.25 96.609 77.25C97.0777 77.25 97.4499 77.1506 97.7255 76.9517C98.0039 76.75 98.1431 76.5085 98.1431 76.2273C98.1431 76 98.0635 75.8097 97.9044 75.6562C97.7454 75.5 97.501 75.3835 97.1715 75.3068L96.0806 75.0511C95.4812 74.9091 95.0408 74.6889 94.7596 74.3906C94.4812 74.0895 94.3419 73.7131 94.3419 73.2614C94.3419 72.892 94.4456 72.5653 94.653 72.2812C94.8633 71.9972 95.1488 71.7741 95.5096 71.6122C95.8732 71.4503 96.2851 71.3693 96.7454 71.3693C97.3931 71.3693 97.9016 71.5114 98.2709 71.7955C98.6431 72.0795 98.9073 72.4545 99.0635 72.9205ZM103.728 78V69.2727H108.995V70.2102H104.785V73.1591H108.722V74.0966H104.785V77.0625H109.063V78H103.728ZM112.45 78.1534C112.035 78.1534 111.659 78.0753 111.32 77.919C110.982 77.7599 110.714 77.5312 110.515 77.233C110.316 76.9318 110.217 76.5682 110.217 76.142C110.217 75.767 110.291 75.4631 110.438 75.2301C110.586 74.9943 110.784 74.8097 111.031 74.6761C111.278 74.5426 111.551 74.4432 111.849 74.3778C112.15 74.3097 112.453 74.2557 112.757 74.2159C113.154 74.1648 113.477 74.1264 113.724 74.1009C113.974 74.0724 114.156 74.0256 114.269 73.9602C114.386 73.8949 114.444 73.7812 114.444 73.6193V73.5852C114.444 73.1648 114.329 72.8381 114.099 72.6051C113.872 72.3722 113.526 72.2557 113.063 72.2557C112.583 72.2557 112.207 72.3608 111.934 72.571C111.661 72.7812 111.47 73.0057 111.359 73.2443L110.404 72.9034C110.575 72.5057 110.802 72.196 111.086 71.9744C111.373 71.75 111.686 71.5937 112.024 71.5057C112.364 71.4148 112.7 71.3693 113.029 71.3693C113.239 71.3693 113.481 71.3949 113.754 71.446C114.029 71.4943 114.295 71.5952 114.551 71.7486C114.809 71.902 115.024 72.1335 115.194 72.4432C115.364 72.7528 115.45 73.1676 115.45 73.6875V78H114.444V77.1136H114.393C114.325 77.2557 114.211 77.4077 114.052 77.5696C113.893 77.7315 113.681 77.8693 113.417 77.983C113.153 78.0966 112.83 78.1534 112.45 78.1534ZM112.603 77.25C113.001 77.25 113.336 77.1719 113.609 77.0156C113.884 76.8594 114.092 76.6577 114.231 76.4105C114.373 76.1634 114.444 75.9034 114.444 75.6307V74.7102C114.401 74.7614 114.308 74.8082 114.163 74.8509C114.021 74.8906 113.856 74.9261 113.668 74.9574C113.484 74.9858 113.303 75.0114 113.127 75.0341C112.954 75.054 112.813 75.071 112.705 75.0852C112.444 75.1193 112.2 75.1747 111.972 75.2514C111.748 75.3253 111.566 75.4375 111.427 75.5881C111.291 75.7358 111.222 75.9375 111.222 76.1932C111.222 76.5426 111.352 76.8068 111.61 76.9858C111.872 77.1619 112.203 77.25 112.603 77.25ZM117.045 78V71.4545H118.017V72.4432H118.085C118.204 72.1193 118.42 71.8565 118.733 71.6548C119.045 71.4531 119.398 71.3523 119.79 71.3523C119.863 71.3523 119.956 71.3537 120.067 71.3565C120.177 71.3594 120.261 71.3636 120.318 71.3693V72.392C120.284 72.3835 120.206 72.3707 120.084 72.3537C119.964 72.3338 119.838 72.3239 119.704 72.3239C119.386 72.3239 119.102 72.3906 118.852 72.5241C118.605 72.6548 118.409 72.8366 118.264 73.0696C118.122 73.2997 118.051 73.5625 118.051 73.858V78H117.045ZM122.276 74.0625V78H121.27V71.4545H122.242V72.4773H122.327C122.48 72.1449 122.713 71.8778 123.026 71.6761C123.338 71.4716 123.742 71.3693 124.236 71.3693C124.679 71.3693 125.067 71.4602 125.399 71.642C125.732 71.821 125.99 72.0938 126.175 72.4602C126.36 72.8239 126.452 73.2841 126.452 73.8409V78H125.446V73.9091C125.446 73.3949 125.313 72.9943 125.046 72.7074C124.779 72.4176 124.412 72.2727 123.946 72.2727C123.625 72.2727 123.338 72.3423 123.085 72.4815C122.835 72.6207 122.638 72.8239 122.493 73.0909C122.348 73.358 122.276 73.6818 122.276 74.0625ZM130.794 78.1364C130.163 78.1364 129.619 77.9972 129.162 77.7188C128.707 77.4375 128.356 77.0455 128.109 76.5426C127.865 76.0369 127.743 75.4489 127.743 74.7784C127.743 74.108 127.865 73.517 128.109 73.0057C128.356 72.4915 128.7 72.0909 129.141 71.804C129.584 71.5142 130.101 71.3693 130.692 71.3693C131.033 71.3693 131.369 71.4261 131.702 71.5398C132.034 71.6534 132.337 71.8381 132.609 72.0938C132.882 72.3466 133.099 72.6818 133.261 73.0994C133.423 73.517 133.504 74.0312 133.504 74.642V75.0682H128.459V74.1989H132.481C132.481 73.8295 132.408 73.5 132.26 73.2102C132.115 72.9205 131.908 72.6918 131.638 72.5241C131.371 72.3565 131.055 72.2727 130.692 72.2727C130.291 72.2727 129.945 72.3722 129.652 72.571C129.362 72.767 129.139 73.0227 128.983 73.3381C128.827 73.6534 128.749 73.9915 128.749 74.3523V74.9318C128.749 75.4261 128.834 75.8452 129.004 76.1889C129.178 76.5298 129.418 76.7898 129.724 76.9688C130.031 77.1449 130.388 77.233 130.794 77.233C131.058 77.233 131.297 77.196 131.51 77.1222C131.726 77.0455 131.912 76.9318 132.068 76.7812C132.224 76.6278 132.345 76.4375 132.43 76.2102L133.402 76.483C133.3 76.8125 133.128 77.1023 132.886 77.3523C132.645 77.5994 132.347 77.7926 131.991 77.9318C131.636 78.0682 131.237 78.1364 130.794 78.1364ZM137.266 78.1364C136.72 78.1364 136.239 77.9986 135.821 77.723C135.403 77.4446 135.077 77.0526 134.841 76.5469C134.605 76.0384 134.487 75.4375 134.487 74.7443C134.487 74.0568 134.605 73.4602 134.841 72.9545C135.077 72.4489 135.405 72.0582 135.825 71.7827C136.246 71.5071 136.732 71.3693 137.283 71.3693C137.709 71.3693 138.045 71.4403 138.293 71.5824C138.543 71.7216 138.733 71.8807 138.864 72.0597C138.997 72.2358 139.101 72.3807 139.175 72.4943H139.26V69.2727H140.266V78H139.294V76.9943H139.175C139.101 77.1136 138.996 77.2642 138.859 77.446C138.723 77.625 138.528 77.7855 138.276 77.9276C138.023 78.0668 137.686 78.1364 137.266 78.1364ZM137.402 77.233C137.805 77.233 138.146 77.1278 138.425 76.9176C138.703 76.7045 138.915 76.4105 139.06 76.0355C139.205 75.6577 139.277 75.2216 139.277 74.7273C139.277 74.2386 139.206 73.8111 139.064 73.4446C138.922 73.0753 138.712 72.7884 138.433 72.5838C138.155 72.3764 137.811 72.2727 137.402 72.2727C136.976 72.2727 136.621 72.3821 136.337 72.6009C136.055 72.8168 135.844 73.1108 135.702 73.483C135.563 73.8523 135.493 74.267 135.493 74.7273C135.493 75.1932 135.564 75.6165 135.706 75.9972C135.851 76.375 136.064 76.6761 136.345 76.9006C136.629 77.1222 136.982 77.233 137.402 77.233Z" fill="#1D2939"/>
<rect x="192.5" y="28.5" width="129" height="49" rx="24.5" fill="white"/>
<rect x="192.5" y="28.5" width="129" height="49" rx="24.5" stroke="white"/>
<path d="M208.861 57V48.2727H214.537V49.598H210.442V51.9673H214.243V53.2926H210.442V55.6747H214.571V57H208.861ZM217.725 57.1321C217.31 57.1321 216.937 57.0582 216.604 56.9105C216.275 56.7599 216.014 56.5384 215.82 56.2457C215.63 55.9531 215.535 55.5923 215.535 55.1634C215.535 54.794 215.603 54.4886 215.739 54.2472C215.876 54.0057 216.062 53.8125 216.298 53.6676C216.533 53.5227 216.799 53.4134 217.095 53.3395C217.393 53.2628 217.701 53.2074 218.019 53.1733C218.403 53.1335 218.714 53.098 218.952 53.0668C219.191 53.0327 219.364 52.9815 219.472 52.9134C219.583 52.8423 219.639 52.733 219.639 52.5852V52.5597C219.639 52.2386 219.543 51.9901 219.353 51.8139C219.163 51.6378 218.889 51.5497 218.531 51.5497C218.153 51.5497 217.853 51.6321 217.631 51.7969C217.413 51.9616 217.265 52.1562 217.188 52.3807L215.748 52.1761C215.862 51.7784 216.049 51.446 216.31 51.179C216.572 50.9091 216.891 50.7074 217.269 50.5739C217.647 50.4375 218.065 50.3693 218.522 50.3693C218.837 50.3693 219.151 50.4062 219.464 50.4801C219.776 50.554 220.062 50.6761 220.32 50.8466C220.579 51.0142 220.786 51.2429 220.943 51.5327C221.102 51.8224 221.181 52.1847 221.181 52.6193V57H219.698V56.1009H219.647C219.553 56.2827 219.421 56.4531 219.251 56.6122C219.083 56.7685 218.872 56.8949 218.616 56.9915C218.363 57.0852 218.066 57.1321 217.725 57.1321ZM218.126 55.9986C218.435 55.9986 218.704 55.9375 218.931 55.8153C219.158 55.6903 219.333 55.5256 219.455 55.321C219.58 55.1165 219.643 54.8935 219.643 54.652V53.8807C219.595 53.9205 219.512 53.9574 219.396 53.9915C219.282 54.0256 219.154 54.0554 219.012 54.081C218.87 54.1065 218.729 54.1293 218.59 54.1491C218.451 54.169 218.33 54.1861 218.228 54.2003C217.998 54.2315 217.792 54.2827 217.61 54.3537C217.428 54.4247 217.285 54.5241 217.18 54.652C217.075 54.777 217.022 54.9389 217.022 55.1378C217.022 55.4219 217.126 55.6364 217.333 55.7812C217.541 55.9261 217.805 55.9986 218.126 55.9986ZM222.492 57V50.4545H223.988V51.5455H224.056C224.176 51.1676 224.38 50.8764 224.67 50.6719C224.962 50.4645 225.296 50.3608 225.671 50.3608C225.757 50.3608 225.852 50.3651 225.957 50.3736C226.065 50.3793 226.154 50.3892 226.225 50.4034V51.8224C226.16 51.7997 226.056 51.7798 225.914 51.7628C225.775 51.7429 225.64 51.733 225.509 51.733C225.228 51.733 224.975 51.794 224.751 51.9162C224.529 52.0355 224.355 52.2017 224.227 52.4148C224.099 52.6278 224.035 52.8736 224.035 53.152V57H222.492ZM228.553 53.1648V57H227.01V50.4545H228.485V51.5668H228.561C228.712 51.2003 228.952 50.9091 229.281 50.6932C229.614 50.4773 230.024 50.3693 230.513 50.3693C230.965 50.3693 231.358 50.4659 231.693 50.6591C232.031 50.8523 232.293 51.1321 232.477 51.4986C232.665 51.8651 232.757 52.3097 232.754 52.8324V57H231.212V53.071C231.212 52.6335 231.098 52.2912 230.871 52.044C230.646 51.7969 230.335 51.6733 229.938 51.6733C229.668 51.6733 229.428 51.733 229.218 51.8523C229.01 51.9687 228.847 52.1378 228.727 52.3594C228.611 52.581 228.553 52.8494 228.553 53.1648ZM236.887 57V48.2727H240.16C240.831 48.2727 241.393 48.3977 241.848 48.6477C242.305 48.8977 242.65 49.2415 242.883 49.679C243.119 50.1136 243.237 50.608 243.237 51.1619C243.237 51.7216 243.119 52.2187 242.883 52.6534C242.647 53.0881 242.299 53.4304 241.839 53.6804C241.379 53.9276 240.812 54.0511 240.139 54.0511H237.97V52.7514H239.926C240.318 52.7514 240.639 52.6832 240.889 52.5469C241.139 52.4105 241.323 52.223 241.443 51.9844C241.565 51.7457 241.626 51.4716 241.626 51.1619C241.626 50.8523 241.565 50.5795 241.443 50.3438C241.323 50.108 241.137 49.9247 240.885 49.794C240.635 49.6605 240.312 49.5938 239.917 49.5938H238.468V57H236.887ZM247.063 57.1278C246.424 57.1278 245.87 56.9872 245.401 56.706C244.933 56.4247 244.569 56.0312 244.31 55.5256C244.055 55.0199 243.927 54.429 243.927 53.7528C243.927 53.0767 244.055 52.4844 244.31 51.9759C244.569 51.4673 244.933 51.0724 245.401 50.7912C245.87 50.5099 246.424 50.3693 247.063 50.3693C247.702 50.3693 248.256 50.5099 248.725 50.7912C249.194 51.0724 249.556 51.4673 249.812 51.9759C250.07 52.4844 250.2 53.0767 250.2 53.7528C250.2 54.429 250.07 55.0199 249.812 55.5256C249.556 56.0312 249.194 56.4247 248.725 56.706C248.256 56.9872 247.702 57.1278 247.063 57.1278ZM247.072 55.892C247.418 55.892 247.708 55.7969 247.941 55.6065C248.174 55.4134 248.347 55.1548 248.461 54.831C248.577 54.5071 248.636 54.1463 248.636 53.7486C248.636 53.348 248.577 52.9858 248.461 52.6619C248.347 52.3352 248.174 52.0753 247.941 51.8821C247.708 51.6889 247.418 51.5923 247.072 51.5923C246.717 51.5923 246.421 51.6889 246.185 51.8821C245.952 52.0753 245.778 52.3352 245.661 52.6619C245.548 52.9858 245.491 53.348 245.491 53.7486C245.491 54.1463 245.548 54.5071 245.661 54.831C245.778 55.1548 245.952 55.4134 246.185 55.6065C246.421 55.7969 246.717 55.892 247.072 55.892ZM251.269 57V50.4545H252.811V57H251.269ZM252.044 49.5256C251.8 49.5256 251.59 49.4446 251.414 49.2827C251.238 49.1179 251.15 48.9205 251.15 48.6903C251.15 48.4574 251.238 48.2599 251.414 48.098C251.59 47.9332 251.8 47.8509 252.044 47.8509C252.292 47.8509 252.502 47.9332 252.675 48.098C252.851 48.2599 252.939 48.4574 252.939 48.6903C252.939 48.9205 252.851 49.1179 252.675 49.2827C252.502 49.4446 252.292 49.5256 252.044 49.5256ZM255.7 53.1648V57H254.158V50.4545H255.632V51.5668H255.709C255.859 51.2003 256.1 50.9091 256.429 50.6932C256.761 50.4773 257.172 50.3693 257.661 50.3693C258.112 50.3693 258.506 50.4659 258.841 50.6591C259.179 50.8523 259.44 51.1321 259.625 51.4986C259.813 51.8651 259.905 52.3097 259.902 52.8324V57H258.359V53.071C258.359 52.6335 258.246 52.2912 258.019 52.044C257.794 51.7969 257.483 51.6733 257.085 51.6733C256.815 51.6733 256.575 51.733 256.365 51.8523C256.158 51.9687 255.994 52.1378 255.875 52.3594C255.759 52.581 255.7 52.8494 255.7 53.1648ZM264.499 50.4545V51.6477H260.736V50.4545H264.499ZM261.665 48.8864H263.208V55.0312C263.208 55.2386 263.239 55.3977 263.301 55.5085C263.367 55.6165 263.452 55.6903 263.557 55.7301C263.662 55.7699 263.779 55.7898 263.906 55.7898C264.003 55.7898 264.091 55.7827 264.171 55.7685C264.253 55.7543 264.315 55.7415 264.358 55.7301L264.618 56.9361C264.536 56.9645 264.418 56.9957 264.264 57.0298C264.114 57.0639 263.929 57.0838 263.71 57.0895C263.324 57.1009 262.976 57.0426 262.666 56.9148C262.357 56.7841 262.111 56.5824 261.929 56.3097C261.75 56.0369 261.662 55.696 261.665 55.2869V48.8864ZM270.628 52.1847L269.222 52.3381C269.182 52.196 269.113 52.0625 269.013 51.9375C268.917 51.8125 268.786 51.7116 268.621 51.6349C268.457 51.5582 268.255 51.5199 268.016 51.5199C267.695 51.5199 267.425 51.5895 267.207 51.7287C266.991 51.8679 266.884 52.0483 266.887 52.2699C266.884 52.4602 266.954 52.6151 267.096 52.7344C267.241 52.8537 267.479 52.9517 267.812 53.0284L268.928 53.267C269.547 53.4006 270.008 53.6122 270.309 53.902C270.613 54.1918 270.766 54.571 270.769 55.0398C270.766 55.4517 270.645 55.8153 270.407 56.1307C270.171 56.4432 269.843 56.6875 269.422 56.8636C269.002 57.0398 268.519 57.1278 267.974 57.1278C267.172 57.1278 266.528 56.9602 266.039 56.625C265.55 56.2869 265.259 55.8168 265.165 55.2145L266.67 55.0696C266.738 55.3651 266.883 55.5881 267.104 55.7386C267.326 55.8892 267.614 55.9645 267.969 55.9645C268.336 55.9645 268.63 55.8892 268.851 55.7386C269.076 55.5881 269.188 55.402 269.188 55.1804C269.188 54.9929 269.116 54.8381 268.971 54.7159C268.829 54.5937 268.607 54.5 268.306 54.4347L267.189 54.2003C266.562 54.0696 266.097 53.8494 265.796 53.5398C265.495 53.2273 265.346 52.8324 265.349 52.3551C265.346 51.9517 265.455 51.6023 265.677 51.3068C265.901 51.0085 266.212 50.7784 266.61 50.6165C267.011 50.4517 267.472 50.3693 267.995 50.3693C268.762 50.3693 269.366 50.5327 269.806 50.8594C270.249 51.1861 270.523 51.6278 270.628 52.1847Z" fill="#475467"/>
<path d="M291.31 47.71C291.217 47.8025 291.144 47.9124 291.094 48.0334C291.043 48.1543 291.018 48.284 291.018 48.415C291.018 48.546 291.043 48.6756 291.094 48.7966C291.144 48.9176 291.217 49.0275 291.31 49.12L295.19 53L291.31 56.88C291.123 57.067 291.018 57.3206 291.018 57.585C291.018 57.8494 291.123 58.103 291.31 58.29C291.497 58.477 291.751 58.582 292.015 58.582C292.279 58.582 292.533 58.477 292.72 58.29L297.31 53.7C297.403 53.6075 297.476 53.4976 297.526 53.3766C297.577 53.2556 297.602 53.126 297.602 52.995C297.602 52.864 297.577 52.7343 297.526 52.6134C297.476 52.4924 297.403 52.3825 297.31 52.29L292.72 47.7C292.34 47.32 291.7 47.32 291.31 47.71Z" fill="#475467"/>
</g>
<defs>
<clipPath id="clip0_1_45809">
<rect width="343" height="110" rx="10" fill="white"/>
</clipPath>
</defs>
</svg>
