<svg width="343" height="194" viewBox="0 0 343 194" fill="none" xmlns="http://www.w3.org/2000/svg">
<rect width="343" height="194" rx="10" fill="#F9F5FF"/>
<path d="M21.0092 20.0348C20.9131 19.7332 20.7839 19.4631 20.6214 19.2244C20.4624 18.9825 20.2718 18.777 20.0497 18.608C19.8277 18.4356 19.5741 18.3047 19.2891 18.2152C19.0073 18.1257 18.6974 18.081 18.3594 18.081C17.786 18.081 17.2689 18.2285 16.8082 18.5234C16.3475 18.8184 15.983 19.2509 15.7145 19.821C15.4493 20.3878 15.3168 21.0821 15.3168 21.9041C15.3168 22.7294 15.451 23.4271 15.7195 23.9972C15.9879 24.5672 16.3558 24.9998 16.8232 25.2947C17.2905 25.5897 17.8224 25.7372 18.419 25.7372C18.9725 25.7372 19.4548 25.6245 19.8658 25.3991C20.2801 25.1738 20.5999 24.8556 20.8253 24.4446C21.054 24.0303 21.1683 23.5431 21.1683 22.983L21.5661 23.0575H18.6527V21.7898H22.6548V22.9482C22.6548 23.8033 22.4725 24.5457 22.108 25.1754C21.7467 25.8018 21.2462 26.2857 20.6065 26.6271C19.9702 26.9685 19.241 27.1392 18.419 27.1392C17.4976 27.1392 16.6889 26.9271 15.9929 26.5028C15.3002 26.0786 14.7599 25.477 14.3722 24.6982C13.9844 23.916 13.7905 22.9879 13.7905 21.9141C13.7905 21.102 13.9032 20.3729 14.1286 19.7266C14.3539 19.0803 14.6705 18.5317 15.0781 18.081C15.4891 17.6269 15.9714 17.2805 16.5249 17.0419C17.0817 16.8 17.6899 16.679 18.3494 16.679C18.8996 16.679 19.4117 16.7602 19.8857 16.9226C20.3629 17.085 20.7872 17.3153 21.1584 17.6136C21.5329 17.9119 21.8428 18.2666 22.0881 18.6776C22.3333 19.0852 22.4991 19.5376 22.5852 20.0348H21.0092ZM27.4222 27.1541C26.7063 27.1541 26.0816 26.9901 25.5479 26.6619C25.0143 26.3338 24.6 25.8748 24.3051 25.2848C24.0101 24.6948 23.8626 24.0054 23.8626 23.2166C23.8626 22.4245 24.0101 21.7318 24.3051 21.1385C24.6 20.5452 25.0143 20.0845 25.5479 19.7564C26.0816 19.4283 26.7063 19.2642 27.4222 19.2642C28.1381 19.2642 28.7629 19.4283 29.2965 19.7564C29.8301 20.0845 30.2444 20.5452 30.5394 21.1385C30.8344 21.7318 30.9819 22.4245 30.9819 23.2166C30.9819 24.0054 30.8344 24.6948 30.5394 25.2848C30.2444 25.8748 29.8301 26.3338 29.2965 26.6619C28.7629 26.9901 28.1381 27.1541 27.4222 27.1541ZM27.4272 25.9062C27.8912 25.9062 28.2757 25.7836 28.5806 25.5384C28.8855 25.2931 29.1109 24.9666 29.2568 24.5589C29.4059 24.1513 29.4805 23.7022 29.4805 23.2116C29.4805 22.7244 29.4059 22.277 29.2568 21.8693C29.1109 21.4583 28.8855 21.1286 28.5806 20.88C28.2757 20.6314 27.8912 20.5071 27.4272 20.5071C26.9599 20.5071 26.5721 20.6314 26.2639 20.88C25.9589 21.1286 25.7319 21.4583 25.5827 21.8693C25.4369 22.277 25.364 22.7244 25.364 23.2116C25.364 23.7022 25.4369 24.1513 25.5827 24.5589C25.7319 24.9666 25.9589 25.2931 26.2639 25.5384C26.5721 25.7836 26.9599 25.9062 27.4272 25.9062ZM34.5835 27.169C34.0996 27.169 33.6621 27.0795 33.271 26.9006C32.8799 26.7183 32.57 26.4548 32.3413 26.1101C32.1159 25.7654 32.0032 25.3428 32.0032 24.8423C32.0032 24.4115 32.0861 24.0568 32.2518 23.7784C32.4175 23.5 32.6412 23.2796 32.923 23.1172C33.2047 22.9548 33.5195 22.8321 33.8676 22.7493C34.2156 22.6664 34.5702 22.6035 34.9315 22.5604C35.3889 22.5073 35.7601 22.4643 36.0451 22.4311C36.3302 22.3946 36.5373 22.3366 36.6666 22.2571C36.7958 22.1776 36.8605 22.0483 36.8605 21.8693V21.8345C36.8605 21.4003 36.7378 21.0639 36.4926 20.8253C36.2506 20.5866 35.8893 20.4673 35.4088 20.4673C34.9083 20.4673 34.5139 20.5784 34.2255 20.8004C33.9405 21.0192 33.7433 21.2628 33.6339 21.5312L32.2369 21.2131C32.4026 20.7491 32.6445 20.3745 32.9627 20.0895C33.2842 19.8011 33.6538 19.5923 34.0714 19.4631C34.489 19.3305 34.9282 19.2642 35.3889 19.2642C35.6938 19.2642 36.0169 19.3007 36.3583 19.3736C36.703 19.4432 37.0245 19.5724 37.3228 19.7614C37.6244 19.9503 37.8713 20.2204 38.0636 20.5717C38.2558 20.9197 38.3519 21.3722 38.3519 21.929V27H36.9002V25.956H36.8406C36.7445 26.1482 36.6003 26.3371 36.408 26.5227C36.2158 26.7083 35.9689 26.8625 35.6673 26.9851C35.3657 27.1077 35.0044 27.169 34.5835 27.169ZM34.9066 25.9759C35.3176 25.9759 35.6689 25.8946 35.9606 25.7322C36.2556 25.5698 36.4793 25.3577 36.6318 25.0959C36.7875 24.8307 36.8654 24.5473 36.8654 24.2457V23.2614C36.8124 23.3144 36.7097 23.3641 36.5572 23.4105C36.408 23.4536 36.2373 23.4917 36.0451 23.5249C35.8529 23.5547 35.6656 23.5829 35.4833 23.6094C35.301 23.6326 35.1486 23.6525 35.0259 23.669C34.7376 23.7055 34.4741 23.7668 34.2355 23.853C34.0001 23.9392 33.8112 24.0634 33.6687 24.2259C33.5295 24.3849 33.4599 24.5971 33.4599 24.8622C33.4599 25.2301 33.5958 25.5085 33.8676 25.6974C34.1393 25.883 34.4857 25.9759 34.9066 25.9759ZM41.5384 16.8182V27H40.0519V16.8182H41.5384ZM55.2593 20.1293H53.7081C53.6485 19.7978 53.5374 19.5062 53.375 19.2543C53.2126 19.0024 53.0138 18.7886 52.7784 18.6129C52.5431 18.4373 52.2796 18.3047 51.988 18.2152C51.6996 18.1257 51.393 18.081 51.0682 18.081C50.4816 18.081 49.9562 18.2285 49.4922 18.5234C49.0315 18.8184 48.6669 19.2509 48.3985 19.821C48.1333 20.3911 48.0007 21.0871 48.0007 21.9091C48.0007 22.7377 48.1333 23.437 48.3985 24.0071C48.6669 24.5772 49.0332 25.008 49.4972 25.2997C49.9612 25.5914 50.4832 25.7372 51.0632 25.7372C51.3847 25.7372 51.6897 25.6941 51.978 25.608C52.2697 25.5185 52.5332 25.3875 52.7685 25.2152C53.0038 25.0429 53.2027 24.8324 53.3651 24.5838C53.5308 24.3319 53.6452 24.0436 53.7081 23.7188L55.2593 23.7237C55.1764 24.2242 55.0157 24.6849 54.777 25.1058C54.5417 25.5234 54.2384 25.8847 53.8672 26.1896C53.4993 26.4912 53.0784 26.7249 52.6044 26.8906C52.1305 27.0563 51.6134 27.1392 51.0533 27.1392C50.1717 27.1392 49.3862 26.9304 48.6968 26.5128C48.0074 26.0919 47.4638 25.4903 47.0661 24.7081C46.6717 23.9259 46.4745 22.9929 46.4745 21.9091C46.4745 20.822 46.6733 19.889 47.0711 19.1101C47.4688 18.3279 48.0123 17.728 48.7017 17.3104C49.3911 16.8894 50.175 16.679 51.0533 16.679C51.5935 16.679 52.0973 16.7569 52.5647 16.9126C53.0353 17.0651 53.4579 17.2905 53.8324 17.5888C54.2069 17.8838 54.5168 18.245 54.7621 18.6726C55.0074 19.0968 55.1731 19.5824 55.2593 20.1293ZM59.9148 27.1541C59.1989 27.1541 58.5741 26.9901 58.0405 26.6619C57.5069 26.3338 57.0926 25.8748 56.7976 25.2848C56.5026 24.6948 56.3552 24.0054 56.3552 23.2166C56.3552 22.4245 56.5026 21.7318 56.7976 21.1385C57.0926 20.5452 57.5069 20.0845 58.0405 19.7564C58.5741 19.4283 59.1989 19.2642 59.9148 19.2642C60.6307 19.2642 61.2555 19.4283 61.7891 19.7564C62.3227 20.0845 62.737 20.5452 63.032 21.1385C63.327 21.7318 63.4745 22.4245 63.4745 23.2166C63.4745 24.0054 63.327 24.6948 63.032 25.2848C62.737 25.8748 62.3227 26.3338 61.7891 26.6619C61.2555 26.9901 60.6307 27.1541 59.9148 27.1541ZM59.9198 25.9062C60.3838 25.9062 60.7683 25.7836 61.0732 25.5384C61.3781 25.2931 61.6035 24.9666 61.7493 24.5589C61.8985 24.1513 61.9731 23.7022 61.9731 23.2116C61.9731 22.7244 61.8985 22.277 61.7493 21.8693C61.6035 21.4583 61.3781 21.1286 61.0732 20.88C60.7683 20.6314 60.3838 20.5071 59.9198 20.5071C59.4525 20.5071 59.0647 20.6314 58.7564 20.88C58.4515 21.1286 58.2245 21.4583 58.0753 21.8693C57.9295 22.277 57.8566 22.7244 57.8566 23.2116C57.8566 23.7022 57.9295 24.1513 58.0753 24.5589C58.2245 24.9666 58.4515 25.2931 58.7564 25.5384C59.0647 25.7836 59.4525 25.9062 59.9198 25.9062ZM64.8537 27V19.3636H66.2806V20.6065H66.3751C66.5341 20.1856 66.7943 19.8575 67.1556 19.6222C67.5169 19.3835 67.9494 19.2642 68.4532 19.2642C68.9636 19.2642 69.3911 19.3835 69.7358 19.6222C70.0839 19.8608 70.3407 20.1889 70.5064 20.6065H70.586C70.7683 20.1989 71.0583 19.8741 71.456 19.6321C71.8537 19.3868 72.3277 19.2642 72.8779 19.2642C73.5706 19.2642 74.1357 19.4813 74.5732 19.9155C75.014 20.3497 75.2344 21.0043 75.2344 21.8793V27H73.7479V22.0185C73.7479 21.5014 73.6071 21.1269 73.3253 20.8949C73.0436 20.6629 72.7072 20.5469 72.3161 20.5469C71.8322 20.5469 71.456 20.696 71.1876 20.9943C70.9191 21.2893 70.7849 21.6688 70.7849 22.1328V27H69.3033V21.924C69.3033 21.5097 69.1741 21.1766 68.9155 20.9247C68.657 20.6728 68.3206 20.5469 67.9063 20.5469C67.6246 20.5469 67.3644 20.6214 67.1258 20.7706C66.8904 20.9164 66.6999 21.1203 66.554 21.3821C66.4115 21.6439 66.3402 21.9472 66.3402 22.2919V27H64.8537ZM76.9468 29.8636V19.3636H78.3985V20.6016H78.5228C78.609 20.4425 78.7332 20.2585 78.8957 20.0497C79.0581 19.8409 79.2834 19.6586 79.5718 19.5028C79.8601 19.3438 80.2413 19.2642 80.7153 19.2642C81.3317 19.2642 81.8819 19.42 82.3658 19.7315C82.8497 20.0431 83.2292 20.4922 83.5043 21.0788C83.7827 21.6655 83.9219 22.3714 83.9219 23.1967C83.9219 24.022 83.7844 24.7296 83.5093 25.3196C83.2342 25.9062 82.8564 26.3587 82.3758 26.6768C81.8952 26.9917 81.3466 27.1491 80.7302 27.1491C80.2662 27.1491 79.8867 27.0713 79.5917 26.9155C79.3 26.7597 79.0713 26.5774 78.9056 26.3686C78.7399 26.1598 78.6123 25.9742 78.5228 25.8118H78.4333V29.8636H76.9468ZM78.4035 23.1818C78.4035 23.7187 78.4814 24.1894 78.6371 24.5938C78.7929 24.9981 79.0183 25.3146 79.3133 25.5433C79.6082 25.7687 79.9695 25.8814 80.3971 25.8814C80.8412 25.8814 81.2124 25.7637 81.5107 25.5284C81.809 25.2898 82.0344 24.9666 82.1868 24.5589C82.3426 24.1513 82.4205 23.6922 82.4205 23.1818C82.4205 22.678 82.3443 22.2256 82.1918 21.8246C82.0427 21.4235 81.8173 21.107 81.5157 20.875C81.2174 20.643 80.8445 20.527 80.3971 20.527C79.9662 20.527 79.6016 20.638 79.3033 20.8601C79.0083 21.0821 78.7846 21.392 78.6322 21.7898C78.4797 22.1875 78.4035 22.6515 78.4035 23.1818ZM86.7939 16.8182V27H85.3074V16.8182H86.7939ZM91.8049 27.1541C91.0526 27.1541 90.4046 26.9934 89.861 26.6719C89.3208 26.3471 88.9032 25.8913 88.6082 25.3047C88.3165 24.7147 88.1707 24.0237 88.1707 23.2315C88.1707 22.4493 88.3165 21.7599 88.6082 21.1634C88.9032 20.5668 89.3142 20.1011 89.8412 19.7663C90.3715 19.4316 90.9912 19.2642 91.7005 19.2642C92.1314 19.2642 92.549 19.3355 92.9534 19.478C93.3577 19.6205 93.7207 19.8442 94.0421 20.1491C94.3636 20.4541 94.6172 20.8501 94.8028 21.3374C94.9884 21.8213 95.0812 22.4096 95.0812 23.1023V23.6293H89.0109V22.5156H93.6245C93.6245 22.1245 93.545 21.7782 93.3859 21.4766C93.2268 21.1716 93.0031 20.9313 92.7147 20.7557C92.4297 20.58 92.0949 20.4922 91.7105 20.4922C91.2929 20.4922 90.9283 20.5949 90.6167 20.8004C90.3085 21.0026 90.0698 21.2678 89.9008 21.5959C89.7351 21.9207 89.6522 22.2737 89.6522 22.6548V23.5249C89.6522 24.0353 89.7417 24.4695 89.9207 24.8274C90.103 25.1854 90.3565 25.4588 90.6814 25.6477C91.0062 25.8333 91.3857 25.9261 91.8198 25.9261C92.1016 25.9261 92.3584 25.8864 92.5904 25.8068C92.8225 25.724 93.023 25.6013 93.192 25.4389C93.361 25.2765 93.4903 25.076 93.5798 24.8374L94.9868 25.0909C94.8741 25.5052 94.6719 25.8681 94.3802 26.1797C94.0919 26.4879 93.7289 26.7282 93.2914 26.9006C92.8573 27.0696 92.3618 27.1541 91.8049 27.1541ZM100.015 19.3636V20.5568H95.844V19.3636H100.015ZM96.9626 17.5341H98.4491V24.7578C98.4491 25.0462 98.4922 25.2633 98.5784 25.4091C98.6646 25.5516 98.7756 25.6494 98.9115 25.7024C99.0507 25.7521 99.2015 25.777 99.3639 25.777C99.4832 25.777 99.5876 25.7687 99.6771 25.7521C99.7666 25.7356 99.8362 25.7223 99.8859 25.7124L100.154 26.9403C100.068 26.9735 99.9456 27.0066 99.7865 27.0398C99.6274 27.0762 99.4285 27.0961 99.1899 27.0994C98.7988 27.1061 98.4342 27.0365 98.0961 26.8906C97.7581 26.7448 97.4846 26.5194 97.2758 26.2145C97.067 25.9096 96.9626 25.5268 96.9626 25.0661V17.5341ZM101.38 27V19.3636H102.866V27H101.38ZM102.13 18.1854C101.872 18.1854 101.65 18.0992 101.464 17.9268C101.282 17.7512 101.191 17.5424 101.191 17.3004C101.191 17.0552 101.282 16.8464 101.464 16.674C101.65 16.4983 101.872 16.4105 102.13 16.4105C102.389 16.4105 102.609 16.4983 102.791 16.674C102.977 16.8464 103.07 17.0552 103.07 17.3004C103.07 17.5424 102.977 17.7512 102.791 17.9268C102.609 18.0992 102.389 18.1854 102.13 18.1854ZM107.802 27.1541C107.087 27.1541 106.462 26.9901 105.928 26.6619C105.395 26.3338 104.98 25.8748 104.685 25.2848C104.39 24.6948 104.243 24.0054 104.243 23.2166C104.243 22.4245 104.39 21.7318 104.685 21.1385C104.98 20.5452 105.395 20.0845 105.928 19.7564C106.462 19.4283 107.087 19.2642 107.802 19.2642C108.518 19.2642 109.143 19.4283 109.677 19.7564C110.21 20.0845 110.625 20.5452 110.92 21.1385C111.215 21.7318 111.362 22.4245 111.362 23.2166C111.362 24.0054 111.215 24.6948 110.92 25.2848C110.625 25.8748 110.21 26.3338 109.677 26.6619C109.143 26.9901 108.518 27.1541 107.802 27.1541ZM107.807 25.9062C108.271 25.9062 108.656 25.7836 108.961 25.5384C109.266 25.2931 109.491 24.9666 109.637 24.5589C109.786 24.1513 109.861 23.7022 109.861 23.2116C109.861 22.7244 109.786 22.277 109.637 21.8693C109.491 21.4583 109.266 21.1286 108.961 20.88C108.656 20.6314 108.271 20.5071 107.807 20.5071C107.34 20.5071 106.952 20.6314 106.644 20.88C106.339 21.1286 106.112 21.4583 105.963 21.8693C105.817 22.277 105.744 22.7244 105.744 23.2116C105.744 23.7022 105.817 24.1513 105.963 24.5589C106.112 24.9666 106.339 25.2931 106.644 25.5384C106.952 25.7836 107.34 25.9062 107.807 25.9062ZM114.228 22.4659V27H112.741V19.3636H114.168V20.6065H114.263C114.438 20.2022 114.713 19.8774 115.088 19.6321C115.466 19.3868 115.941 19.2642 116.515 19.2642C117.035 19.2642 117.491 19.3736 117.882 19.5923C118.273 19.8078 118.576 20.1293 118.792 20.5568C119.007 20.9844 119.115 21.513 119.115 22.1428V27H117.628V22.3217C117.628 21.7682 117.484 21.3357 117.196 21.0241C116.908 20.7093 116.512 20.5518 116.008 20.5518C115.663 20.5518 115.356 20.6264 115.088 20.7756C114.823 20.9247 114.612 21.1435 114.457 21.4318C114.304 21.7169 114.228 22.0616 114.228 22.4659ZM132.83 20.1293H131.279C131.219 19.7978 131.108 19.5062 130.945 19.2543C130.783 19.0024 130.584 18.7886 130.349 18.6129C130.114 18.4373 129.85 18.3047 129.558 18.2152C129.27 18.1257 128.963 18.081 128.639 18.081C128.052 18.081 127.527 18.2285 127.063 18.5234C126.602 18.8184 126.237 19.2509 125.969 19.821C125.704 20.3911 125.571 21.0871 125.571 21.9091C125.571 22.7377 125.704 23.437 125.969 24.0071C126.237 24.5772 126.604 25.008 127.068 25.2997C127.532 25.5914 128.054 25.7372 128.634 25.7372C128.955 25.7372 129.26 25.6941 129.548 25.608C129.84 25.5185 130.104 25.3875 130.339 25.2152C130.574 25.0429 130.773 24.8324 130.935 24.5838C131.101 24.3319 131.216 24.0436 131.279 23.7188L132.83 23.7237C132.747 24.2242 132.586 24.6849 132.347 25.1058C132.112 25.5234 131.809 25.8847 131.438 26.1896C131.07 26.4912 130.649 26.7249 130.175 26.8906C129.701 27.0563 129.184 27.1392 128.624 27.1392C127.742 27.1392 126.957 26.9304 126.267 26.5128C125.578 26.0919 125.034 25.4903 124.636 24.7081C124.242 23.9259 124.045 22.9929 124.045 21.9091C124.045 20.822 124.244 19.889 124.641 19.1101C125.039 18.3279 125.583 17.728 126.272 17.3104C126.962 16.8894 127.745 16.679 128.624 16.679C129.164 16.679 129.668 16.7569 130.135 16.9126C130.606 17.0651 131.028 17.2905 131.403 17.5888C131.777 17.8838 132.087 18.245 132.332 18.6726C132.578 19.0968 132.743 19.5824 132.83 20.1293ZM135.755 22.4659V27H134.269V16.8182H135.735V20.6065H135.83C136.009 20.1955 136.282 19.8691 136.65 19.6271C137.018 19.3852 137.498 19.2642 138.092 19.2642C138.615 19.2642 139.073 19.3719 139.464 19.5874C139.858 19.8028 140.163 20.1243 140.379 20.5518C140.597 20.9761 140.707 21.5064 140.707 22.1428V27H139.22V22.3217C139.22 21.7616 139.076 21.3274 138.788 21.0192C138.499 20.7076 138.098 20.5518 137.585 20.5518C137.233 20.5518 136.918 20.6264 136.64 20.7756C136.365 20.9247 136.148 21.1435 135.989 21.4318C135.833 21.7169 135.755 22.0616 135.755 22.4659ZM144.633 27.169C144.149 27.169 143.711 27.0795 143.32 26.9006C142.929 26.7183 142.619 26.4548 142.391 26.1101C142.165 25.7654 142.053 25.3428 142.053 24.8423C142.053 24.4115 142.135 24.0568 142.301 23.7784C142.467 23.5 142.691 23.2796 142.972 23.1172C143.254 22.9548 143.569 22.8321 143.917 22.7493C144.265 22.6664 144.62 22.6035 144.981 22.5604C145.438 22.5073 145.809 22.4643 146.094 22.4311C146.379 22.3946 146.587 22.3366 146.716 22.2571C146.845 22.1776 146.91 22.0483 146.91 21.8693V21.8345C146.91 21.4003 146.787 21.0639 146.542 20.8253C146.3 20.5866 145.939 20.4673 145.458 20.4673C144.958 20.4673 144.563 20.5784 144.275 20.8004C143.99 21.0192 143.793 21.2628 143.683 21.5312L142.286 21.2131C142.452 20.7491 142.694 20.3745 143.012 20.0895C143.334 19.8011 143.703 19.5923 144.121 19.4631C144.538 19.3305 144.977 19.2642 145.438 19.2642C145.743 19.2642 146.066 19.3007 146.408 19.3736C146.752 19.4432 147.074 19.5724 147.372 19.7614C147.674 19.9503 147.921 20.2204 148.113 20.5717C148.305 20.9197 148.401 21.3722 148.401 21.929V27H146.95V25.956H146.89C146.794 26.1482 146.65 26.3371 146.457 26.5227C146.265 26.7083 146.018 26.8625 145.717 26.9851C145.415 27.1077 145.054 27.169 144.633 27.169ZM144.956 25.9759C145.367 25.9759 145.718 25.8946 146.01 25.7322C146.305 25.5698 146.529 25.3577 146.681 25.0959C146.837 24.8307 146.915 24.5473 146.915 24.2457V23.2614C146.862 23.3144 146.759 23.3641 146.606 23.4105C146.457 23.4536 146.287 23.4917 146.094 23.5249C145.902 23.5547 145.715 23.5829 145.533 23.6094C145.35 23.6326 145.198 23.6525 145.075 23.669C144.787 23.7055 144.523 23.7668 144.285 23.853C144.049 23.9392 143.861 24.0634 143.718 24.2259C143.579 24.3849 143.509 24.5971 143.509 24.8622C143.509 25.2301 143.645 25.5085 143.917 25.6974C144.189 25.883 144.535 25.9759 144.956 25.9759ZM150.101 27V19.3636H151.538V20.5767H151.617C151.757 20.1657 152.002 19.8426 152.353 19.6072C152.708 19.3686 153.109 19.2493 153.556 19.2493C153.649 19.2493 153.759 19.2526 153.885 19.2592C154.014 19.2659 154.115 19.2741 154.188 19.2841V20.706C154.128 20.6894 154.022 20.6712 153.87 20.6513C153.717 20.6281 153.565 20.6165 153.412 20.6165C153.061 20.6165 152.748 20.6911 152.473 20.8402C152.201 20.986 151.985 21.1899 151.826 21.4517C151.667 21.7102 151.588 22.0052 151.588 22.3366V27H150.101ZM159.21 19.3636V20.5568H155.039V19.3636H159.21ZM156.157 17.5341H157.644V24.7578C157.644 25.0462 157.687 25.2633 157.773 25.4091C157.859 25.5516 157.97 25.6494 158.106 25.7024C158.246 25.7521 158.396 25.777 158.559 25.777C158.678 25.777 158.782 25.7687 158.872 25.7521C158.961 25.7356 159.031 25.7223 159.081 25.7124L159.349 26.9403C159.263 26.9735 159.14 27.0066 158.981 27.0398C158.822 27.0762 158.623 27.0961 158.385 27.0994C157.994 27.1061 157.629 27.0365 157.291 26.8906C156.953 26.7448 156.679 26.5194 156.471 26.2145C156.262 25.9096 156.157 25.5268 156.157 25.0661V17.5341Z" fill="#1D2939"/>
<path d="M250 25L246 21L250 17V25Z" fill="#1D2939"/>
<path d="M258.528 17.4062V16.2727H265.283V17.4062H262.56V25H261.247V17.4062H258.528ZM267.707 21.1136V25H266.433V16.2727H267.69V19.5199H267.771C267.924 19.1676 268.159 18.8878 268.474 18.6804C268.789 18.473 269.201 18.3693 269.71 18.3693C270.159 18.3693 270.551 18.4616 270.886 18.6463C271.224 18.831 271.485 19.1065 271.67 19.473C271.858 19.8366 271.951 20.2912 271.951 20.8366V25H270.677V20.9901C270.677 20.5099 270.554 20.1378 270.307 19.8736C270.059 19.6065 269.716 19.473 269.275 19.473C268.974 19.473 268.704 19.5369 268.466 19.6648C268.23 19.7926 268.044 19.9801 267.907 20.2273C267.774 20.4716 267.707 20.767 267.707 21.1136ZM273.412 25V18.4545H274.686V25H273.412ZM274.055 17.4446C273.834 17.4446 273.643 17.3707 273.484 17.223C273.328 17.0724 273.25 16.8935 273.25 16.6861C273.25 16.4759 273.328 16.2969 273.484 16.1491C273.643 15.9986 273.834 15.9233 274.055 15.9233C274.277 15.9233 274.466 15.9986 274.622 16.1491C274.781 16.2969 274.861 16.4759 274.861 16.6861C274.861 16.8935 274.781 17.0724 274.622 17.223C274.466 17.3707 274.277 17.4446 274.055 17.4446ZM281.065 20.0526L279.91 20.2571C279.862 20.1094 279.785 19.9687 279.68 19.8352C279.578 19.7017 279.438 19.5923 279.262 19.5071C279.086 19.4219 278.866 19.3793 278.602 19.3793C278.241 19.3793 277.94 19.4602 277.698 19.6222C277.457 19.7812 277.336 19.9872 277.336 20.2401C277.336 20.4588 277.417 20.6349 277.579 20.7685C277.741 20.902 278.002 21.0114 278.363 21.0966L279.403 21.3352C280.005 21.4744 280.454 21.6889 280.749 21.9787C281.045 22.2685 281.193 22.6449 281.193 23.108C281.193 23.5 281.079 23.8494 280.852 24.1562C280.627 24.4602 280.313 24.6989 279.91 24.8722C279.509 25.0455 279.045 25.1321 278.517 25.1321C277.784 25.1321 277.186 24.9759 276.722 24.6634C276.259 24.348 275.975 23.9006 275.87 23.321L277.102 23.1335C277.178 23.4545 277.336 23.6974 277.575 23.8622C277.813 24.0241 278.124 24.1051 278.508 24.1051C278.926 24.1051 279.259 24.0185 279.509 23.8452C279.759 23.669 279.884 23.4545 279.884 23.2017C279.884 22.9972 279.808 22.8253 279.654 22.6861C279.504 22.5469 279.272 22.4418 278.96 22.3707L277.852 22.1278C277.241 21.9886 276.789 21.767 276.497 21.4631C276.207 21.1591 276.062 20.7741 276.062 20.3082C276.062 19.9219 276.17 19.5838 276.386 19.294C276.602 19.0043 276.9 18.7784 277.281 18.6165C277.661 18.4517 278.097 18.3693 278.589 18.3693C279.296 18.3693 279.853 18.5227 280.259 18.8295C280.666 19.1335 280.934 19.5412 281.065 20.0526ZM284.718 16.2727H286.214L288.494 20.2401H288.588L290.867 16.2727H292.363L289.197 21.5739V25H287.885V21.5739L284.718 16.2727ZM295.007 25.1321C294.362 25.1321 293.807 24.9943 293.341 24.7188C292.878 24.4403 292.52 24.0497 292.267 23.5469C292.017 23.0412 291.892 22.4489 291.892 21.7699C291.892 21.0994 292.017 20.5085 292.267 19.9972C292.52 19.4858 292.872 19.0866 293.324 18.7997C293.778 18.5128 294.31 18.3693 294.918 18.3693C295.287 18.3693 295.645 18.4304 295.991 18.5526C296.338 18.6747 296.649 18.8665 296.925 19.1278C297.2 19.3892 297.418 19.7287 297.577 20.1463C297.736 20.5611 297.815 21.0653 297.815 21.6591V22.1108H292.612V21.1562H296.567C296.567 20.821 296.499 20.5241 296.362 20.2656C296.226 20.0043 296.034 19.7983 295.787 19.6477C295.543 19.4972 295.256 19.4219 294.926 19.4219C294.568 19.4219 294.256 19.5099 293.989 19.6861C293.724 19.8594 293.52 20.0866 293.375 20.3679C293.233 20.6463 293.162 20.9489 293.162 21.2756V22.0213C293.162 22.4588 293.239 22.831 293.392 23.1378C293.548 23.4446 293.766 23.679 294.044 23.8409C294.322 24 294.648 24.0795 295.02 24.0795C295.261 24.0795 295.482 24.0455 295.68 23.9773C295.879 23.9062 296.051 23.8011 296.196 23.6619C296.341 23.5227 296.452 23.3509 296.528 23.1463L297.734 23.3636C297.638 23.7187 297.464 24.0298 297.214 24.2969C296.967 24.5611 296.656 24.767 296.281 24.9148C295.909 25.0597 295.484 25.1321 295.007 25.1321ZM300.894 25.1449C300.479 25.1449 300.104 25.0682 299.769 24.9148C299.434 24.7585 299.168 24.5327 298.972 24.2372C298.779 23.9418 298.682 23.5795 298.682 23.1506C298.682 22.7812 298.753 22.4773 298.895 22.2386C299.037 22 299.229 21.8111 299.471 21.6719C299.712 21.5327 299.982 21.4276 300.28 21.3565C300.579 21.2855 300.882 21.2315 301.192 21.1946C301.584 21.1491 301.902 21.1122 302.147 21.0838C302.391 21.0526 302.569 21.0028 302.679 20.9347C302.79 20.8665 302.846 20.7557 302.846 20.6023V20.5724C302.846 20.2003 302.74 19.9119 302.53 19.7074C302.323 19.5028 302.013 19.4006 301.601 19.4006C301.172 19.4006 300.834 19.4957 300.587 19.6861C300.343 19.8736 300.174 20.0824 300.08 20.3125L298.882 20.0398C299.025 19.642 299.232 19.321 299.505 19.0767C299.78 18.8295 300.097 18.6506 300.455 18.5398C300.813 18.4261 301.189 18.3693 301.584 18.3693C301.846 18.3693 302.123 18.4006 302.415 18.4631C302.711 18.5227 302.986 18.6335 303.242 18.7955C303.5 18.9574 303.712 19.1889 303.877 19.4901C304.042 19.7884 304.124 20.1761 304.124 20.6534V25H302.88V24.1051H302.829C302.746 24.2699 302.623 24.4318 302.458 24.5909C302.293 24.75 302.081 24.8821 301.823 24.9872C301.564 25.0923 301.255 25.1449 300.894 25.1449ZM301.171 24.1222C301.523 24.1222 301.824 24.0526 302.074 23.9134C302.327 23.7741 302.519 23.5923 302.65 23.3679C302.783 23.1406 302.85 22.8977 302.85 22.6392V21.7955C302.804 21.8409 302.716 21.8835 302.586 21.9233C302.458 21.9602 302.311 21.9929 302.147 22.0213C301.982 22.0469 301.821 22.071 301.665 22.0938C301.509 22.1136 301.378 22.1307 301.273 22.1449C301.026 22.1761 300.8 22.2287 300.596 22.3026C300.394 22.3764 300.232 22.483 300.11 22.6222C299.99 22.7585 299.931 22.9403 299.931 23.1676C299.931 23.483 300.047 23.7216 300.28 23.8835C300.513 24.0426 300.81 24.1222 301.171 24.1222ZM305.581 25V18.4545H306.813V19.4943H306.881C307 19.142 307.21 18.8651 307.511 18.6634C307.815 18.4588 308.159 18.3565 308.543 18.3565C308.622 18.3565 308.716 18.3594 308.824 18.3651C308.935 18.3707 309.021 18.3778 309.084 18.3864V19.6051C309.033 19.5909 308.942 19.5753 308.811 19.5582C308.68 19.5384 308.55 19.5284 308.419 19.5284C308.118 19.5284 307.85 19.5923 307.614 19.7202C307.381 19.8452 307.196 20.0199 307.06 20.2443C306.923 20.4659 306.855 20.7187 306.855 21.0028V25H305.581Z" fill="#1D2939"/>
<path d="M318 25V17L322 21L318 25Z" fill="#1D2939"/>
<path d="M25 51V164H330" stroke="#B3B3B3" stroke-linecap="round"/>
<path d="M15.7765 162.121C15.2154 162.118 14.736 161.97 14.3382 161.677C13.9405 161.383 13.6363 160.956 13.4256 160.395C13.2149 159.834 13.1096 159.158 13.1096 158.367C13.1096 157.579 13.2149 156.905 13.4256 156.347C13.6387 155.788 13.9441 155.362 14.3418 155.068C14.7419 154.775 15.2201 154.628 15.7765 154.628C16.3328 154.628 16.8098 154.776 17.2076 155.072C17.6053 155.365 17.9095 155.791 18.1202 156.35C18.3333 156.906 18.4398 157.579 18.4398 158.367C18.4398 159.16 18.3345 159.837 18.1238 160.398C17.9131 160.957 17.6088 161.384 17.2111 161.68C16.8134 161.974 16.3352 162.121 15.7765 162.121ZM15.7765 161.173C16.2689 161.173 16.6536 160.932 16.9306 160.452C17.2099 159.971 17.3496 159.276 17.3496 158.367C17.3496 157.763 17.2857 157.253 17.1578 156.837C17.0324 156.418 16.8513 156.1 16.6145 155.885C16.3801 155.667 16.1008 155.558 15.7765 155.558C15.2864 155.558 14.9017 155.8 14.6223 156.283C14.343 156.766 14.2021 157.46 14.1998 158.367C14.1998 158.973 14.2625 159.486 14.388 159.905C14.5158 160.321 14.6969 160.638 14.9313 160.853C15.1657 161.066 15.4474 161.173 15.7765 161.173Z" fill="#475467"/>
<path d="M15.899 136.099C15.4539 136.099 15.0538 136.014 14.6987 135.844C14.3459 135.671 14.0642 135.434 13.8535 135.134C13.6428 134.833 13.5304 134.49 13.5162 134.104H14.5815C14.6075 134.416 14.746 134.673 14.997 134.874C15.2479 135.076 15.5486 135.176 15.899 135.176C16.1783 135.176 16.4257 135.112 16.6412 134.984C16.859 134.854 17.0294 134.675 17.1525 134.448C17.278 134.221 17.3407 133.962 17.3407 133.67C17.3407 133.375 17.2768 133.111 17.149 132.879C17.0211 132.647 16.8448 132.464 16.6199 132.332C16.3973 132.199 16.1416 132.132 15.8528 132.129C15.6326 132.129 15.4113 132.167 15.1887 132.243C14.9662 132.319 14.7863 132.418 14.649 132.541L13.644 132.392L14.0524 128.727H18.051V129.668H14.965L14.7342 131.703H14.7768C14.9189 131.566 15.1071 131.451 15.3414 131.359C15.5782 131.266 15.8315 131.22 16.1014 131.22C16.5441 131.22 16.9383 131.326 17.2839 131.536C17.6319 131.747 17.9054 132.035 18.1042 132.399C18.3055 132.761 18.4049 133.178 18.4025 133.649C18.4049 134.12 18.2984 134.54 18.0829 134.91C17.8699 135.279 17.5739 135.57 17.1951 135.783C16.8187 135.994 16.3867 136.099 15.899 136.099Z" fill="#475467"/>
<path d="M11.4772 102.727V110H10.3763V103.828H10.3337L8.59364 104.964V103.913L10.4083 102.727H11.4772ZM15.7765 110.121C15.2154 110.118 14.736 109.97 14.3382 109.677C13.9405 109.383 13.6363 108.956 13.4256 108.395C13.2149 107.834 13.1096 107.158 13.1096 106.367C13.1096 105.579 13.2149 104.905 13.4256 104.347C13.6387 103.788 13.9441 103.362 14.3418 103.068C14.7419 102.775 15.2201 102.628 15.7765 102.628C16.3328 102.628 16.8098 102.776 17.2076 103.072C17.6053 103.365 17.9095 103.791 18.1202 104.35C18.3333 104.906 18.4398 105.579 18.4398 106.367C18.4398 107.16 18.3345 107.837 18.1238 108.398C17.9131 108.957 17.6088 109.384 17.2111 109.68C16.8134 109.974 16.3352 110.121 15.7765 110.121ZM15.7765 109.173C16.2689 109.173 16.6536 108.932 16.9306 108.452C17.2099 107.971 17.3496 107.276 17.3496 106.367C17.3496 105.763 17.2857 105.253 17.1578 104.837C17.0324 104.418 16.8513 104.1 16.6145 103.885C16.3801 103.667 16.1008 103.558 15.7765 103.558C15.2864 103.558 14.9017 103.8 14.6223 104.283C14.343 104.766 14.2021 105.46 14.1998 106.367C14.1998 106.973 14.2625 107.486 14.388 107.905C14.5158 108.321 14.6969 108.638 14.9313 108.853C15.1657 109.066 15.4474 109.173 15.7765 109.173Z" fill="#475467"/>
<path d="M11.7311 76.7273V84H10.6302V77.8281H10.5876L8.84755 78.9645V77.9134L10.6622 76.7273H11.7311ZM15.899 84.0994C15.4539 84.0994 15.0538 84.0142 14.6987 83.8438C14.3459 83.6709 14.0642 83.4342 13.8535 83.1335C13.6428 82.8329 13.5304 82.4896 13.5162 82.1037H14.5815C14.6075 82.4162 14.746 82.6731 14.997 82.8743C15.2479 83.0755 15.5486 83.1761 15.899 83.1761C16.1783 83.1761 16.4257 83.1122 16.6412 82.9844C16.859 82.8542 17.0294 82.6754 17.1525 82.4482C17.278 82.2209 17.3407 81.9616 17.3407 81.6705C17.3407 81.3745 17.2768 81.1106 17.149 80.8786C17.0211 80.6465 16.8448 80.4643 16.6199 80.3317C16.3973 80.1991 16.1416 80.1316 15.8528 80.1293C15.6326 80.1293 15.4113 80.1671 15.1887 80.2429C14.9662 80.3187 14.7863 80.4181 14.649 80.5412L13.644 80.392L14.0524 76.7273H18.051V77.6683H14.965L14.7342 79.7031H14.7768C14.9189 79.5658 15.1071 79.451 15.3414 79.3587C15.5782 79.2663 15.8315 79.2202 16.1014 79.2202C16.5441 79.2202 16.9383 79.3255 17.2839 79.5362C17.6319 79.7469 17.9054 80.0346 18.1042 80.3991C18.3055 80.7614 18.4049 81.178 18.4025 81.6491C18.4049 82.1203 18.2984 82.5405 18.0829 82.9098C17.8699 83.2791 17.5739 83.5703 17.1951 83.7834C16.8187 83.9941 16.3867 84.0994 15.899 84.0994Z" fill="#475467"/>
<path d="M7.31168 58V57.2045L9.77262 54.6548C10.0354 54.3778 10.252 54.1352 10.4225 53.9268C10.5953 53.7161 10.7243 53.5161 10.8096 53.3267C10.8948 53.1373 10.9374 52.9361 10.9374 52.723C10.9374 52.4815 10.8806 52.2732 10.7669 52.098C10.6533 51.9205 10.4982 51.7843 10.3017 51.6896C10.1052 51.5926 9.88389 51.544 9.63768 51.544C9.37726 51.544 9.14999 51.5973 8.95586 51.7038C8.76173 51.8104 8.61258 51.9607 8.50842 52.1548C8.40425 52.349 8.35217 52.5762 8.35217 52.8366H7.30458C7.30458 52.3939 7.40638 52.0069 7.60998 51.6754C7.81358 51.344 8.09293 51.0871 8.44805 50.9048C8.80316 50.7202 9.20681 50.6278 9.65898 50.6278C10.1159 50.6278 10.5184 50.719 10.8664 50.9013C11.2167 51.0812 11.4902 51.3274 11.6867 51.6399C11.8832 51.95 11.9814 52.3004 11.9814 52.6911C11.9814 52.9609 11.9305 53.2249 11.8287 53.483C11.7293 53.741 11.5553 54.0286 11.3067 54.3459C11.0581 54.6607 10.7125 55.0431 10.2698 55.4929L8.82447 57.0057V57.0589H12.0986V58H7.31168ZM15.7765 58.1207C15.2154 58.1184 14.736 57.9704 14.3382 57.6768C13.9405 57.3833 13.6363 56.956 13.4256 56.3949C13.2149 55.8338 13.1096 55.1579 13.1096 54.3672C13.1096 53.5788 13.2149 52.9053 13.4256 52.3466C13.6387 51.7879 13.9441 51.3617 14.3418 51.0682C14.7419 50.7746 15.2201 50.6278 15.7765 50.6278C16.3328 50.6278 16.8098 50.7758 17.2076 51.0717C17.6053 51.3653 17.9095 51.7914 18.1202 52.3501C18.3333 52.9065 18.4398 53.5788 18.4398 54.3672C18.4398 55.1603 18.3345 55.8374 18.1238 56.3984C17.9131 56.9571 17.6088 57.3845 17.2111 57.6804C16.8134 57.974 16.3352 58.1207 15.7765 58.1207ZM15.7765 57.1726C16.2689 57.1726 16.6536 56.9323 16.9306 56.4517C17.2099 55.9711 17.3496 55.2763 17.3496 54.3672C17.3496 53.7635 17.2857 53.2533 17.1578 52.8366C17.0324 52.4176 16.8513 52.1004 16.6145 51.8849C16.3801 51.6671 16.1008 51.5582 15.7765 51.5582C15.2864 51.5582 14.9017 51.7997 14.6223 52.2827C14.343 52.7656 14.2021 53.4605 14.1998 54.3672C14.1998 54.9732 14.2625 55.4858 14.388 55.9048C14.5158 56.3215 14.6969 56.6375 14.9313 56.853C15.1657 57.0661 15.4474 57.1726 15.7765 57.1726Z" fill="#475467"/>
<path d="M311.474 180H309.119V172.727H311.548C312.261 172.727 312.873 172.873 313.384 173.164C313.895 173.453 314.287 173.868 314.559 174.411C314.834 174.95 314.971 175.598 314.971 176.353C314.971 177.111 314.833 177.762 314.556 178.306C314.281 178.851 313.884 179.27 313.363 179.563C312.842 179.854 312.212 180 311.474 180ZM310.216 179.041H311.413C311.967 179.041 312.428 178.937 312.795 178.729C313.161 178.518 313.436 178.214 313.618 177.816C313.801 177.416 313.892 176.928 313.892 176.353C313.892 175.782 313.801 175.298 313.618 174.901C313.438 174.503 313.17 174.201 312.812 173.995C312.455 173.789 312.011 173.686 311.481 173.686H310.216V179.041ZM318.402 180.11C317.864 180.11 317.401 179.995 317.013 179.766C316.627 179.534 316.329 179.208 316.118 178.789C315.91 178.368 315.806 177.874 315.806 177.308C315.806 176.75 315.91 176.257 316.118 175.831C316.329 175.405 316.622 175.072 316.999 174.833C317.378 174.594 317.82 174.474 318.327 174.474C318.635 174.474 318.933 174.525 319.222 174.627C319.511 174.729 319.77 174.889 320 175.107C320.229 175.324 320.41 175.607 320.543 175.955C320.675 176.301 320.742 176.721 320.742 177.216V177.592H316.406V176.797H319.701C319.701 176.518 319.644 176.27 319.531 176.055C319.417 175.837 319.257 175.665 319.051 175.54C318.848 175.414 318.609 175.352 318.334 175.352C318.036 175.352 317.775 175.425 317.553 175.572C317.333 175.716 317.162 175.906 317.041 176.14C316.923 176.372 316.864 176.624 316.864 176.896V177.518C316.864 177.882 316.928 178.192 317.056 178.448C317.186 178.704 317.367 178.899 317.599 179.034C317.831 179.167 318.102 179.233 318.412 179.233C318.613 179.233 318.797 179.205 318.963 179.148C319.128 179.089 319.272 179.001 319.392 178.885C319.513 178.769 319.605 178.626 319.669 178.455L320.674 178.636C320.594 178.932 320.449 179.192 320.241 179.414C320.035 179.634 319.776 179.806 319.463 179.929C319.153 180.05 318.799 180.11 318.402 180.11ZM324.017 180.11C323.489 180.11 323.035 179.991 322.654 179.751C322.275 179.51 321.984 179.177 321.78 178.754C321.577 178.33 321.475 177.844 321.475 177.298C321.475 176.744 321.579 176.255 321.787 175.831C321.996 175.405 322.289 175.072 322.668 174.833C323.047 174.594 323.493 174.474 324.007 174.474C324.421 174.474 324.79 174.551 325.115 174.705C325.439 174.857 325.701 175.07 325.9 175.344C326.101 175.619 326.22 175.94 326.258 176.307H325.225C325.168 176.051 325.038 175.831 324.834 175.646C324.633 175.462 324.363 175.369 324.025 175.369C323.729 175.369 323.469 175.447 323.247 175.604C323.027 175.758 322.855 175.978 322.732 176.264C322.609 176.548 322.547 176.884 322.547 177.273C322.547 177.67 322.608 178.014 322.728 178.303C322.849 178.591 323.02 178.815 323.24 178.974C323.462 179.132 323.724 179.212 324.025 179.212C324.226 179.212 324.408 179.175 324.571 179.102C324.737 179.026 324.876 178.918 324.987 178.778C325.101 178.639 325.18 178.471 325.225 178.274H326.258C326.22 178.627 326.105 178.942 325.914 179.219C325.722 179.496 325.465 179.714 325.143 179.872C324.824 180.031 324.448 180.11 324.017 180.11Z" fill="#475467"/>
<path d="M288.882 172.727V180H287.873L284.176 174.666H284.109V180H283.012V172.727H284.027L287.728 178.068H287.795V172.727H288.882ZM292.495 180.11C291.983 180.11 291.537 179.993 291.156 179.759C290.775 179.524 290.479 179.196 290.268 178.775C290.057 178.353 289.952 177.861 289.952 177.298C289.952 176.732 290.057 176.237 290.268 175.813C290.479 175.389 290.775 175.06 291.156 174.826C291.537 174.592 291.983 174.474 292.495 174.474C293.006 174.474 293.452 174.592 293.834 174.826C294.215 175.06 294.511 175.389 294.721 175.813C294.932 176.237 295.037 176.732 295.037 177.298C295.037 177.861 294.932 178.353 294.721 178.775C294.511 179.196 294.215 179.524 293.834 179.759C293.452 179.993 293.006 180.11 292.495 180.11ZM292.498 179.219C292.83 179.219 293.104 179.131 293.322 178.956C293.54 178.781 293.701 178.548 293.805 178.256C293.912 177.965 293.965 177.644 293.965 177.294C293.965 176.946 293.912 176.626 293.805 176.335C293.701 176.042 293.54 175.806 293.322 175.629C293.104 175.451 292.83 175.362 292.498 175.362C292.165 175.362 291.888 175.451 291.667 175.629C291.45 175.806 291.287 176.042 291.181 176.335C291.077 176.626 291.025 176.946 291.025 177.294C291.025 177.644 291.077 177.965 291.181 178.256C291.287 178.548 291.45 178.781 291.667 178.956C291.888 179.131 292.165 179.219 292.498 179.219ZM300.503 174.545L298.525 180H297.389L295.407 174.545H296.547L297.929 178.743H297.985L299.363 174.545H300.503Z" fill="#475467"/>
<path d="M265.276 176.364C265.276 177.14 265.134 177.808 264.85 178.366C264.566 178.923 264.177 179.351 263.682 179.652C263.19 179.95 262.63 180.099 262.002 180.099C261.373 180.099 260.81 179.95 260.316 179.652C259.823 179.351 259.435 178.922 259.151 178.363C258.867 177.804 258.725 177.138 258.725 176.364C258.725 175.587 258.867 174.921 259.151 174.364C259.435 173.806 259.823 173.377 260.316 173.079C260.81 172.778 261.373 172.628 262.002 172.628C262.63 172.628 263.19 172.778 263.682 173.079C264.177 173.377 264.566 173.806 264.85 174.364C265.134 174.921 265.276 175.587 265.276 176.364ZM264.19 176.364C264.19 175.772 264.094 175.273 263.902 174.869C263.713 174.461 263.452 174.154 263.121 173.945C262.792 173.735 262.419 173.629 262.002 173.629C261.583 173.629 261.209 173.735 260.88 173.945C260.551 174.154 260.291 174.461 260.099 174.869C259.909 175.273 259.815 175.772 259.815 176.364C259.815 176.955 259.909 177.455 260.099 177.862C260.291 178.267 260.551 178.575 260.88 178.786C261.209 178.994 261.583 179.098 262.002 179.098C262.419 179.098 262.792 178.994 263.121 178.786C263.452 178.575 263.713 178.267 263.902 177.862C264.094 177.455 264.19 176.955 264.19 176.364ZM268.657 180.11C268.129 180.11 267.674 179.991 267.293 179.751C266.914 179.51 266.623 179.177 266.42 178.754C266.216 178.33 266.114 177.844 266.114 177.298C266.114 176.744 266.218 176.255 266.427 175.831C266.635 175.405 266.929 175.072 267.307 174.833C267.686 174.594 268.132 174.474 268.646 174.474C269.061 174.474 269.43 174.551 269.754 174.705C270.079 174.857 270.34 175.07 270.539 175.344C270.74 175.619 270.86 175.94 270.898 176.307H269.864C269.807 176.051 269.677 175.831 269.474 175.646C269.272 175.462 269.003 175.369 268.664 175.369C268.368 175.369 268.109 175.447 267.886 175.604C267.666 175.758 267.494 175.978 267.371 176.264C267.248 176.548 267.187 176.884 267.187 177.273C267.187 177.67 267.247 178.014 267.368 178.303C267.489 178.591 267.659 178.815 267.879 178.974C268.102 179.132 268.363 179.212 268.664 179.212C268.865 179.212 269.047 179.175 269.211 179.102C269.377 179.026 269.515 178.918 269.626 178.778C269.74 178.639 269.819 178.471 269.864 178.274H270.898C270.86 178.627 270.745 178.942 270.553 179.219C270.361 179.496 270.105 179.714 269.783 179.872C269.463 180.031 269.088 180.11 268.657 180.11ZM274.379 174.545V175.398H271.4V174.545H274.379ZM272.199 173.239H273.261V178.398C273.261 178.604 273.291 178.759 273.353 178.864C273.415 178.965 273.494 179.035 273.591 179.073C273.69 179.109 273.798 179.126 273.914 179.126C273.999 179.126 274.074 179.121 274.138 179.109C274.202 179.097 274.251 179.087 274.287 179.08L274.479 179.957C274.417 179.981 274.33 180.005 274.216 180.028C274.102 180.054 273.96 180.069 273.79 180.071C273.51 180.076 273.25 180.026 273.009 179.922C272.767 179.818 272.572 179.657 272.423 179.439C272.273 179.221 272.199 178.948 272.199 178.619V173.239Z" fill="#475467"/>
<path d="M236.227 174.638C236.189 174.302 236.033 174.041 235.759 173.857C235.484 173.67 235.138 173.576 234.722 173.576C234.423 173.576 234.165 173.623 233.948 173.718C233.73 173.81 233.56 173.938 233.44 174.102C233.321 174.263 233.262 174.446 233.262 174.652C233.262 174.825 233.302 174.974 233.383 175.099C233.466 175.225 233.573 175.33 233.706 175.415C233.841 175.498 233.985 175.568 234.139 175.625C234.293 175.679 234.441 175.724 234.583 175.76L235.293 175.945C235.525 176.001 235.763 176.078 236.007 176.175C236.251 176.272 236.477 176.4 236.685 176.559C236.894 176.718 237.062 176.914 237.19 177.148C237.32 177.383 237.385 177.663 237.385 177.99C237.385 178.402 237.278 178.768 237.065 179.087C236.855 179.407 236.548 179.659 236.146 179.844C235.746 180.028 235.261 180.121 234.693 180.121C234.149 180.121 233.678 180.034 233.28 179.862C232.882 179.689 232.571 179.444 232.346 179.126C232.121 178.807 231.997 178.428 231.973 177.99H233.074C233.095 178.253 233.18 178.472 233.33 178.647C233.481 178.82 233.674 178.949 233.908 179.034C234.145 179.117 234.404 179.158 234.686 179.158C234.996 179.158 235.272 179.11 235.514 179.013C235.757 178.913 235.949 178.776 236.089 178.601C236.229 178.423 236.298 178.216 236.298 177.979C236.298 177.764 236.237 177.588 236.114 177.45C235.993 177.313 235.828 177.199 235.62 177.109C235.414 177.019 235.181 176.94 234.921 176.871L234.061 176.637C233.479 176.478 233.017 176.245 232.676 175.938C232.338 175.63 232.168 175.223 232.168 174.716C232.168 174.297 232.282 173.931 232.509 173.619C232.737 173.306 233.044 173.063 233.433 172.891C233.821 172.715 234.259 172.628 234.747 172.628C235.239 172.628 235.673 172.714 236.05 172.887C236.429 173.06 236.727 173.298 236.945 173.601C237.162 173.902 237.276 174.247 237.286 174.638H236.227ZM240.762 180.11C240.224 180.11 239.762 179.995 239.373 179.766C238.988 179.534 238.689 179.208 238.479 178.789C238.27 178.368 238.166 177.874 238.166 177.308C238.166 176.75 238.27 176.257 238.479 175.831C238.689 175.405 238.983 175.072 239.359 174.833C239.738 174.594 240.181 174.474 240.687 174.474C240.995 174.474 241.293 174.525 241.582 174.627C241.871 174.729 242.13 174.889 242.36 175.107C242.59 175.324 242.771 175.607 242.903 175.955C243.036 176.301 243.102 176.721 243.102 177.216V177.592H238.766V176.797H242.062C242.062 176.518 242.005 176.27 241.891 176.055C241.778 175.837 241.618 175.665 241.412 175.54C241.208 175.414 240.969 175.352 240.694 175.352C240.396 175.352 240.136 175.425 239.913 175.572C239.693 175.716 239.523 175.906 239.402 176.14C239.283 176.372 239.224 176.624 239.224 176.896V177.518C239.224 177.882 239.288 178.192 239.416 178.448C239.546 178.704 239.727 178.899 239.959 179.034C240.191 179.167 240.462 179.233 240.773 179.233C240.974 179.233 241.157 179.205 241.323 179.148C241.489 179.089 241.632 179.001 241.753 178.885C241.873 178.769 241.966 178.626 242.03 178.455L243.035 178.636C242.954 178.932 242.81 179.192 242.601 179.414C242.395 179.634 242.136 179.806 241.824 179.929C241.514 180.05 241.16 180.11 240.762 180.11ZM244.08 182.045V174.545H245.117V175.43H245.206C245.267 175.316 245.356 175.185 245.472 175.036C245.588 174.886 245.749 174.756 245.955 174.645C246.161 174.531 246.433 174.474 246.772 174.474C247.212 174.474 247.605 174.586 247.951 174.808C248.297 175.031 248.568 175.352 248.764 175.771C248.963 176.19 249.062 176.694 249.062 177.283C249.062 177.873 248.964 178.378 248.768 178.8C248.571 179.219 248.301 179.542 247.958 179.769C247.615 179.994 247.223 180.107 246.783 180.107C246.451 180.107 246.18 180.051 245.969 179.94C245.761 179.828 245.598 179.698 245.479 179.549C245.361 179.4 245.27 179.267 245.206 179.151H245.142V182.045H244.08ZM245.121 177.273C245.121 177.656 245.176 177.992 245.288 178.281C245.399 178.57 245.56 178.796 245.771 178.96C245.981 179.121 246.239 179.201 246.545 179.201C246.862 179.201 247.127 179.117 247.34 178.949C247.553 178.778 247.714 178.548 247.823 178.256C247.934 177.965 247.99 177.637 247.99 177.273C247.99 176.913 247.936 176.59 247.827 176.303C247.72 176.017 247.559 175.791 247.344 175.625C247.131 175.459 246.864 175.376 246.545 175.376C246.237 175.376 245.976 175.456 245.763 175.614C245.553 175.773 245.393 175.994 245.284 176.278C245.175 176.562 245.121 176.894 245.121 177.273Z" fill="#475467"/>
<path d="M206.553 180H205.388L208.005 172.727H209.273L211.89 180H210.725L208.669 174.048H208.612L206.553 180ZM206.748 177.152H210.527V178.075H206.748V177.152ZM216.11 177.738V174.545H217.176V180H216.132V179.055H216.075C215.949 179.347 215.748 179.589 215.471 179.783C215.197 179.975 214.855 180.071 214.445 180.071C214.095 180.071 213.784 179.994 213.515 179.84C213.247 179.684 213.036 179.453 212.882 179.148C212.731 178.842 212.655 178.465 212.655 178.015V174.545H213.717V177.887C213.717 178.259 213.82 178.555 214.026 178.775C214.232 178.995 214.499 179.105 214.828 179.105C215.027 179.105 215.225 179.055 215.422 178.956C215.62 178.857 215.785 178.706 215.915 178.505C216.048 178.304 216.113 178.048 216.11 177.738ZM220.689 182.159C220.256 182.159 219.883 182.102 219.571 181.989C219.261 181.875 219.007 181.725 218.811 181.538C218.614 181.351 218.468 181.146 218.37 180.923L219.283 180.547C219.347 180.651 219.432 180.761 219.539 180.877C219.648 180.996 219.794 181.096 219.979 181.179C220.166 181.262 220.406 181.303 220.7 181.303C221.102 181.303 221.435 181.205 221.698 181.009C221.961 180.814 222.092 180.504 222.092 180.078V179.006H222.025C221.961 179.122 221.868 179.251 221.748 179.393C221.629 179.535 221.466 179.658 221.258 179.762C221.049 179.866 220.778 179.918 220.444 179.918C220.013 179.918 219.625 179.818 219.28 179.616C218.936 179.413 218.664 179.113 218.463 178.718C218.264 178.32 218.165 177.831 218.165 177.251C218.165 176.671 218.263 176.174 218.459 175.76C218.658 175.346 218.93 175.028 219.276 174.808C219.622 174.586 220.013 174.474 220.451 174.474C220.79 174.474 221.063 174.531 221.272 174.645C221.48 174.756 221.642 174.886 221.758 175.036C221.877 175.185 221.968 175.316 222.032 175.43H222.11V174.545H223.15V180.121C223.15 180.589 223.041 180.974 222.824 181.275C222.606 181.576 222.311 181.798 221.939 181.942C221.57 182.087 221.153 182.159 220.689 182.159ZM220.679 179.038C220.984 179.038 221.242 178.967 221.453 178.825C221.666 178.68 221.827 178.474 221.936 178.207C222.047 177.937 222.103 177.614 222.103 177.237C222.103 176.87 222.048 176.547 221.939 176.268C221.83 175.988 221.671 175.771 221.46 175.614C221.249 175.456 220.989 175.376 220.679 175.376C220.359 175.376 220.093 175.459 219.88 175.625C219.667 175.788 219.506 176.011 219.397 176.293C219.29 176.574 219.237 176.889 219.237 177.237C219.237 177.595 219.291 177.908 219.4 178.178C219.509 178.448 219.67 178.659 219.883 178.81C220.099 178.962 220.364 179.038 220.679 179.038Z" fill="#475467"/>
<path d="M186.848 172.727H187.942V177.884C187.942 178.35 187.85 178.749 187.665 179.08C187.483 179.412 187.226 179.665 186.894 179.84C186.563 180.013 186.175 180.099 185.73 180.099C185.32 180.099 184.952 180.025 184.625 179.876C184.301 179.727 184.044 179.51 183.855 179.226C183.668 178.939 183.574 178.591 183.574 178.182H184.664C184.664 178.383 184.71 178.557 184.803 178.704C184.897 178.851 185.026 178.965 185.19 179.048C185.356 179.129 185.545 179.169 185.758 179.169C185.99 179.169 186.186 179.121 186.347 179.023C186.511 178.924 186.635 178.778 186.72 178.587C186.806 178.395 186.848 178.161 186.848 177.884V172.727ZM192.709 177.738V174.545H193.774V180H192.73V179.055H192.674C192.548 179.347 192.347 179.589 192.07 179.783C191.795 179.975 191.453 180.071 191.044 180.071C190.693 180.071 190.383 179.994 190.113 179.84C189.846 179.684 189.635 179.453 189.481 179.148C189.33 178.842 189.254 178.465 189.254 178.015V174.545H190.316V177.887C190.316 178.259 190.419 178.555 190.625 178.775C190.831 178.995 191.098 179.105 191.427 179.105C191.626 179.105 191.824 179.055 192.02 178.956C192.219 178.857 192.384 178.706 192.514 178.505C192.646 178.304 192.711 178.048 192.709 177.738ZM196.063 172.727V180H195.001V172.727H196.063Z" fill="#475467"/>
<path d="M159.672 172.727H161.192V177.798C161.192 178.267 161.086 178.674 160.876 179.02C160.667 179.366 160.377 179.632 160.006 179.819C159.634 180.006 159.202 180.099 158.709 180.099C158.271 180.099 157.874 180.022 157.516 179.869C157.161 179.712 156.879 179.476 156.671 179.158C156.463 178.839 156.36 178.437 156.362 177.955H157.893C157.897 178.146 157.936 178.311 158.01 178.448C158.086 178.583 158.189 178.687 158.319 178.761C158.451 178.832 158.608 178.867 158.788 178.867C158.977 178.867 159.137 178.827 159.267 178.746C159.4 178.664 159.5 178.543 159.569 178.384C159.637 178.226 159.672 178.03 159.672 177.798V172.727ZM165.732 177.678V174.545H167.245V180H165.793V179.009H165.736C165.613 179.329 165.408 179.586 165.122 179.78C164.838 179.974 164.491 180.071 164.081 180.071C163.717 180.071 163.396 179.988 163.119 179.822C162.842 179.657 162.625 179.421 162.469 179.116C162.315 178.81 162.237 178.445 162.235 178.018V174.545H163.747V177.749C163.75 178.071 163.836 178.325 164.007 178.512C164.177 178.699 164.405 178.793 164.692 178.793C164.874 178.793 165.045 178.751 165.203 178.668C165.362 178.583 165.49 178.458 165.587 178.292C165.686 178.126 165.735 177.921 165.732 177.678ZM169.768 176.847V180H168.255V174.545H169.697V175.508H169.761C169.882 175.191 170.084 174.94 170.368 174.755C170.652 174.568 170.997 174.474 171.402 174.474C171.78 174.474 172.111 174.557 172.392 174.723C172.674 174.889 172.893 175.125 173.049 175.433C173.206 175.739 173.284 176.103 173.284 176.527V180H171.771V176.797C171.773 176.463 171.688 176.203 171.515 176.016C171.342 175.826 171.104 175.732 170.801 175.732C170.598 175.732 170.418 175.775 170.262 175.863C170.108 175.951 169.987 176.078 169.899 176.246C169.814 176.412 169.77 176.612 169.768 176.847Z" fill="#6941C6"/>
<path d="M130.931 172.727H132.262L134.578 178.381H134.663L136.978 172.727H138.31V180H137.266V174.737H137.198L135.054 179.989H134.187L132.042 174.734H131.975V180H130.931V172.727ZM141.207 180.121C140.862 180.121 140.549 180.057 140.27 179.929C139.991 179.799 139.769 179.611 139.606 179.364C139.445 179.118 139.364 178.816 139.364 178.459C139.364 178.151 139.424 177.898 139.542 177.699C139.66 177.5 139.82 177.343 140.021 177.227C140.223 177.111 140.447 177.023 140.696 176.964C140.945 176.905 141.198 176.86 141.456 176.829C141.783 176.791 142.048 176.76 142.251 176.737C142.455 176.71 142.603 176.669 142.695 176.612C142.788 176.555 142.834 176.463 142.834 176.335V176.31C142.834 176 142.746 175.76 142.571 175.589C142.398 175.419 142.14 175.334 141.797 175.334C141.439 175.334 141.158 175.413 140.952 175.572C140.748 175.728 140.607 175.902 140.529 176.094L139.531 175.866C139.65 175.535 139.822 175.268 140.05 175.064C140.279 174.858 140.543 174.709 140.842 174.616C141.14 174.522 141.454 174.474 141.783 174.474C142 174.474 142.231 174.5 142.475 174.553C142.721 174.602 142.951 174.695 143.164 174.83C143.379 174.964 143.556 175.157 143.693 175.408C143.83 175.657 143.899 175.98 143.899 176.378V180H142.862V179.254H142.82C142.751 179.392 142.648 179.527 142.511 179.659C142.373 179.792 142.197 179.902 141.982 179.989C141.766 180.077 141.508 180.121 141.207 180.121ZM141.438 179.268C141.732 179.268 141.983 179.21 142.191 179.094C142.402 178.978 142.562 178.827 142.67 178.64C142.782 178.451 142.837 178.248 142.837 178.033V177.33C142.799 177.367 142.726 177.403 142.617 177.436C142.511 177.467 142.389 177.494 142.251 177.518C142.114 177.539 141.98 177.559 141.85 177.578C141.72 177.595 141.611 177.609 141.523 177.621C141.317 177.647 141.129 177.691 140.959 177.752C140.791 177.814 140.656 177.902 140.554 178.018C140.455 178.132 140.405 178.284 140.405 178.473C140.405 178.736 140.502 178.935 140.696 179.07C140.89 179.202 141.138 179.268 141.438 179.268ZM145.589 182.045C145.431 182.045 145.286 182.032 145.156 182.006C145.026 181.983 144.929 181.957 144.865 181.928L145.12 181.058C145.315 181.11 145.487 181.133 145.639 181.126C145.79 181.119 145.924 181.062 146.04 180.955C146.159 180.849 146.263 180.675 146.353 180.433L146.484 180.071L144.488 174.545H145.625L147.006 178.778H147.063L148.444 174.545H149.584L147.336 180.728C147.232 181.012 147.1 181.252 146.939 181.449C146.778 181.648 146.586 181.797 146.363 181.896C146.141 181.996 145.883 182.045 145.589 182.045Z" fill="#475467"/>
<path d="M107.607 180H106.443L109.06 172.727H110.328L112.945 180H111.78L109.724 174.048H109.667L107.607 180ZM107.803 177.152H111.581V178.075H107.803V177.152ZM113.71 182.045V174.545H114.747V175.43H114.836C114.897 175.316 114.986 175.185 115.102 175.036C115.218 174.886 115.379 174.756 115.585 174.645C115.791 174.531 116.063 174.474 116.402 174.474C116.842 174.474 117.235 174.586 117.581 174.808C117.926 175.031 118.197 175.352 118.394 175.771C118.593 176.19 118.692 176.694 118.692 177.283C118.692 177.873 118.594 178.378 118.397 178.8C118.201 179.219 117.931 179.542 117.588 179.769C117.244 179.994 116.853 180.107 116.412 180.107C116.081 180.107 115.81 180.051 115.599 179.94C115.391 179.828 115.227 179.698 115.109 179.549C114.991 179.4 114.9 179.267 114.836 179.151H114.772V182.045H113.71ZM114.75 177.273C114.75 177.656 114.806 177.992 114.917 178.281C115.029 178.57 115.19 178.796 115.4 178.96C115.611 179.121 115.869 179.201 116.174 179.201C116.492 179.201 116.757 179.117 116.97 178.949C117.183 178.778 117.344 178.548 117.453 178.256C117.564 177.965 117.62 177.637 117.62 177.273C117.62 176.913 117.565 176.59 117.456 176.303C117.35 176.017 117.189 175.791 116.973 175.625C116.76 175.459 116.494 175.376 116.174 175.376C115.867 175.376 115.606 175.456 115.393 175.614C115.182 175.773 115.023 175.994 114.914 176.278C114.805 176.562 114.75 176.894 114.75 177.273ZM119.682 180V174.545H120.708V175.412H120.765C120.864 175.118 121.039 174.888 121.29 174.719C121.544 174.549 121.83 174.464 122.15 174.464C122.216 174.464 122.294 174.466 122.384 174.471C122.476 174.476 122.549 174.482 122.601 174.489V175.504C122.558 175.492 122.482 175.479 122.374 175.465C122.265 175.449 122.156 175.44 122.047 175.44C121.796 175.44 121.572 175.494 121.376 175.6C121.182 175.704 121.028 175.85 120.914 176.037C120.8 176.222 120.744 176.432 120.744 176.669V180H119.682Z" fill="#475467"/>
<path d="M80.2461 172.727H81.5778L83.8931 178.381H83.9783L86.2937 172.727H87.6253V180H86.5813V174.737H86.5138L84.3689 179.989H83.5025L81.3576 174.734H81.2901V180H80.2461V172.727ZM90.5228 180.121C90.1772 180.121 89.8647 180.057 89.5853 179.929C89.306 179.799 89.0846 179.611 88.9213 179.364C88.7603 179.118 88.6798 178.816 88.6798 178.459C88.6798 178.151 88.739 177.898 88.8573 177.699C88.9757 177.5 89.1355 177.343 89.3367 177.227C89.538 177.111 89.7629 177.023 90.0115 176.964C90.26 176.905 90.5133 176.86 90.7714 176.829C91.0981 176.791 91.3633 176.76 91.5669 176.737C91.7704 176.71 91.9184 176.669 92.0107 176.612C92.1031 176.555 92.1492 176.463 92.1492 176.335V176.31C92.1492 176 92.0616 175.76 91.8865 175.589C91.7136 175.419 91.4556 175.334 91.1123 175.334C90.7548 175.334 90.4731 175.413 90.2671 175.572C90.0635 175.728 89.9227 175.902 89.8445 176.094L88.8467 175.866C88.9651 175.535 89.1379 175.268 89.3651 175.064C89.5948 174.858 89.8588 174.709 90.157 174.616C90.4553 174.522 90.769 174.474 91.0981 174.474C91.3159 174.474 91.5467 174.5 91.7906 174.553C92.0368 174.602 92.2664 174.695 92.4795 174.83C92.6949 174.964 92.8713 175.157 93.0086 175.408C93.1459 175.657 93.2146 175.98 93.2146 176.378V180H92.1776V179.254H92.135C92.0664 179.392 91.9634 179.527 91.8261 179.659C91.6888 179.792 91.5124 179.902 91.297 179.989C91.0815 180.077 90.8235 180.121 90.5228 180.121ZM90.7536 179.268C91.0472 179.268 91.2981 179.21 91.5065 179.094C91.7172 178.978 91.877 178.827 91.9859 178.64C92.0972 178.451 92.1528 178.248 92.1528 178.033V177.33C92.1149 177.367 92.0415 177.403 91.9326 177.436C91.8261 177.467 91.7042 177.494 91.5669 177.518C91.4295 177.539 91.2958 177.559 91.1656 177.578C91.0354 177.595 90.9265 177.609 90.8389 177.621C90.6329 177.647 90.4447 177.691 90.2742 177.752C90.1061 177.814 89.9712 177.902 89.8694 178.018C89.77 178.132 89.7203 178.284 89.7203 178.473C89.7203 178.736 89.8173 178.935 90.0115 179.07C90.2056 179.202 90.453 179.268 90.7536 179.268ZM94.4288 180V174.545H95.4551V175.412H95.5119C95.6113 175.118 95.7865 174.888 96.0375 174.719C96.2908 174.549 96.5773 174.464 96.8969 174.464C96.9631 174.464 97.0413 174.466 97.1312 174.471C97.2236 174.476 97.2958 174.482 97.3479 174.489V175.504C97.3052 175.492 97.2295 175.479 97.1206 175.465C97.0117 175.449 96.9028 175.44 96.7939 175.44C96.5429 175.44 96.3192 175.494 96.1227 175.6C95.9286 175.704 95.7747 175.85 95.6611 176.037C95.5474 176.222 95.4906 176.432 95.4906 176.669V180H94.4288Z" fill="#475467"/>
<path d="M55.2051 180V172.727H59.715V173.672H56.3024V175.888H59.3919V176.829H56.3024V180H55.2051ZM62.7297 180.11C62.1923 180.11 61.7294 179.995 61.3412 179.766C60.9553 179.534 60.657 179.208 60.4463 178.789C60.238 178.368 60.1338 177.874 60.1338 177.308C60.1338 176.75 60.238 176.257 60.4463 175.831C60.657 175.405 60.9506 175.072 61.327 174.833C61.7058 174.594 62.1485 174.474 62.6551 174.474C62.9629 174.474 63.2612 174.525 63.55 174.627C63.8388 174.729 64.098 174.889 64.3277 175.107C64.5573 175.324 64.7384 175.607 64.871 175.955C65.0036 176.301 65.0699 176.721 65.0699 177.216V177.592H60.7339V176.797H64.0294C64.0294 176.518 63.9726 176.27 63.8589 176.055C63.7453 175.837 63.5855 175.665 63.3795 175.54C63.1759 175.414 62.9368 175.352 62.6622 175.352C62.3639 175.352 62.1035 175.425 61.8809 175.572C61.6608 175.716 61.4903 175.906 61.3696 176.14C61.2512 176.372 61.192 176.624 61.192 176.896V177.518C61.192 177.882 61.2559 178.192 61.3838 178.448C61.514 178.704 61.6951 178.899 61.9271 179.034C62.1591 179.167 62.4302 179.233 62.7403 179.233C62.9416 179.233 63.125 179.205 63.2907 179.148C63.4565 179.089 63.5997 179.001 63.7204 178.885C63.8412 178.769 63.9335 178.626 63.9974 178.455L65.0024 178.636C64.9219 178.932 64.7775 179.192 64.5692 179.414C64.3632 179.634 64.104 179.806 63.7915 179.929C63.4813 180.05 63.1274 180.11 62.7297 180.11ZM66.1332 180V172.727H67.195V175.43H67.2589C67.3204 175.316 67.4092 175.185 67.5252 175.036C67.6412 174.886 67.8022 174.756 68.0082 174.645C68.2142 174.531 68.4864 174.474 68.8249 174.474C69.2653 174.474 69.6583 174.586 70.0039 174.808C70.3496 175.031 70.6206 175.352 70.8171 175.771C71.016 176.19 71.1154 176.694 71.1154 177.283C71.1154 177.873 71.0172 178.378 70.8207 178.8C70.6242 179.219 70.3543 179.542 70.011 179.769C69.6678 179.994 69.2759 180.107 68.8356 180.107C68.5042 180.107 68.2331 180.051 68.0224 179.94C67.8141 179.828 67.6507 179.698 67.5323 179.549C67.414 179.4 67.3228 179.267 67.2589 179.151H67.1701V180H66.1332ZM67.1737 177.273C67.1737 177.656 67.2293 177.992 67.3406 178.281C67.4518 178.57 67.6128 178.796 67.8235 178.96C68.0342 179.121 68.2923 179.201 68.5977 179.201C68.9149 179.201 69.1801 179.117 69.3931 178.949C69.6062 178.778 69.7672 178.548 69.8761 178.256C69.9874 177.965 70.043 177.637 70.043 177.273C70.043 176.913 69.9885 176.59 69.8796 176.303C69.7731 176.017 69.6121 175.791 69.3967 175.625C69.1836 175.459 68.9173 175.376 68.5977 175.376C68.2899 175.376 68.0295 175.456 67.8164 175.614C67.6057 175.773 67.4459 175.994 67.337 176.278C67.2281 176.562 67.1737 176.894 67.1737 177.273Z" fill="#475467"/>
<path d="M33.732 172.727H34.8257V177.884C34.8257 178.35 34.7334 178.749 34.5487 179.08C34.3664 179.412 34.1096 179.665 33.7781 179.84C33.4467 180.013 33.0584 180.099 32.6134 180.099C32.2038 180.099 31.8357 180.025 31.5089 179.876C31.1846 179.727 30.9277 179.51 30.7384 179.226C30.5513 178.939 30.4578 178.591 30.4578 178.182H31.548C31.548 178.383 31.5942 178.557 31.6865 178.704C31.7812 178.851 31.9102 178.965 32.0736 179.048C32.2393 179.129 32.4287 179.169 32.6418 179.169C32.8738 179.169 33.0703 179.121 33.2312 179.023C33.3946 178.924 33.5189 178.778 33.6041 178.587C33.6893 178.395 33.732 178.161 33.732 177.884V172.727ZM37.725 180.121C37.3793 180.121 37.0668 180.057 36.7875 179.929C36.5081 179.799 36.2868 179.611 36.1234 179.364C35.9624 179.118 35.8819 178.816 35.8819 178.459C35.8819 178.151 35.9411 177.898 36.0595 177.699C36.1779 177.5 36.3377 177.343 36.5389 177.227C36.7401 177.111 36.965 177.023 37.2136 176.964C37.4622 176.905 37.7155 176.86 37.9735 176.829C38.3002 176.791 38.5654 176.76 38.769 176.737C38.9726 176.71 39.1206 176.669 39.2129 176.612C39.3052 176.555 39.3514 176.463 39.3514 176.335V176.31C39.3514 176 39.2638 175.76 39.0886 175.589C38.9158 175.419 38.6577 175.334 38.3145 175.334C37.957 175.334 37.6752 175.413 37.4693 175.572C37.2657 175.728 37.1248 175.902 37.0467 176.094L36.0488 175.866C36.1672 175.535 36.34 175.268 36.5673 175.064C36.7969 174.858 37.0609 174.709 37.3592 174.616C37.6575 174.522 37.9712 174.474 38.3002 174.474C38.5181 174.474 38.7489 174.5 38.9927 174.553C39.2389 174.602 39.4686 174.695 39.6816 174.83C39.8971 174.964 40.0734 175.157 40.2108 175.408C40.3481 175.657 40.4167 175.98 40.4167 176.378V180H39.3798V179.254H39.3372C39.2685 179.392 39.1655 179.527 39.0282 179.659C38.8909 179.792 38.7145 179.902 38.4991 179.989C38.2837 180.077 38.0256 180.121 37.725 180.121ZM37.9558 179.268C38.2493 179.268 38.5003 179.21 38.7086 179.094C38.9193 178.978 39.0791 178.827 39.188 178.64C39.2993 178.451 39.3549 178.248 39.3549 178.033V177.33C39.3171 177.367 39.2437 177.403 39.1348 177.436C39.0282 177.467 38.9063 177.494 38.769 177.518C38.6317 177.539 38.4979 177.559 38.3677 177.578C38.2375 177.595 38.1286 177.609 38.041 177.621C37.835 177.647 37.6468 177.691 37.4764 177.752C37.3083 177.814 37.1734 177.902 37.0716 178.018C36.9721 178.132 36.9224 178.284 36.9224 178.473C36.9224 178.736 37.0195 178.935 37.2136 179.07C37.4077 179.202 37.6551 179.268 37.9558 179.268ZM42.6928 176.761V180H41.631V174.545H42.6501V175.433H42.7176C42.8431 175.144 43.0396 174.912 43.3071 174.737C43.577 174.562 43.9167 174.474 44.3263 174.474C44.698 174.474 45.0235 174.553 45.3028 174.709C45.5822 174.863 45.7988 175.092 45.9527 175.398C46.1066 175.703 46.1835 176.081 46.1835 176.531V180H45.1217V176.658C45.1217 176.263 45.0188 175.954 44.8128 175.732C44.6068 175.507 44.3239 175.394 43.9641 175.394C43.7179 175.394 43.4989 175.447 43.3071 175.554C43.1177 175.661 42.9674 175.817 42.8561 176.023C42.7472 176.226 42.6928 176.473 42.6928 176.761Z" fill="#475467"/>
<line x1="318.5" y1="163.5" x2="318.5" y2="51.5" stroke="url(#paint0_linear_1_45685)" stroke-miterlimit="16" stroke-linecap="round" stroke-linejoin="round" stroke-dasharray="0.1 3"/>
<line x1="293" y1="163.5" x2="293" y2="51.5" stroke="url(#paint1_linear_1_45685)" stroke-miterlimit="16" stroke-linecap="round" stroke-linejoin="round" stroke-dasharray="0.1 3"/>
<line x1="267.5" y1="163.5" x2="267.5" y2="51.5" stroke="url(#paint2_linear_1_45685)" stroke-miterlimit="16" stroke-linecap="round" stroke-linejoin="round" stroke-dasharray="0.1 3"/>
<line x1="242" y1="163.5" x2="242" y2="51.5" stroke="url(#paint3_linear_1_45685)" stroke-miterlimit="16" stroke-linecap="round" stroke-linejoin="round" stroke-dasharray="0.1 3"/>
<line x1="216.5" y1="163.5" x2="216.5" y2="51.5" stroke="url(#paint4_linear_1_45685)" stroke-miterlimit="16" stroke-linecap="round" stroke-linejoin="round" stroke-dasharray="0.1 3"/>
<line x1="191" y1="163.5" x2="191" y2="51.5" stroke="url(#paint5_linear_1_45685)" stroke-miterlimit="16" stroke-linecap="round" stroke-linejoin="round" stroke-dasharray="0.1 3"/>
<line x1="165.5" y1="163.5" x2="165.5" y2="51.5" stroke="url(#paint6_linear_1_45685)" stroke-miterlimit="16" stroke-linecap="round" stroke-linejoin="round" stroke-dasharray="0.1 3"/>
<line x1="140" y1="163.5" x2="140" y2="51.5" stroke="url(#paint7_linear_1_45685)" stroke-miterlimit="16" stroke-linecap="round" stroke-linejoin="round" stroke-dasharray="0.1 3"/>
<line x1="114.5" y1="163.5" x2="114.5" y2="51.5" stroke="url(#paint8_linear_1_45685)" stroke-miterlimit="16" stroke-linecap="round" stroke-linejoin="round" stroke-dasharray="0.1 3"/>
<line x1="89" y1="163.5" x2="89" y2="51.5" stroke="url(#paint9_linear_1_45685)" stroke-miterlimit="16" stroke-linecap="round" stroke-linejoin="round" stroke-dasharray="0.1 3"/>
<line x1="63.5" y1="163.5" x2="63.5" y2="51.5" stroke="url(#paint10_linear_1_45685)" stroke-miterlimit="16" stroke-linecap="round" stroke-linejoin="round" stroke-dasharray="0.1 3"/>
<line x1="38" y1="163.5" x2="38" y2="51.5" stroke="url(#paint11_linear_1_45685)" stroke-miterlimit="16" stroke-linecap="round" stroke-linejoin="round" stroke-dasharray="0.1 3"/>
<rect x="111" y="54" width="109" height="24" rx="8" fill="#6941C6"/>
<path d="M124.94 62.7273V70H123.839V63.8281H123.797L122.057 64.9645V63.9134L123.871 62.7273H124.94ZM126.755 68.5795V67.6918L129.898 62.7273H130.597V64.0341H130.153L127.905 67.5923V67.6491H132.213V68.5795H126.755ZM130.203 70V68.3097L130.21 67.9048V62.7273H131.251V70H130.203ZM141.118 65.0249C141.05 64.8094 140.957 64.6165 140.841 64.446C140.728 64.2732 140.592 64.1264 140.433 64.0057C140.274 63.8826 140.093 63.7891 139.89 63.7251C139.688 63.6612 139.467 63.6293 139.226 63.6293C138.816 63.6293 138.447 63.7346 138.118 63.9453C137.789 64.156 137.528 64.465 137.336 64.8722C137.147 65.277 137.052 65.773 137.052 66.3601C137.052 66.9496 137.148 67.4479 137.34 67.8551C137.532 68.2623 137.794 68.5713 138.128 68.782C138.462 68.9927 138.842 69.098 139.268 69.098C139.664 69.098 140.008 69.0175 140.302 68.8565C140.598 68.6955 140.826 68.4683 140.987 68.1747C141.15 67.8788 141.232 67.5308 141.232 67.1307L141.516 67.1839H139.435V66.2784H142.294V67.1058C142.294 67.7166 142.164 68.2469 141.903 68.6967C141.645 69.1442 141.288 69.4898 140.831 69.7337C140.376 69.9775 139.855 70.0994 139.268 70.0994C138.61 70.0994 138.032 69.9479 137.535 69.6449C137.04 69.3419 136.655 68.9122 136.378 68.3558C136.101 67.7971 135.962 67.1342 135.962 66.3672C135.962 65.7872 136.043 65.2663 136.204 64.8047C136.365 64.343 136.591 63.9512 136.882 63.6293C137.175 63.3049 137.52 63.0575 137.915 62.8871C138.313 62.7143 138.747 62.6278 139.218 62.6278C139.611 62.6278 139.977 62.6858 140.316 62.8018C140.657 62.9179 140.96 63.0824 141.225 63.2955C141.492 63.5085 141.714 63.7618 141.889 64.0554C142.064 64.3466 142.182 64.6697 142.244 65.0249H141.118ZM145.899 70.1101C145.388 70.1101 144.941 69.9929 144.56 69.7585C144.179 69.5241 143.883 69.1963 143.672 68.7749C143.462 68.3535 143.356 67.861 143.356 67.2976C143.356 66.7318 143.462 66.237 143.672 65.8132C143.883 65.3894 144.179 65.0604 144.56 64.826C144.941 64.5916 145.388 64.4744 145.899 64.4744C146.41 64.4744 146.857 64.5916 147.238 64.826C147.619 65.0604 147.915 65.3894 148.126 65.8132C148.336 66.237 148.442 66.7318 148.442 67.2976C148.442 67.861 148.336 68.3535 148.126 68.7749C147.915 69.1963 147.619 69.5241 147.238 69.7585C146.857 69.9929 146.41 70.1101 145.899 70.1101ZM145.903 69.2188C146.234 69.2188 146.509 69.1312 146.726 68.956C146.944 68.7808 147.105 68.5476 147.209 68.2564C147.316 67.9652 147.369 67.6444 147.369 67.294C147.369 66.946 147.316 66.6264 147.209 66.3352C147.105 66.0417 146.944 65.8061 146.726 65.6286C146.509 65.451 146.234 65.3622 145.903 65.3622C145.569 65.3622 145.292 65.451 145.072 65.6286C144.854 65.8061 144.692 66.0417 144.585 66.3352C144.481 66.6264 144.429 66.946 144.429 67.294C144.429 67.6444 144.481 67.9652 144.585 68.2564C144.692 68.5476 144.854 68.7808 145.072 68.956C145.292 69.1312 145.569 69.2188 145.903 69.2188ZM151.214 70.1207C150.869 70.1207 150.556 70.0568 150.277 69.929C149.997 69.7988 149.776 69.6106 149.613 69.3643C149.452 69.1181 149.371 68.8163 149.371 68.4588C149.371 68.151 149.43 67.8977 149.549 67.6989C149.667 67.5 149.827 67.3426 150.028 67.2266C150.229 67.1106 150.454 67.023 150.703 66.9638C150.951 66.9046 151.205 66.8596 151.463 66.8288C151.79 66.791 152.055 66.7602 152.258 66.7365C152.462 66.7105 152.61 66.669 152.702 66.6122C152.794 66.5554 152.841 66.4631 152.841 66.3352V66.3104C152.841 66.0002 152.753 65.7599 152.578 65.5895C152.405 65.419 152.147 65.3338 151.804 65.3338C151.446 65.3338 151.165 65.4131 150.959 65.5717C150.755 65.728 150.614 65.902 150.536 66.0938L149.538 65.8665C149.656 65.535 149.829 65.2675 150.057 65.0639C150.286 64.858 150.55 64.7088 150.848 64.6165C151.147 64.5218 151.46 64.4744 151.79 64.4744C152.007 64.4744 152.238 64.5005 152.482 64.5526C152.728 64.6023 152.958 64.6946 153.171 64.8295C153.386 64.9645 153.563 65.1574 153.7 65.4084C153.837 65.657 153.906 65.9801 153.906 66.3778V70H152.869V69.2543H152.826C152.758 69.3916 152.655 69.5265 152.517 69.6591C152.38 69.7917 152.204 69.9018 151.988 69.9893C151.773 70.0769 151.515 70.1207 151.214 70.1207ZM151.445 69.2685C151.739 69.2685 151.99 69.2105 152.198 69.0945C152.409 68.9785 152.568 68.8269 152.677 68.6399C152.789 68.4505 152.844 68.2481 152.844 68.0327V67.3295C152.806 67.3674 152.733 67.4029 152.624 67.4361C152.517 67.4669 152.396 67.4941 152.258 67.5178C152.121 67.5391 151.987 67.5592 151.857 67.5781C151.727 67.5947 151.618 67.6089 151.53 67.6207C151.324 67.6468 151.136 67.6906 150.966 67.7521C150.798 67.8137 150.663 67.9025 150.561 68.0185C150.461 68.1321 150.412 68.2836 150.412 68.473C150.412 68.7358 150.509 68.9347 150.703 69.0696C150.897 69.2022 151.144 69.2685 151.445 69.2685ZM156.382 62.7273V70H155.32V62.7273H156.382ZM161.898 65.8771L160.935 66.0476C160.895 65.9245 160.831 65.8073 160.744 65.696C160.658 65.5848 160.542 65.4936 160.396 65.4226C160.249 65.3516 160.065 65.3161 159.845 65.3161C159.545 65.3161 159.294 65.3835 159.092 65.5185C158.891 65.651 158.791 65.8227 158.791 66.0334C158.791 66.2157 158.858 66.3625 158.993 66.4737C159.128 66.585 159.346 66.6761 159.646 66.7472L160.513 66.946C161.015 67.062 161.389 67.2408 161.635 67.4822C161.881 67.7237 162.004 68.0374 162.004 68.4233C162.004 68.75 161.91 69.0412 161.72 69.2969C161.533 69.5502 161.272 69.7491 160.935 69.8935C160.602 70.0379 160.215 70.1101 159.774 70.1101C159.163 70.1101 158.665 69.9799 158.279 69.7195C157.893 69.4567 157.657 69.0838 157.569 68.6009L158.595 68.4446C158.659 68.7121 158.791 68.9145 158.989 69.0518C159.188 69.1868 159.448 69.2543 159.767 69.2543C160.115 69.2543 160.393 69.1821 160.602 69.0376C160.81 68.8909 160.914 68.7121 160.914 68.5014C160.914 68.331 160.85 68.1877 160.722 68.0717C160.597 67.9557 160.404 67.8681 160.144 67.8089L159.22 67.6065C158.711 67.4905 158.335 67.3059 158.091 67.0526C157.85 66.7992 157.729 66.4785 157.729 66.0902C157.729 65.7682 157.819 65.4865 157.999 65.245C158.179 65.0036 158.427 64.8153 158.744 64.6804C159.062 64.5431 159.425 64.4744 159.835 64.4744C160.424 64.4744 160.888 64.6023 161.227 64.858C161.565 65.1113 161.789 65.451 161.898 65.8771ZM166.518 70H165.353L167.97 62.7273H169.238L171.855 70H170.69L168.634 64.0483H168.578L166.518 70ZM166.713 67.152H170.492V68.0753H166.713V67.152ZM175.03 70.1101C174.502 70.1101 174.047 69.9905 173.666 69.7514C173.287 69.5099 172.996 69.1773 172.793 68.7536C172.589 68.3298 172.487 67.8445 172.487 67.2976C172.487 66.7436 172.591 66.2547 172.8 65.831C173.008 65.4048 173.302 65.0722 173.68 64.8331C174.059 64.594 174.506 64.4744 175.019 64.4744C175.434 64.4744 175.803 64.5514 176.127 64.7053C176.452 64.8568 176.713 65.0698 176.912 65.3445C177.113 65.6191 177.233 65.9399 177.271 66.3068H176.237C176.18 66.0511 176.05 65.831 175.847 65.6463C175.645 65.4616 175.376 65.3693 175.037 65.3693C174.741 65.3693 174.482 65.4474 174.259 65.6037C174.039 65.7576 173.868 65.9777 173.744 66.2642C173.621 66.5483 173.56 66.8845 173.56 67.2727C173.56 67.6705 173.62 68.0137 173.741 68.3026C173.862 68.5914 174.032 68.8151 174.252 68.9737C174.475 69.1323 174.736 69.2116 175.037 69.2116C175.238 69.2116 175.421 69.175 175.584 69.1016C175.75 69.0258 175.888 68.9181 175.999 68.7784C176.113 68.6387 176.192 68.4706 176.237 68.2741H177.271C177.233 68.6269 177.118 68.9418 176.926 69.2188C176.734 69.4957 176.478 69.7135 176.156 69.8722C175.836 70.0308 175.461 70.1101 175.03 70.1101ZM179.468 66.7614V70H178.406V62.7273H179.454V65.4332H179.521C179.649 65.1397 179.844 64.9065 180.107 64.7337C180.37 64.5608 180.713 64.4744 181.137 64.4744C181.511 64.4744 181.838 64.5514 182.117 64.7053C182.399 64.8591 182.617 65.0888 182.771 65.3942C182.927 65.6972 183.005 66.076 183.005 66.5305V70H181.943V66.6584C181.943 66.2583 181.84 65.9482 181.634 65.728C181.428 65.5054 181.142 65.3942 180.775 65.3942C180.524 65.3942 180.299 65.4474 180.1 65.554C179.904 65.6605 179.748 65.8168 179.635 66.0227C179.524 66.2263 179.468 66.4725 179.468 66.7614ZM184.422 70V64.5455H185.484V70H184.422ZM184.958 63.7038C184.773 63.7038 184.615 63.6423 184.482 63.5192C184.352 63.3937 184.287 63.2446 184.287 63.0717C184.287 62.8965 184.352 62.7474 184.482 62.6243C184.615 62.4988 184.773 62.4361 184.958 62.4361C185.143 62.4361 185.3 62.4988 185.43 62.6243C185.563 62.7474 185.629 62.8965 185.629 63.0717C185.629 63.2446 185.563 63.3937 185.43 63.5192C185.3 63.6423 185.143 63.7038 184.958 63.7038ZM189.263 70.1101C188.725 70.1101 188.263 69.9953 187.874 69.7656C187.488 69.5336 187.19 69.2081 186.979 68.7891C186.771 68.3677 186.667 67.8741 186.667 67.3082C186.667 66.7495 186.771 66.2571 186.979 65.831C187.19 65.4048 187.484 65.0722 187.86 64.8331C188.239 64.594 188.682 64.4744 189.188 64.4744C189.496 64.4744 189.794 64.5253 190.083 64.6271C190.372 64.7289 190.631 64.8887 190.861 65.1065C191.091 65.3243 191.272 65.6072 191.404 65.9553C191.537 66.3009 191.603 66.7211 191.603 67.2159V67.5923H187.267V66.7969H190.563C190.563 66.5175 190.506 66.2701 190.392 66.0547C190.278 65.8369 190.119 65.6652 189.913 65.5398C189.709 65.4143 189.47 65.3516 189.195 65.3516C188.897 65.3516 188.637 65.425 188.414 65.5717C188.194 65.7161 188.024 65.9055 187.903 66.1399C187.784 66.3719 187.725 66.6241 187.725 66.8963V67.5178C187.725 67.8823 187.789 68.1925 187.917 68.4482C188.047 68.7038 188.228 68.8991 188.46 69.0341C188.692 69.1667 188.963 69.233 189.274 69.233C189.475 69.233 189.658 69.2045 189.824 69.1477C189.99 69.0885 190.133 69.0009 190.254 68.8849C190.374 68.7689 190.467 68.6257 190.531 68.4553L191.536 68.6364C191.455 68.9323 191.311 69.1915 191.102 69.4141C190.896 69.6342 190.637 69.8059 190.325 69.929C190.015 70.0497 189.661 70.1101 189.263 70.1101ZM197.291 64.5455L195.313 70H194.177L192.195 64.5455H193.335L194.717 68.7429H194.773L196.151 64.5455H197.291ZM200.454 70.1101C199.917 70.1101 199.454 69.9953 199.066 69.7656C198.68 69.5336 198.382 69.2081 198.171 68.7891C197.963 68.3677 197.858 67.8741 197.858 67.3082C197.858 66.7495 197.963 66.2571 198.171 65.831C198.382 65.4048 198.675 65.0722 199.052 64.8331C199.43 64.594 199.873 64.4744 200.38 64.4744C200.687 64.4744 200.986 64.5253 201.275 64.6271C201.563 64.7289 201.823 64.8887 202.052 65.1065C202.282 65.3243 202.463 65.6072 202.596 65.9553C202.728 66.3009 202.794 66.7211 202.794 67.2159V67.5923H198.459V66.7969H201.754C201.754 66.5175 201.697 66.2701 201.584 66.0547C201.47 65.8369 201.31 65.6652 201.104 65.5398C200.901 65.4143 200.661 65.3516 200.387 65.3516C200.089 65.3516 199.828 65.425 199.606 65.5717C199.385 65.7161 199.215 65.9055 199.094 66.1399C198.976 66.3719 198.917 66.6241 198.917 66.8963V67.5178C198.917 67.8823 198.981 68.1925 199.108 68.4482C199.239 68.7038 199.42 68.8991 199.652 69.0341C199.884 69.1667 200.155 69.233 200.465 69.233C200.666 69.233 200.85 69.2045 201.015 69.1477C201.181 69.0885 201.324 69.0009 201.445 68.8849C201.566 68.7689 201.658 68.6257 201.722 68.4553L202.727 68.6364C202.647 68.9323 202.502 69.1915 202.294 69.4141C202.088 69.6342 201.829 69.8059 201.516 69.929C201.206 70.0497 200.852 70.1101 200.454 70.1101ZM206.014 70.1065C205.574 70.1065 205.181 69.9941 204.835 69.7692C204.492 69.5419 204.222 69.2187 204.026 68.7997C203.832 68.3783 203.735 67.8729 203.735 67.2834C203.735 66.6939 203.833 66.1896 204.029 65.7706C204.228 65.3516 204.501 65.0308 204.846 64.8082C205.192 64.5857 205.584 64.4744 206.022 64.4744C206.36 64.4744 206.632 64.5312 206.838 64.6449C207.047 64.7562 207.208 64.8864 207.321 65.0355C207.437 65.1847 207.527 65.3161 207.591 65.4297H207.655V62.7273H208.717V70H207.68V69.1513H207.591C207.527 69.2673 207.435 69.3999 207.314 69.549C207.196 69.6982 207.032 69.8284 206.824 69.9396C206.616 70.0509 206.346 70.1065 206.014 70.1065ZM206.249 69.201C206.554 69.201 206.812 69.1205 207.023 68.9595C207.236 68.7962 207.397 68.5701 207.506 68.2812C207.617 67.9924 207.673 67.6562 207.673 67.2727C207.673 66.8939 207.618 66.5625 207.509 66.2784C207.401 65.9943 207.241 65.773 207.03 65.6143C206.819 65.4557 206.559 65.3764 206.249 65.3764C205.929 65.3764 205.663 65.4593 205.45 65.625C205.237 65.7907 205.076 66.0168 204.967 66.3033C204.86 66.5897 204.807 66.9129 204.807 67.2727C204.807 67.6373 204.862 67.9652 204.97 68.2564C205.079 68.5476 205.24 68.7784 205.453 68.9489C205.669 69.117 205.934 69.201 206.249 69.201Z" fill="white"/>
<path fill-rule="evenodd" clip-rule="evenodd" d="M170 78L162 78L164.401 81.1969C165.201 82.2622 166.799 82.2622 167.599 81.1969L170 78Z" fill="#6941C6"/>
<path d="M30 104C30 101.791 31.7909 100 34 100H43C45.2091 100 47 101.791 47 104V164H30V104Z" fill="#E9D7FE"/>
<path d="M81 114C81 111.791 82.7909 110 85 110H94C96.2091 110 98 111.791 98 114V164H81V114Z" fill="#E9D7FE"/>
<path d="M130 121C130 118.791 131.791 117 134 117H143C145.209 117 147 118.791 147 121V164H130V121Z" fill="#B3B3B3"/>
<path d="M130 121C130 118.791 131.791 117 134 117H143C145.209 117 147 118.791 147 121V164H130V121Z" fill="#E9D7FE"/>
<path d="M183 116C183 113.791 184.791 112 187 112H196C198.209 112 200 113.791 200 116V164H183V116Z" fill="#E9D7FE"/>
<path d="M208 133C208 130.791 209.791 129 212 129H221C223.209 129 225 130.791 225 133V164H208V133Z" fill="#E9D7FE"/>
<path d="M234 103C234 100.791 235.791 99 238 99H247C249.209 99 251 100.791 251 103V164H234V103Z" fill="#E9D7FE"/>
<path d="M285 82C285 79.7909 286.791 78 289 78H298C300.209 78 302 79.7909 302 82V164H285V82Z" fill="#E9D7FE"/>
<path d="M309 96C309 93.7909 310.791 92 313 92H322C324.209 92 326 93.7909 326 96V164H309V96Z" fill="#E9D7FE"/>
<path d="M259 52C259 49.7909 260.791 48 263 48H272C274.209 48 276 49.7909 276 52V164H259V52Z" fill="#E9D7FE"/>
<g clip-path="url(#clip0_1_45685)">
<path d="M157 93C157 90.7909 158.791 89 161 89H170C172.209 89 174 90.7909 174 93V164H157V93Z" fill="#6941C6"/>
<g opacity="0.12">
<path fill-rule="evenodd" clip-rule="evenodd" d="M155.375 71.8011C153.735 74.6275 152.491 78.9268 152.237 83.9978C151.951 89.7151 150.464 94.496 148.669 97.7863C146.901 101.027 144.723 103.009 142.992 102.752C141.604 102.545 140.079 102.801 138.646 104.622C137.21 106.446 135.763 109.973 134.683 116.711C132.812 128.38 127.882 131.511 125.556 131.567C125.197 131.576 124.909 131.035 124.911 130.358C124.914 129.682 125.207 129.127 125.566 129.119C127.43 129.074 131.767 126.479 133.44 116.046C134.574 108.969 136.16 104.855 137.934 102.6C139.712 100.341 141.578 100.081 143.12 100.311C144.32 100.489 146.141 99.0387 147.772 96.0478C149.377 93.1064 150.691 88.8571 150.944 83.8162C151.229 78.1291 152.625 73.255 154.509 70.009C156.388 66.7736 158.803 65.0827 161.1 66.009C161.45 66.1498 161.667 66.8001 161.585 67.4614C161.503 68.1227 161.154 68.5446 160.804 68.4038C159.019 67.6839 157.022 68.9641 155.375 71.8011Z" fill="white"/>
<path fill-rule="evenodd" clip-rule="evenodd" d="M161.844 78.3982C160.204 81.2246 158.961 85.5238 158.707 90.5949C158.42 96.3122 156.933 101.093 155.138 104.383C153.37 107.624 151.192 109.606 149.461 109.349C148.073 109.142 146.548 109.398 145.115 111.219C143.679 113.043 142.232 116.57 141.152 123.308C139.281 134.978 134.351 138.109 132.025 138.164C131.666 138.173 131.378 137.632 131.38 136.956C131.383 136.279 131.676 135.724 132.035 135.716C133.899 135.671 138.236 133.076 139.909 122.643C141.043 115.566 142.629 111.452 144.404 109.197C146.182 106.938 148.047 106.678 149.589 106.908C150.789 107.086 152.61 105.636 154.241 102.645C155.846 99.7035 157.161 95.4541 157.413 90.4132C157.698 84.7262 159.094 79.852 160.978 76.606C162.857 73.3707 165.272 71.6797 167.569 72.606C167.919 72.7469 168.136 73.3972 168.054 74.0585C167.972 74.7198 167.623 75.1417 167.273 75.0008C165.488 74.2809 163.491 75.5612 161.844 78.3982Z" fill="white"/>
<path fill-rule="evenodd" clip-rule="evenodd" d="M168.315 84.9962C166.674 87.8226 165.431 92.1219 165.177 97.1929C164.891 102.91 163.404 107.691 161.608 110.981C159.84 114.222 157.663 116.204 155.932 115.947C154.544 115.74 153.019 115.996 151.586 117.817C150.149 119.641 148.703 123.168 147.623 129.906C145.752 141.576 140.822 144.707 138.496 144.762C138.137 144.771 137.848 144.23 137.851 143.554C137.854 142.877 138.147 142.322 138.505 142.314C140.37 142.269 144.707 139.674 146.379 129.241C147.514 122.164 149.099 118.05 150.874 115.795C152.652 113.536 154.517 113.276 156.06 113.506C157.26 113.684 159.08 112.234 160.712 109.243C162.317 106.301 163.631 102.052 163.884 97.0113C164.169 91.3242 165.565 86.45 167.449 83.2041C169.327 79.9687 171.742 78.2778 174.04 79.2041C174.389 79.3449 174.606 79.9952 174.525 80.6565C174.443 81.3178 174.093 81.7397 173.744 81.5988C171.958 80.8789 169.962 82.1592 168.315 84.9962Z" fill="white"/>
<path fill-rule="evenodd" clip-rule="evenodd" d="M174.791 91.5932C173.15 94.4196 171.907 98.7189 171.653 103.79C171.367 109.507 169.879 114.288 168.084 117.578C166.316 120.819 164.139 122.802 162.408 122.544C161.02 122.337 159.494 122.593 158.061 124.414C156.625 126.238 155.178 129.765 154.098 136.503C152.227 148.173 147.298 151.304 144.972 151.359C144.613 151.368 144.324 150.827 144.327 150.151C144.329 149.475 144.622 148.919 144.981 148.911C146.845 148.866 151.182 146.271 152.855 135.838C153.99 128.761 155.575 124.647 157.35 122.392C159.128 120.133 160.993 119.873 162.536 120.103C163.735 120.281 165.556 118.831 167.188 115.84C168.792 112.899 170.107 108.649 170.359 103.608C170.644 97.9212 172.04 93.0471 173.925 89.8011C175.803 86.5657 178.218 84.8748 180.516 85.8011C180.865 85.9419 181.082 86.5922 181 87.2535C180.918 87.9148 180.569 88.3367 180.22 88.1959C178.434 87.476 176.438 88.7562 174.791 91.5932Z" fill="white"/>
<path fill-rule="evenodd" clip-rule="evenodd" d="M181.261 98.1893C179.621 101.016 178.378 105.315 178.124 110.386C177.837 116.103 176.35 120.884 174.555 124.174C172.787 127.415 170.61 129.398 168.878 129.14C167.49 128.933 165.965 129.189 164.532 131.01C163.096 132.834 161.649 136.361 160.569 143.099C158.698 154.769 153.768 157.9 151.442 157.955C151.083 157.964 150.795 157.423 150.797 156.747C150.8 156.071 151.093 155.516 151.452 155.507C153.316 155.462 157.653 152.867 159.326 142.434C160.46 135.357 162.046 131.243 163.821 128.988C165.599 126.73 167.464 126.469 169.006 126.699C170.206 126.878 172.027 125.427 173.658 122.436C175.263 119.495 176.578 115.245 176.83 110.204C177.115 104.517 178.511 99.6431 180.395 96.3972C182.274 93.1618 184.689 91.4709 186.986 92.3972C187.336 92.538 187.553 93.1883 187.471 93.8496C187.389 94.5109 187.04 94.9328 186.69 94.7919C184.905 94.072 182.908 95.3523 181.261 98.1893Z" fill="white"/>
<path fill-rule="evenodd" clip-rule="evenodd" d="M187.732 104.784C186.091 107.611 184.848 111.91 184.594 116.981C184.308 122.698 182.821 127.479 181.026 130.77C179.257 134.01 177.08 135.993 175.349 135.735C173.961 135.528 172.436 135.785 171.003 137.605C169.566 139.429 168.12 142.957 167.04 149.694C165.169 161.364 160.239 164.495 157.913 164.55C157.554 164.559 157.265 164.018 157.268 163.342C157.271 162.666 157.564 162.111 157.922 162.102C159.787 162.057 164.124 159.462 165.796 149.029C166.931 141.952 168.516 137.838 170.291 135.583C172.069 133.325 173.934 133.064 175.477 133.294C176.677 133.473 178.497 132.022 180.129 129.031C181.734 126.09 183.048 121.84 183.301 116.799C183.586 111.112 184.982 106.238 186.866 102.992C188.744 99.7569 191.16 98.0659 193.457 98.9923C193.806 99.1331 194.023 99.7834 193.942 100.445C193.86 101.106 193.51 101.528 193.161 101.387C191.375 100.667 189.379 101.947 187.732 104.784Z" fill="white"/>
<path fill-rule="evenodd" clip-rule="evenodd" d="M194.205 111.381C192.564 114.208 191.321 118.507 191.067 123.578C190.78 129.295 189.293 134.076 187.498 137.367C185.73 140.607 183.553 142.59 181.821 142.332C180.433 142.125 178.908 142.382 177.475 144.202C176.039 146.026 174.592 149.554 173.512 156.291C171.641 167.961 166.712 171.092 164.385 171.147C164.027 171.156 163.738 170.615 163.74 169.939C163.743 169.263 164.036 168.708 164.395 168.699C166.259 168.655 170.596 166.059 172.269 155.626C173.403 148.549 174.989 144.435 176.764 142.18C178.542 139.922 180.407 139.661 181.949 139.891C183.149 140.07 184.97 138.619 186.602 135.628C188.206 132.687 189.521 128.437 189.773 123.396C190.058 117.709 191.454 112.835 193.338 109.589C195.217 106.354 197.632 104.663 199.929 105.589C200.279 105.73 200.496 106.38 200.414 107.042C200.332 107.703 199.983 108.125 199.633 107.984C197.848 107.264 195.852 108.544 194.205 111.381Z" fill="white"/>
<path fill-rule="evenodd" clip-rule="evenodd" d="M200.679 117.981C199.038 120.808 197.795 125.107 197.541 130.178C197.254 135.895 195.767 140.676 193.972 143.967C192.204 147.207 190.027 149.19 188.295 148.932C186.907 148.725 185.382 148.982 183.949 150.802C182.513 152.626 181.066 156.154 179.986 162.891C178.115 174.561 173.186 177.692 170.859 177.747C170.5 177.756 170.212 177.215 170.214 176.539C170.217 175.863 170.51 175.308 170.869 175.299C172.733 175.254 177.07 172.659 178.743 162.226C179.877 155.149 181.463 151.035 183.238 148.78C185.016 146.522 186.881 146.261 188.423 146.491C189.623 146.67 191.444 145.219 193.076 142.228C194.68 139.287 195.995 135.037 196.247 129.996C196.532 124.309 197.928 119.435 199.812 116.189C201.691 112.954 204.106 111.263 206.403 112.189C206.753 112.33 206.97 112.98 206.888 113.642C206.806 114.303 206.457 114.725 206.107 114.584C204.322 113.864 202.326 115.144 200.679 117.981Z" fill="white"/>
</g>
</g>
<path d="M106 96C106 93.7909 107.791 92 110 92H119C121.209 92 123 93.7909 123 96V164H106V96Z" fill="#E9D7FE"/>
<path d="M55 58C55 55.7909 56.7909 54 59 54H68C70.2091 54 72 55.7909 72 58V164H55V58Z" fill="#E9D7FE"/>
<defs>
<linearGradient id="paint0_linear_1_45685" x1="319" y1="51" x2="319" y2="164" gradientUnits="userSpaceOnUse">
<stop stop-color="#D6BBFB" stop-opacity="0.1"/>
<stop offset="0.260417" stop-color="#D6BBFB"/>
</linearGradient>
<linearGradient id="paint1_linear_1_45685" x1="293.5" y1="51" x2="293.5" y2="164" gradientUnits="userSpaceOnUse">
<stop stop-color="#D6BBFB" stop-opacity="0.1"/>
<stop offset="0.260417" stop-color="#D6BBFB"/>
</linearGradient>
<linearGradient id="paint2_linear_1_45685" x1="268" y1="51" x2="268" y2="164" gradientUnits="userSpaceOnUse">
<stop stop-color="#A5ABB3" stop-opacity="0"/>
<stop offset="0.260417" stop-color="#C4C4C4"/>
</linearGradient>
<linearGradient id="paint3_linear_1_45685" x1="242.5" y1="51" x2="242.5" y2="164" gradientUnits="userSpaceOnUse">
<stop stop-color="#D6BBFB" stop-opacity="0.1"/>
<stop offset="0.260417" stop-color="#D6BBFB"/>
</linearGradient>
<linearGradient id="paint4_linear_1_45685" x1="217" y1="51" x2="217" y2="164" gradientUnits="userSpaceOnUse">
<stop stop-color="#D6BBFB" stop-opacity="0.1"/>
<stop offset="0.260417" stop-color="#D6BBFB"/>
</linearGradient>
<linearGradient id="paint5_linear_1_45685" x1="191.5" y1="51" x2="191.5" y2="164" gradientUnits="userSpaceOnUse">
<stop stop-color="#D6BBFB" stop-opacity="0.1"/>
<stop offset="0.260417" stop-color="#D6BBFB"/>
</linearGradient>
<linearGradient id="paint6_linear_1_45685" x1="166" y1="51" x2="166" y2="164" gradientUnits="userSpaceOnUse">
<stop stop-color="#D6BBFB" stop-opacity="0.1"/>
<stop offset="0.260417" stop-color="#D6BBFB"/>
</linearGradient>
<linearGradient id="paint7_linear_1_45685" x1="140.5" y1="51" x2="140.5" y2="164" gradientUnits="userSpaceOnUse">
<stop stop-color="#D6BBFB" stop-opacity="0.1"/>
<stop offset="0.260417" stop-color="#D6BBFB"/>
</linearGradient>
<linearGradient id="paint8_linear_1_45685" x1="115" y1="51" x2="115" y2="164" gradientUnits="userSpaceOnUse">
<stop stop-color="#D6BBFB" stop-opacity="0.1"/>
<stop offset="0.260417" stop-color="#D6BBFB"/>
</linearGradient>
<linearGradient id="paint9_linear_1_45685" x1="89.5" y1="51" x2="89.5" y2="164" gradientUnits="userSpaceOnUse">
<stop stop-color="#D6BBFB" stop-opacity="0.1"/>
<stop offset="0.260417" stop-color="#D6BBFB"/>
</linearGradient>
<linearGradient id="paint10_linear_1_45685" x1="64" y1="51" x2="64" y2="164" gradientUnits="userSpaceOnUse">
<stop stop-color="#A5ABB3" stop-opacity="0"/>
<stop offset="0.260417" stop-color="#C4C4C4"/>
</linearGradient>
<linearGradient id="paint11_linear_1_45685" x1="38.5" y1="51" x2="38.5" y2="164" gradientUnits="userSpaceOnUse">
<stop stop-color="#D6BBFB" stop-opacity="0.1"/>
<stop offset="0.260417" stop-color="#D6BBFB"/>
</linearGradient>
<clipPath id="clip0_1_45685">
<path d="M157 93C157 90.7909 158.791 89 161 89H170C172.209 89 174 90.7909 174 93V164H157V93Z" fill="white"/>
</clipPath>
</defs>
</svg>
