<svg width="373" height="166" viewBox="0 0 373 166" fill="none" xmlns="http://www.w3.org/2000/svg">
<g filter="url(#filter0_d_1_45784)">
<g clip-path="url(#clip0_1_45784)">
<rect x="15" y="11" width="343" height="136" rx="10" fill="white"/>
<path d="M161.616 39.1406V37.8182H169.496V39.1406H166.32V48H164.788V39.1406H161.616ZM170.903 50.8636C170.681 50.8636 170.479 50.8454 170.297 50.8089C170.114 50.7758 169.978 50.7393 169.889 50.6996L170.247 49.4815C170.519 49.5545 170.761 49.5859 170.973 49.576C171.185 49.5661 171.372 49.4865 171.534 49.3374C171.7 49.1882 171.846 48.9446 171.972 48.6065L172.156 48.0994L169.362 40.3636H170.953L172.887 46.2898H172.966L174.9 40.3636H176.496L173.349 49.0192C173.203 49.4169 173.018 49.7533 172.792 50.0284C172.567 50.3068 172.298 50.5156 171.987 50.6548C171.675 50.794 171.314 50.8636 170.903 50.8636ZM177.613 50.8636V40.3636H179.065V41.6016H179.189C179.275 41.4425 179.4 41.2585 179.562 41.0497C179.724 40.8409 179.95 40.6586 180.238 40.5028C180.526 40.3438 180.908 40.2642 181.382 40.2642C181.998 40.2642 182.548 40.42 183.032 40.7315C183.516 41.0431 183.896 41.4922 184.171 42.0788C184.449 42.6655 184.588 43.3714 184.588 44.1967C184.588 45.022 184.451 45.7296 184.176 46.3196C183.901 46.9062 183.523 47.3587 183.042 47.6768C182.562 47.9917 182.013 48.1491 181.396 48.1491C180.932 48.1491 180.553 48.0713 180.258 47.9155C179.966 47.7597 179.738 47.5774 179.572 47.3686C179.406 47.1598 179.279 46.9742 179.189 46.8118H179.1V50.8636H177.613ZM179.07 44.1818C179.07 44.7187 179.148 45.1894 179.303 45.5938C179.459 45.9981 179.685 46.3146 179.98 46.5433C180.275 46.7687 180.636 46.8814 181.063 46.8814C181.508 46.8814 181.879 46.7637 182.177 46.5284C182.475 46.2898 182.701 45.9666 182.853 45.5589C183.009 45.1513 183.087 44.6922 183.087 44.1818C183.087 43.678 183.011 43.2256 182.858 42.8246C182.709 42.4235 182.484 42.107 182.182 41.875C181.884 41.643 181.511 41.527 181.063 41.527C180.633 41.527 180.268 41.638 179.97 41.8601C179.675 42.0821 179.451 42.392 179.298 42.7898C179.146 43.1875 179.07 43.6515 179.07 44.1818ZM189.265 48.1541C188.513 48.1541 187.865 47.9934 187.321 47.6719C186.781 47.3471 186.363 46.8913 186.068 46.3047C185.777 45.7147 185.631 45.0237 185.631 44.2315C185.631 43.4493 185.777 42.7599 186.068 42.1634C186.363 41.5668 186.774 41.1011 187.301 40.7663C187.831 40.4316 188.451 40.2642 189.161 40.2642C189.591 40.2642 190.009 40.3355 190.413 40.478C190.818 40.6205 191.181 40.8442 191.502 41.1491C191.824 41.4541 192.077 41.8501 192.263 42.3374C192.448 42.8213 192.541 43.4096 192.541 44.1023V44.6293H186.471V43.5156H191.085C191.085 43.1245 191.005 42.7782 190.846 42.4766C190.687 42.1716 190.463 41.9313 190.175 41.7557C189.89 41.58 189.555 41.4922 189.17 41.4922C188.753 41.4922 188.388 41.5949 188.077 41.8004C187.768 42.0026 187.53 42.2678 187.361 42.5959C187.195 42.9207 187.112 43.2737 187.112 43.6548V44.5249C187.112 45.0353 187.202 45.4695 187.381 45.8274C187.563 46.1854 187.817 46.4588 188.141 46.6477C188.466 46.8333 188.846 46.9261 189.28 46.9261C189.562 46.9261 189.818 46.8864 190.05 46.8068C190.282 46.724 190.483 46.6013 190.652 46.4389C190.821 46.2765 190.95 46.076 191.04 45.8374L192.447 46.0909C192.334 46.5052 192.132 46.8681 191.84 47.1797C191.552 47.4879 191.189 47.7282 190.751 47.9006C190.317 48.0696 189.822 48.1541 189.265 48.1541ZM199.633 42.228L198.286 42.4666C198.229 42.2943 198.14 42.1302 198.017 41.9744C197.898 41.8187 197.735 41.6911 197.53 41.5916C197.324 41.4922 197.067 41.4425 196.759 41.4425C196.338 41.4425 195.987 41.5369 195.705 41.7259C195.424 41.9115 195.283 42.1518 195.283 42.4467C195.283 42.7019 195.377 42.9074 195.566 43.0632C195.755 43.219 196.06 43.3466 196.481 43.446L197.694 43.7244C198.397 43.8868 198.92 44.1371 199.265 44.4751C199.61 44.8132 199.782 45.2524 199.782 45.7926C199.782 46.25 199.649 46.6577 199.384 47.0156C199.122 47.3703 198.756 47.6487 198.286 47.8509C197.818 48.053 197.276 48.1541 196.66 48.1541C195.805 48.1541 195.107 47.9718 194.567 47.6072C194.027 47.2393 193.695 46.7173 193.572 46.0412L195.009 45.8224C195.099 46.197 195.283 46.4804 195.561 46.6726C195.84 46.8615 196.202 46.956 196.65 46.956C197.137 46.956 197.527 46.8549 197.818 46.6527C198.11 46.4472 198.256 46.197 198.256 45.902C198.256 45.6634 198.166 45.4628 197.987 45.3004C197.812 45.138 197.541 45.0154 197.177 44.9325L195.884 44.6491C195.172 44.4867 194.645 44.2282 194.303 43.8736C193.965 43.5189 193.796 43.0698 193.796 42.5263C193.796 42.0755 193.922 41.6811 194.174 41.343C194.426 41.005 194.774 40.7415 195.218 40.5526C195.662 40.3603 196.171 40.2642 196.744 40.2642C197.57 40.2642 198.219 40.4432 198.693 40.8011C199.167 41.1558 199.48 41.6314 199.633 42.228ZM207.778 48.1541C207.062 48.1541 206.437 47.9901 205.904 47.6619C205.37 47.3338 204.956 46.8748 204.661 46.2848C204.366 45.6948 204.218 45.0054 204.218 44.2166C204.218 43.4245 204.366 42.7318 204.661 42.1385C204.956 41.5452 205.37 41.0845 205.904 40.7564C206.437 40.4283 207.062 40.2642 207.778 40.2642C208.494 40.2642 209.119 40.4283 209.652 40.7564C210.186 41.0845 210.6 41.5452 210.895 42.1385C211.19 42.7318 211.338 43.4245 211.338 44.2166C211.338 45.0054 211.19 45.6948 210.895 46.2848C210.6 46.8748 210.186 47.3338 209.652 47.6619C209.119 47.9901 208.494 48.1541 207.778 48.1541ZM207.783 46.9062C208.247 46.9062 208.632 46.7836 208.936 46.5384C209.241 46.2931 209.467 45.9666 209.613 45.5589C209.762 45.1513 209.836 44.7022 209.836 44.2116C209.836 43.7244 209.762 43.277 209.613 42.8693C209.467 42.4583 209.241 42.1286 208.936 41.88C208.632 41.6314 208.247 41.5071 207.783 41.5071C207.316 41.5071 206.928 41.6314 206.62 41.88C206.315 42.1286 206.088 42.4583 205.939 42.8693C205.793 43.277 205.72 43.7244 205.72 44.2116C205.72 44.7022 205.793 45.1513 205.939 45.5589C206.088 45.9666 206.315 46.2931 206.62 46.5384C206.928 46.7836 207.316 46.9062 207.783 46.9062ZM216.351 40.3636V41.5568H212.036V40.3636H216.351ZM213.219 48V39.4787C213.219 39.0014 213.324 38.6053 213.532 38.2905C213.741 37.9723 214.018 37.7353 214.363 37.5795C214.707 37.4205 215.082 37.3409 215.486 37.3409C215.784 37.3409 216.04 37.3658 216.252 37.4155C216.464 37.4619 216.621 37.505 216.724 37.5447L216.376 38.7479C216.307 38.728 216.217 38.7048 216.108 38.6783C215.998 38.6484 215.866 38.6335 215.71 38.6335C215.349 38.6335 215.09 38.723 214.934 38.902C214.782 39.081 214.706 39.3395 214.706 39.6776V48H213.219ZM224.232 51.0227C223.625 51.0227 223.103 50.9432 222.666 50.7841C222.232 50.625 221.877 50.4145 221.602 50.1527C221.327 49.8909 221.121 49.6042 220.985 49.2926L222.263 48.7656C222.353 48.9115 222.472 49.0656 222.621 49.228C222.773 49.3937 222.979 49.5346 223.237 49.6506C223.499 49.7666 223.836 49.8246 224.247 49.8246C224.81 49.8246 225.276 49.687 225.644 49.4119C226.012 49.1402 226.196 48.706 226.196 48.1094V46.608H226.101C226.012 46.7704 225.882 46.951 225.713 47.1499C225.548 47.3487 225.319 47.5211 225.027 47.6669C224.736 47.8127 224.356 47.8857 223.889 47.8857C223.286 47.8857 222.742 47.7448 222.258 47.4631C221.777 47.178 221.396 46.7588 221.115 46.2053C220.836 45.6484 220.697 44.964 220.697 44.152C220.697 43.34 220.835 42.6439 221.11 42.0639C221.388 41.4839 221.769 41.0398 222.253 40.7315C222.737 40.42 223.286 40.2642 223.899 40.2642C224.373 40.2642 224.755 40.3438 225.047 40.5028C225.339 40.6586 225.566 40.8409 225.728 41.0497C225.894 41.2585 226.022 41.4425 226.111 41.6016H226.22V40.3636H227.677V48.169C227.677 48.8253 227.525 49.3639 227.22 49.7848C226.915 50.2057 226.502 50.5173 225.982 50.7195C225.465 50.9216 224.881 51.0227 224.232 51.0227ZM224.217 46.6527C224.644 46.6527 225.006 46.5533 225.301 46.3544C225.599 46.1522 225.824 45.8639 225.977 45.4893C226.133 45.1115 226.21 44.6591 226.21 44.1321C226.21 43.6184 226.134 43.166 225.982 42.7749C225.829 42.3838 225.606 42.0788 225.311 41.8601C225.016 41.638 224.651 41.527 224.217 41.527C223.769 41.527 223.397 41.643 223.098 41.875C222.8 42.1037 222.575 42.4152 222.422 42.8097C222.273 43.2041 222.198 43.6449 222.198 44.1321C222.198 44.6326 222.275 45.0717 222.427 45.4496C222.58 45.8274 222.805 46.1224 223.103 46.3345C223.405 46.5466 223.776 46.6527 224.217 46.6527ZM232.607 48.1541C231.891 48.1541 231.267 47.9901 230.733 47.6619C230.199 47.3338 229.785 46.8748 229.49 46.2848C229.195 45.6948 229.048 45.0054 229.048 44.2166C229.048 43.4245 229.195 42.7318 229.49 42.1385C229.785 41.5452 230.199 41.0845 230.733 40.7564C231.267 40.4283 231.891 40.2642 232.607 40.2642C233.323 40.2642 233.948 40.4283 234.482 40.7564C235.015 41.0845 235.43 41.5452 235.724 42.1385C236.019 42.7318 236.167 43.4245 236.167 44.2166C236.167 45.0054 236.019 45.6948 235.724 46.2848C235.43 46.8748 235.015 47.3338 234.482 47.6619C233.948 47.9901 233.323 48.1541 232.607 48.1541ZM232.612 46.9062C233.076 46.9062 233.461 46.7836 233.766 46.5384C234.071 46.2931 234.296 45.9666 234.442 45.5589C234.591 45.1513 234.666 44.7022 234.666 44.2116C234.666 43.7244 234.591 43.277 234.442 42.8693C234.296 42.4583 234.071 42.1286 233.766 41.88C233.461 41.6314 233.076 41.5071 232.612 41.5071C232.145 41.5071 231.757 41.6314 231.449 41.88C231.144 42.1286 230.917 42.4583 230.768 42.8693C230.622 43.277 230.549 43.7244 230.549 44.2116C230.549 44.7022 230.622 45.1513 230.768 45.5589C230.917 45.9666 231.144 46.2931 231.449 46.5384C231.757 46.7836 232.145 46.9062 232.612 46.9062ZM239.769 48.169C239.285 48.169 238.847 48.0795 238.456 47.9006C238.065 47.7183 237.755 47.4548 237.526 47.1101C237.301 46.7654 237.188 46.3428 237.188 45.8423C237.188 45.4115 237.271 45.0568 237.437 44.7784C237.603 44.5 237.826 44.2796 238.108 44.1172C238.39 43.9548 238.705 43.8321 239.053 43.7493C239.401 43.6664 239.755 43.6035 240.117 43.5604C240.574 43.5073 240.945 43.4643 241.23 43.4311C241.515 43.3946 241.722 43.3366 241.852 43.2571C241.981 43.1776 242.046 43.0483 242.046 42.8693V42.8345C242.046 42.4003 241.923 42.0639 241.678 41.8253C241.436 41.5866 241.074 41.4673 240.594 41.4673C240.093 41.4673 239.699 41.5784 239.411 41.8004C239.126 42.0192 238.928 42.2628 238.819 42.5312L237.422 42.2131C237.588 41.7491 237.83 41.3745 238.148 41.0895C238.469 40.8011 238.839 40.5923 239.256 40.4631C239.674 40.3305 240.113 40.2642 240.574 40.2642C240.879 40.2642 241.202 40.3007 241.543 40.3736C241.888 40.4432 242.21 40.5724 242.508 40.7614C242.809 40.9503 243.056 41.2204 243.249 41.5717C243.441 41.9197 243.537 42.3722 243.537 42.929V48H242.085V46.956H242.026C241.93 47.1482 241.785 47.3371 241.593 47.5227C241.401 47.7083 241.154 47.8625 240.852 47.9851C240.551 48.1077 240.189 48.169 239.769 48.169ZM240.092 46.9759C240.503 46.9759 240.854 46.8946 241.146 46.7322C241.441 46.5698 241.664 46.3577 241.817 46.0959C241.973 45.8307 242.051 45.5473 242.051 45.2457V44.2614C241.997 44.3144 241.895 44.3641 241.742 44.4105C241.593 44.4536 241.422 44.4917 241.23 44.5249C241.038 44.5547 240.851 44.5829 240.668 44.6094C240.486 44.6326 240.334 44.6525 240.211 44.669C239.923 44.7055 239.659 44.7668 239.421 44.853C239.185 44.9392 238.996 45.0634 238.854 45.2259C238.715 45.3849 238.645 45.5971 238.645 45.8622C238.645 46.2301 238.781 46.5085 239.053 46.6974C239.324 46.883 239.671 46.9759 240.092 46.9759ZM246.723 37.8182V48H245.237V37.8182H246.723ZM254.166 42.228L252.818 42.4666C252.762 42.2943 252.672 42.1302 252.55 41.9744C252.43 41.8187 252.268 41.6911 252.063 41.5916C251.857 41.4922 251.6 41.4425 251.292 41.4425C250.871 41.4425 250.52 41.5369 250.238 41.7259C249.956 41.9115 249.815 42.1518 249.815 42.4467C249.815 42.7019 249.91 42.9074 250.099 43.0632C250.288 43.219 250.593 43.3466 251.014 43.446L252.227 43.7244C252.929 43.8868 253.453 44.1371 253.798 44.4751C254.142 44.8132 254.315 45.2524 254.315 45.7926C254.315 46.25 254.182 46.6577 253.917 47.0156C253.655 47.3703 253.289 47.6487 252.818 47.8509C252.351 48.053 251.809 48.1541 251.193 48.1541C250.337 48.1541 249.64 47.9718 249.1 47.6072C248.559 47.2393 248.228 46.7173 248.105 46.0412L249.542 45.8224C249.631 46.197 249.815 46.4804 250.094 46.6726C250.372 46.8615 250.735 46.956 251.183 46.956C251.67 46.956 252.059 46.8549 252.351 46.6527C252.643 46.4472 252.788 46.197 252.788 45.902C252.788 45.6634 252.699 45.4628 252.52 45.3004C252.344 45.138 252.074 45.0154 251.71 44.9325L250.417 44.6491C249.704 44.4867 249.177 44.2282 248.836 43.8736C248.498 43.5189 248.329 43.0698 248.329 42.5263C248.329 42.0755 248.455 41.6811 248.707 41.343C248.959 41.005 249.307 40.7415 249.751 40.5526C250.195 40.3603 250.704 40.2642 251.277 40.2642C252.102 40.2642 252.752 40.4432 253.226 40.8011C253.7 41.1558 254.013 41.6314 254.166 42.228ZM261.317 48.169C260.833 48.169 260.395 48.0795 260.004 47.9006C259.613 47.7183 259.303 47.4548 259.074 47.1101C258.849 46.7654 258.736 46.3428 258.736 45.8423C258.736 45.4115 258.819 45.0568 258.985 44.7784C259.151 44.5 259.374 44.2796 259.656 44.1172C259.938 43.9548 260.253 43.8321 260.601 43.7493C260.949 43.6664 261.303 43.6035 261.665 43.5604C262.122 43.5073 262.493 43.4643 262.778 43.4311C263.063 43.3946 263.27 43.3366 263.4 43.2571C263.529 43.1776 263.594 43.0483 263.594 42.8693V42.8345C263.594 42.4003 263.471 42.0639 263.226 41.8253C262.984 41.5866 262.622 41.4673 262.142 41.4673C261.641 41.4673 261.247 41.5784 260.959 41.8004C260.674 42.0192 260.476 42.2628 260.367 42.5312L258.97 42.2131C259.136 41.7491 259.378 41.3745 259.696 41.0895C260.017 40.8011 260.387 40.5923 260.804 40.4631C261.222 40.3305 261.661 40.2642 262.122 40.2642C262.427 40.2642 262.75 40.3007 263.091 40.3736C263.436 40.4432 263.758 40.5724 264.056 40.7614C264.357 40.9503 264.604 41.2204 264.797 41.5717C264.989 41.9197 265.085 42.3722 265.085 42.929V48H263.633V46.956H263.574C263.478 47.1482 263.333 47.3371 263.141 47.5227C262.949 47.7083 262.702 47.8625 262.4 47.9851C262.099 48.1077 261.737 48.169 261.317 48.169ZM261.64 46.9759C262.051 46.9759 262.402 46.8946 262.694 46.7322C262.989 46.5698 263.212 46.3577 263.365 46.0959C263.521 45.8307 263.598 45.5473 263.598 45.2457V44.2614C263.545 44.3144 263.443 44.3641 263.29 44.4105C263.141 44.4536 262.97 44.4917 262.778 44.5249C262.586 44.5547 262.399 44.5829 262.216 44.6094C262.034 44.6326 261.882 44.6525 261.759 44.669C261.471 44.7055 261.207 44.7668 260.969 44.853C260.733 44.9392 260.544 45.0634 260.402 45.2259C260.263 45.3849 260.193 45.5971 260.193 45.8622C260.193 46.2301 260.329 46.5085 260.601 46.6974C260.872 46.883 261.219 46.9759 261.64 46.9759ZM270.002 48.1541C269.262 48.1541 268.626 47.9867 268.092 47.652C267.562 47.3139 267.154 46.8482 266.869 46.255C266.584 45.6617 266.442 44.9822 266.442 44.2166C266.442 43.4411 266.588 42.7566 266.879 42.1634C267.171 41.5668 267.582 41.1011 268.112 40.7663C268.643 40.4316 269.267 40.2642 269.987 40.2642C270.567 40.2642 271.084 40.3719 271.538 40.5874C271.992 40.7995 272.358 41.0978 272.636 41.4822C272.918 41.8667 273.086 42.3158 273.139 42.8295H271.692C271.612 42.4716 271.43 42.1634 271.145 41.9048C270.863 41.6463 270.485 41.517 270.011 41.517C269.597 41.517 269.234 41.6264 268.923 41.8452C268.614 42.0606 268.374 42.3688 268.202 42.7699C268.029 43.1676 267.943 43.6383 267.943 44.1818C267.943 44.7386 268.028 45.2192 268.197 45.6236C268.366 46.0279 268.605 46.3411 268.913 46.5632C269.224 46.7853 269.591 46.8963 270.011 46.8963C270.293 46.8963 270.548 46.8449 270.777 46.7422C271.009 46.6361 271.203 46.4853 271.359 46.2898C271.518 46.0942 271.629 45.8589 271.692 45.5838H273.139C273.086 46.0777 272.925 46.5185 272.656 46.9062C272.388 47.294 272.028 47.599 271.578 47.821C271.13 48.0431 270.605 48.1541 270.002 48.1541ZM275.935 43.4659V48H274.448V37.8182H275.915V41.6065H276.009C276.188 41.1955 276.462 40.8691 276.83 40.6271C277.198 40.3852 277.678 40.2642 278.271 40.2642C278.795 40.2642 279.252 40.3719 279.644 40.5874C280.038 40.8028 280.343 41.1243 280.558 41.5518C280.777 41.9761 280.886 42.5064 280.886 43.1428V48H279.4V43.3217C279.4 42.7616 279.256 42.3274 278.967 42.0192C278.679 41.7076 278.278 41.5518 277.764 41.5518C277.413 41.5518 277.098 41.6264 276.82 41.7756C276.545 41.9247 276.328 42.1435 276.168 42.4318C276.013 42.7169 275.935 43.0616 275.935 43.4659ZM282.59 48V40.3636H284.077V48H282.59ZM283.341 39.1854C283.082 39.1854 282.86 39.0992 282.675 38.9268C282.492 38.7512 282.401 38.5424 282.401 38.3004C282.401 38.0552 282.492 37.8464 282.675 37.674C282.86 37.4983 283.082 37.4105 283.341 37.4105C283.599 37.4105 283.82 37.4983 284.002 37.674C284.188 37.8464 284.28 38.0552 284.28 38.3004C284.28 38.5424 284.188 38.7512 284.002 38.9268C283.82 39.0992 283.599 39.1854 283.341 39.1854ZM289.088 48.1541C288.335 48.1541 287.687 47.9934 287.144 47.6719C286.604 47.3471 286.186 46.8913 285.891 46.3047C285.599 45.7147 285.453 45.0237 285.453 44.2315C285.453 43.4493 285.599 42.7599 285.891 42.1634C286.186 41.5668 286.597 41.1011 287.124 40.7663C287.654 40.4316 288.274 40.2642 288.983 40.2642C289.414 40.2642 289.832 40.3355 290.236 40.478C290.64 40.6205 291.003 40.8442 291.325 41.1491C291.646 41.4541 291.9 41.8501 292.086 42.3374C292.271 42.8213 292.364 43.4096 292.364 44.1023V44.6293H286.294V43.5156H290.907C290.907 43.1245 290.828 42.7782 290.669 42.4766C290.51 42.1716 290.286 41.9313 289.997 41.7557C289.712 41.58 289.378 41.4922 288.993 41.4922C288.576 41.4922 288.211 41.5949 287.899 41.8004C287.591 42.0026 287.353 42.2678 287.184 42.5959C287.018 42.9207 286.935 43.2737 286.935 43.6548V44.5249C286.935 45.0353 287.024 45.4695 287.203 45.8274C287.386 46.1854 287.639 46.4588 287.964 46.6477C288.289 46.8333 288.668 46.9261 289.103 46.9261C289.384 46.9261 289.641 46.8864 289.873 46.8068C290.105 46.724 290.306 46.6013 290.475 46.4389C290.644 46.2765 290.773 46.076 290.863 45.8374L292.269 46.0909C292.157 46.5052 291.955 46.8681 291.663 47.1797C291.375 47.4879 291.012 47.7282 290.574 47.9006C290.14 48.0696 289.644 48.1541 289.088 48.1541ZM300.047 40.3636L297.278 48H295.687L292.913 40.3636H294.509L296.443 46.2401H296.522L298.451 40.3636H300.047ZM304.196 48.1541C303.443 48.1541 302.795 47.9934 302.252 47.6719C301.711 47.3471 301.294 46.8913 300.999 46.3047C300.707 45.7147 300.561 45.0237 300.561 44.2315C300.561 43.4493 300.707 42.7599 300.999 42.1634C301.294 41.5668 301.705 41.1011 302.232 40.7663C302.762 40.4316 303.382 40.2642 304.091 40.2642C304.522 40.2642 304.94 40.3355 305.344 40.478C305.748 40.6205 306.111 40.8442 306.433 41.1491C306.754 41.4541 307.008 41.8501 307.194 42.3374C307.379 42.8213 307.472 43.4096 307.472 44.1023V44.6293H301.402V43.5156H306.015C306.015 43.1245 305.936 42.7782 305.777 42.4766C305.618 42.1716 305.394 41.9313 305.105 41.7557C304.82 41.58 304.486 41.4922 304.101 41.4922C303.684 41.4922 303.319 41.5949 303.007 41.8004C302.699 42.0026 302.461 42.2678 302.292 42.5959C302.126 42.9207 302.043 43.2737 302.043 43.6548V44.5249C302.043 45.0353 302.132 45.4695 302.311 45.8274C302.494 46.1854 302.747 46.4588 303.072 46.6477C303.397 46.8333 303.776 46.9261 304.211 46.9261C304.492 46.9261 304.749 46.8864 304.981 46.8068C305.213 46.724 305.414 46.6013 305.583 46.4389C305.752 46.2765 305.881 46.076 305.97 45.8374L307.377 46.0909C307.265 46.5052 307.063 46.8681 306.771 47.1797C306.483 47.4879 306.12 47.7282 305.682 47.9006C305.248 48.0696 304.752 48.1541 304.196 48.1541ZM311.7 48.1491C311.083 48.1491 310.533 47.9917 310.049 47.6768C309.569 47.3587 309.191 46.9062 308.916 46.3196C308.644 45.7296 308.508 45.022 308.508 44.1967C308.508 43.3714 308.646 42.6655 308.921 42.0788C309.199 41.4922 309.58 41.0431 310.064 40.7315C310.548 40.42 311.097 40.2642 311.71 40.2642C312.184 40.2642 312.565 40.3438 312.853 40.5028C313.145 40.6586 313.37 40.8409 313.529 41.0497C313.692 41.2585 313.818 41.4425 313.907 41.6016H313.997V37.8182H315.483V48H314.032V46.8118H313.907C313.818 46.9742 313.689 47.1598 313.52 47.3686C313.354 47.5774 313.125 47.7597 312.833 47.9155C312.542 48.0713 312.164 48.1491 311.7 48.1491ZM312.028 46.8814C312.456 46.8814 312.817 46.7687 313.112 46.5433C313.41 46.3146 313.636 45.9981 313.788 45.5938C313.944 45.1894 314.022 44.7187 314.022 44.1818C314.022 43.6515 313.945 43.1875 313.793 42.7898C313.64 42.392 313.417 42.0821 313.122 41.8601C312.827 41.638 312.462 41.527 312.028 41.527C311.581 41.527 311.208 41.643 310.909 41.875C310.611 42.107 310.386 42.4235 310.233 42.8246C310.084 43.2256 310.01 43.678 310.01 44.1818C310.01 44.6922 310.086 45.1513 310.238 45.5589C310.391 45.9666 310.616 46.2898 310.914 46.5284C311.216 46.7637 311.587 46.8814 312.028 46.8814Z" fill="#1D2939"/>
<path d="M134 78.5C136.209 78.5 138.016 76.7064 137.845 74.5039C137.331 67.9046 135.549 61.4531 132.583 55.5078C129.02 48.3669 123.846 42.1518 117.47 37.3527C111.094 32.5537 103.69 29.3021 95.8421 27.8544C89.3081 26.6492 82.6154 26.7219 76.1316 28.0545C73.9677 28.4993 72.7442 30.732 73.3556 32.8549L77.469 47.1392C78.0804 49.2621 80.2972 50.4576 82.4845 50.1478C85.5361 49.7156 88.6463 49.7776 91.6944 50.3399C96.0581 51.1448 100.175 52.9528 103.72 55.6212C107.265 58.2896 110.142 61.7453 112.123 65.7158C113.507 68.4893 114.427 71.4609 114.856 74.5129C115.164 76.7006 116.926 78.5 119.135 78.5H134Z" fill="#E9D7FE"/>
<path d="M70.4124 33.8073C69.6642 31.7287 67.3646 30.636 65.3503 31.5432C58.8541 34.4691 53.0349 38.7117 48.2624 44.0017C46.7825 45.6419 47.1195 48.1656 48.8696 49.5137L60.6458 58.5848C62.3959 59.9329 64.8901 59.5827 66.4687 58.0373C68.447 56.1007 70.6959 54.4611 73.1447 53.17C75.0988 52.1396 76.1951 49.8722 75.4469 47.7936L70.4124 33.8073Z" fill="#0086C9"/>
<path d="M47.0916 51.9816C45.2587 50.7483 42.7582 51.2275 41.6708 53.1505C38.6314 58.5255 36.578 64.4132 35.6196 70.5352C34.6613 76.6572 34.8173 82.8908 36.0688 88.9374C36.5165 91.1007 38.7509 92.3211 40.873 91.7069L55.1516 87.5739C57.2737 86.9597 58.4661 84.7412 58.1533 82.5543C57.7518 79.7469 57.7685 76.8879 58.2094 74.0714C58.6502 71.2549 59.508 68.5275 60.7483 65.9771C61.7144 63.9904 61.257 61.5137 59.4242 60.2804L47.0916 51.9816Z" fill="#4BC286"/>
<path d="M41.8284 94.646C39.7508 95.3969 38.661 97.698 39.5709 99.7111C43.2271 107.801 48.9236 114.83 56.1297 120.092C63.3357 125.354 71.7658 128.64 80.5846 129.659C82.7791 129.913 84.6391 128.174 84.7218 125.967L85.2783 111.112C85.361 108.905 83.6287 107.076 81.4542 106.687C77.1913 105.924 73.1389 104.2 69.6134 101.626C66.0879 99.0518 63.2123 95.7166 61.1875 91.8885C60.1546 89.9356 57.8857 88.8423 55.8081 89.5932L41.8284 94.646Z" fill="#B692F6"/>
<g filter="url(#filter1_d_1_45784)">
<path d="M89 130C89 132.209 90.7935 134.016 92.9961 133.846C98.4564 133.425 103.825 132.144 108.9 130.042C115.208 127.428 120.941 123.598 125.77 118.77C130.598 113.941 134.428 108.208 137.042 101.9C139.144 96.8245 140.425 91.4564 140.846 85.9961C141.016 83.7935 139.209 82 137 82H117.849C115.64 82 113.882 83.8022 113.528 85.9828C113.221 87.8751 112.695 89.7299 111.958 91.5093C110.709 94.5241 108.878 97.2635 106.571 99.5709C104.263 101.878 101.524 103.709 98.5093 104.958C96.7299 105.695 94.8751 106.221 92.9828 106.528C90.8022 106.882 89 108.64 89 110.849L89 130Z" fill="#6941C6"/>
</g>
<circle cx="175.5" cy="75" r="3.5" fill="#6941C6"/>
<path d="M186.886 79H185.238L187.749 71.7273H189.73L192.237 79H190.589L188.768 73.3892H188.711L186.886 79ZM186.783 76.1413H190.675V77.3416H186.783V76.1413ZM197.296 75.1009L195.911 75.1861C195.887 75.0677 195.836 74.9612 195.758 74.8665C195.68 74.7694 195.577 74.6925 195.449 74.6357C195.323 74.5765 195.173 74.5469 194.998 74.5469C194.764 74.5469 194.566 74.5966 194.405 74.696C194.244 74.7931 194.163 74.9233 194.163 75.0866C194.163 75.2169 194.216 75.3269 194.32 75.4169C194.424 75.5069 194.603 75.5791 194.856 75.6335L195.843 75.8324C196.373 75.9413 196.769 76.1165 197.029 76.358C197.29 76.5994 197.42 76.9167 197.42 77.3097C197.42 77.6671 197.315 77.9808 197.104 78.2507C196.895 78.5206 196.609 78.7313 196.244 78.8828C195.882 79.032 195.464 79.1065 194.991 79.1065C194.269 79.1065 193.694 78.9562 193.265 78.6555C192.839 78.3525 192.589 77.9406 192.516 77.4197L194.004 77.3416C194.049 77.5618 194.158 77.7299 194.33 77.8459C194.503 77.9595 194.725 78.0163 194.994 78.0163C195.26 78.0163 195.473 77.9654 195.634 77.8636C195.797 77.7595 195.88 77.6257 195.882 77.4624C195.88 77.325 195.822 77.2126 195.708 77.125C195.595 77.035 195.419 76.9664 195.183 76.919L194.238 76.7308C193.705 76.6243 193.309 76.4396 193.048 76.1768C192.79 75.9141 192.661 75.5791 192.661 75.1719C192.661 74.8215 192.756 74.5196 192.945 74.2663C193.137 74.013 193.406 73.8177 193.752 73.6804C194.1 73.5431 194.507 73.4744 194.973 73.4744C195.662 73.4744 196.204 73.62 196.6 73.9112C196.997 74.2024 197.229 74.599 197.296 75.1009ZM202.711 75.1009L201.326 75.1861C201.302 75.0677 201.251 74.9612 201.173 74.8665C201.095 74.7694 200.992 74.6925 200.864 74.6357C200.739 74.5765 200.588 74.5469 200.413 74.5469C200.179 74.5469 199.981 74.5966 199.82 74.696C199.659 74.7931 199.579 74.9233 199.579 75.0866C199.579 75.2169 199.631 75.3269 199.735 75.4169C199.839 75.5069 200.018 75.5791 200.271 75.6335L201.258 75.8324C201.789 75.9413 202.184 76.1165 202.444 76.358C202.705 76.5994 202.835 76.9167 202.835 77.3097C202.835 77.6671 202.73 77.9808 202.519 78.2507C202.311 78.5206 202.024 78.7313 201.66 78.8828C201.297 79.032 200.88 79.1065 200.406 79.1065C199.684 79.1065 199.109 78.9562 198.68 78.6555C198.254 78.3525 198.004 77.9406 197.931 77.4197L199.419 77.3416C199.464 77.5618 199.573 77.7299 199.746 77.8459C199.918 77.9595 200.14 78.0163 200.41 78.0163C200.675 78.0163 200.888 77.9654 201.049 77.8636C201.212 77.7595 201.295 77.6257 201.297 77.4624C201.295 77.325 201.237 77.2126 201.123 77.125C201.01 77.035 200.835 76.9664 200.598 76.919L199.653 76.7308C199.121 76.6243 198.724 76.4396 198.464 76.1768C198.206 75.9141 198.077 75.5791 198.077 75.1719C198.077 74.8215 198.171 74.5196 198.361 74.2663C198.552 74.013 198.821 73.8177 199.167 73.6804C199.515 73.5431 199.922 73.4744 200.388 73.4744C201.077 73.4744 201.619 73.62 202.015 73.9112C202.413 74.2024 202.645 74.599 202.711 75.1009ZM203.588 79V73.5455H205.1V79H203.588ZM204.348 72.8423C204.123 72.8423 203.93 72.7678 203.769 72.6186C203.61 72.4671 203.531 72.286 203.531 72.0753C203.531 71.867 203.61 71.6882 203.769 71.5391C203.93 71.3875 204.123 71.3118 204.348 71.3118C204.573 71.3118 204.764 71.3875 204.923 71.5391C205.084 71.6882 205.164 71.867 205.164 72.0753C205.164 72.286 205.084 72.4671 204.923 72.6186C204.764 72.7678 204.573 72.8423 204.348 72.8423ZM208.57 81.1591C208.08 81.1591 207.659 81.0916 207.309 80.9567C206.961 80.8241 206.684 80.643 206.478 80.4134C206.272 80.1837 206.138 79.9257 206.077 79.6392L207.476 79.451C207.519 79.5599 207.586 79.6617 207.678 79.7564C207.771 79.8511 207.893 79.9268 208.044 79.9837C208.198 80.0429 208.385 80.0724 208.605 80.0724C208.934 80.0724 209.205 79.992 209.418 79.831C209.634 79.6723 209.742 79.406 209.742 79.032V78.0341H209.678C209.611 78.1856 209.512 78.3288 209.379 78.4638C209.247 78.5987 209.076 78.7088 208.868 78.794C208.66 78.8793 208.411 78.9219 208.122 78.9219C207.713 78.9219 207.34 78.8272 207.004 78.6378C206.67 78.446 206.403 78.1536 206.205 77.7607C206.008 77.3653 205.91 76.8658 205.91 76.2621C205.91 75.6442 206.01 75.1281 206.212 74.7138C206.413 74.2995 206.68 73.9893 207.014 73.7834C207.35 73.5774 207.719 73.4744 208.119 73.4744C208.424 73.4744 208.68 73.5265 208.886 73.6307C209.092 73.7325 209.257 73.8603 209.383 74.0142C209.511 74.1657 209.609 74.3149 209.678 74.4616H209.734V73.5455H211.237V79.0533C211.237 79.5173 211.123 79.9055 210.896 80.218C210.668 80.5305 210.354 80.7649 209.951 80.9212C209.551 81.0798 209.091 81.1591 208.57 81.1591ZM208.602 77.7855C208.845 77.7855 209.051 77.7251 209.22 77.6044C209.39 77.4813 209.52 77.3061 209.61 77.0788C209.702 76.8492 209.749 76.5746 209.749 76.255C209.749 75.9354 209.704 75.6584 209.614 75.424C209.524 75.1873 209.394 75.0038 209.223 74.8736C209.053 74.7434 208.845 74.6783 208.602 74.6783C208.353 74.6783 208.144 74.7457 207.973 74.8807C207.803 75.0133 207.674 75.1979 207.586 75.4347C207.498 75.6714 207.455 75.9448 207.455 76.255C207.455 76.5698 207.498 76.8421 207.586 77.0717C207.676 77.299 207.805 77.4754 207.973 77.6009C208.144 77.724 208.353 77.7855 208.602 77.7855ZM213.753 75.8466V79H212.24V73.5455H213.682V74.5078H213.746C213.867 74.1906 214.069 73.9396 214.353 73.755C214.637 73.5679 214.982 73.4744 215.387 73.4744C215.766 73.4744 216.096 73.5573 216.377 73.723C216.659 73.8887 216.878 74.1255 217.034 74.4332C217.191 74.7386 217.269 75.1032 217.269 75.527V79H215.756V75.7969C215.758 75.4631 215.673 75.2027 215.5 75.0156C215.328 74.8262 215.09 74.7315 214.787 74.7315C214.583 74.7315 214.403 74.7753 214.247 74.8629C214.093 74.9505 213.972 75.0784 213.885 75.2464C213.799 75.4122 213.756 75.6122 213.753 75.8466ZM218.261 79V73.5455H219.703V74.5078H219.767C219.88 74.1882 220.07 73.9361 220.335 73.7514C220.6 73.5668 220.917 73.4744 221.287 73.4744C221.661 73.4744 221.979 73.5679 222.242 73.755C222.505 73.9396 222.68 74.1906 222.768 74.5078H222.824C222.936 74.1953 223.137 73.9455 223.428 73.7585C223.722 73.5691 224.068 73.4744 224.469 73.4744C224.977 73.4744 225.391 73.6366 225.708 73.9609C226.027 74.2829 226.187 74.7398 226.187 75.3317V79H224.678V75.63C224.678 75.3269 224.598 75.0997 224.437 74.9482C224.276 74.7966 224.074 74.7209 223.833 74.7209C223.558 74.7209 223.344 74.8085 223.19 74.9837C223.036 75.1565 222.959 75.3849 222.959 75.669V79H221.493V75.598C221.493 75.3305 221.416 75.1174 221.262 74.9588C221.11 74.8002 220.91 74.7209 220.662 74.7209C220.494 74.7209 220.342 74.7635 220.207 74.8487C220.075 74.9316 219.969 75.0488 219.891 75.2003C219.813 75.3494 219.774 75.5246 219.774 75.7259V79H218.261ZM229.668 79.1065C229.107 79.1065 228.624 78.9929 228.219 78.7656C227.817 78.536 227.507 78.2116 227.289 77.7926C227.071 77.3712 226.962 76.8729 226.962 76.2976C226.962 75.7365 227.071 75.2441 227.289 74.8203C227.507 74.3965 227.813 74.0663 228.208 73.8295C228.606 73.5928 229.073 73.4744 229.608 73.4744C229.967 73.4744 230.302 73.5324 230.613 73.6484C230.925 73.7621 231.197 73.9337 231.429 74.1634C231.664 74.393 231.846 74.6818 231.976 75.0298C232.106 75.3755 232.172 75.7803 232.172 76.2443V76.6598H227.566V75.7223H230.748C230.748 75.5045 230.7 75.3116 230.606 75.1435C230.511 74.9754 230.379 74.844 230.211 74.7493C230.046 74.6522 229.853 74.6037 229.632 74.6037C229.403 74.6037 229.199 74.657 229.022 74.7635C228.847 74.8677 228.709 75.0085 228.61 75.1861C228.51 75.3613 228.459 75.5566 228.457 75.772V76.6634C228.457 76.9332 228.507 77.1664 228.606 77.3629C228.708 77.5594 228.851 77.7109 229.036 77.8175C229.221 77.924 229.44 77.9773 229.693 77.9773C229.861 77.9773 230.015 77.9536 230.155 77.9062C230.294 77.8589 230.414 77.7879 230.513 77.6932C230.613 77.5985 230.688 77.4825 230.74 77.3452L232.14 77.4375C232.069 77.7737 231.923 78.0672 231.703 78.3182C231.485 78.5668 231.203 78.7609 230.858 78.9006C230.514 79.0379 230.118 79.1065 229.668 79.1065ZM234.472 75.8466V79H232.959V73.5455H234.401V74.5078H234.464C234.585 74.1906 234.788 73.9396 235.072 73.755C235.356 73.5679 235.7 73.4744 236.105 73.4744C236.484 73.4744 236.814 73.5573 237.096 73.723C237.378 73.8887 237.597 74.1255 237.753 74.4332C237.909 74.7386 237.987 75.1032 237.987 75.527V79H236.474V75.7969C236.477 75.4631 236.392 75.2027 236.219 75.0156C236.046 74.8262 235.808 74.7315 235.505 74.7315C235.301 74.7315 235.121 74.7753 234.965 74.8629C234.811 74.9505 234.691 75.0784 234.603 75.2464C234.518 75.4122 234.474 75.6122 234.472 75.8466ZM241.881 73.5455V74.6818H238.596V73.5455H241.881ZM239.342 72.2386H240.854V77.3239C240.854 77.4635 240.876 77.5724 240.918 77.6506C240.961 77.7263 241.02 77.7796 241.096 77.8104C241.174 77.8411 241.264 77.8565 241.366 77.8565C241.437 77.8565 241.508 77.8506 241.579 77.8388C241.65 77.8246 241.704 77.8139 241.742 77.8068L241.98 78.9325C241.904 78.9562 241.798 78.9834 241.661 79.0142C241.523 79.0473 241.356 79.0675 241.16 79.0746C240.795 79.0888 240.476 79.0402 240.201 78.929C239.929 78.8177 239.717 78.6449 239.565 78.4105C239.414 78.1761 239.339 77.8802 239.342 77.5227V72.2386ZM247.136 75.1009L245.751 75.1861C245.728 75.0677 245.677 74.9612 245.599 74.8665C245.52 74.7694 245.417 74.6925 245.29 74.6357C245.164 74.5765 245.014 74.5469 244.839 74.5469C244.604 74.5469 244.407 74.5966 244.246 74.696C244.085 74.7931 244.004 74.9233 244.004 75.0866C244.004 75.2169 244.056 75.3269 244.16 75.4169C244.265 75.5069 244.443 75.5791 244.697 75.6335L245.684 75.8324C246.214 75.9413 246.609 76.1165 246.87 76.358C247.13 76.5994 247.26 76.9167 247.26 77.3097C247.26 77.6671 247.155 77.9808 246.944 78.2507C246.736 78.5206 246.45 78.7313 246.085 78.8828C245.723 79.032 245.305 79.1065 244.831 79.1065C244.109 79.1065 243.534 78.9562 243.106 78.6555C242.68 78.3525 242.43 77.9406 242.356 77.4197L243.844 77.3416C243.889 77.5618 243.998 77.7299 244.171 77.8459C244.344 77.9595 244.565 78.0163 244.835 78.0163C245.1 78.0163 245.313 77.9654 245.474 77.8636C245.638 77.7595 245.72 77.6257 245.723 77.4624C245.72 77.325 245.662 77.2126 245.549 77.125C245.435 77.035 245.26 76.9664 245.023 76.919L244.079 76.7308C243.546 76.6243 243.149 76.4396 242.889 76.1768C242.631 75.9141 242.502 75.5791 242.502 75.1719C242.502 74.8215 242.597 74.5196 242.786 74.2663C242.978 74.013 243.247 73.8177 243.592 73.6804C243.94 73.5431 244.347 73.4744 244.814 73.4744C245.503 73.4744 246.045 73.62 246.44 73.9112C246.838 74.2024 247.07 74.599 247.136 75.1009Z" fill="#6941C6"/>
<circle cx="261.5" cy="75" r="3.5" fill="#D6BBFB"/>
<path d="M271.799 79V71.7273H272.896V74.8878H276.522V71.7273H277.623V79H276.522V75.8288H272.896V79H271.799ZM281.233 79.1101C280.722 79.1101 280.276 78.9929 279.894 78.7585C279.513 78.5241 279.217 78.1963 279.007 77.7749C278.796 77.3535 278.691 76.861 278.691 76.2976C278.691 75.7318 278.796 75.237 279.007 74.8132C279.217 74.3894 279.513 74.0604 279.894 73.826C280.276 73.5916 280.722 73.4744 281.233 73.4744C281.745 73.4744 282.191 73.5916 282.572 73.826C282.953 74.0604 283.249 74.3894 283.46 74.8132C283.671 75.237 283.776 75.7318 283.776 76.2976C283.776 76.861 283.671 77.3535 283.46 77.7749C283.249 78.1963 282.953 78.5241 282.572 78.7585C282.191 78.9929 281.745 79.1101 281.233 79.1101ZM281.237 78.2188C281.568 78.2188 281.843 78.1312 282.061 77.956C282.278 77.7808 282.439 77.5476 282.544 77.2564C282.65 76.9652 282.703 76.6444 282.703 76.294C282.703 75.946 282.65 75.6264 282.544 75.3352C282.439 75.0417 282.278 74.8061 282.061 74.6286C281.843 74.451 281.568 74.3622 281.237 74.3622C280.903 74.3622 280.626 74.451 280.406 74.6286C280.188 74.8061 280.026 75.0417 279.919 75.3352C279.815 75.6264 279.763 75.946 279.763 76.294C279.763 76.6444 279.815 76.9652 279.919 77.2564C280.026 77.5476 280.188 77.7808 280.406 77.956C280.626 78.1312 280.903 78.2188 281.237 78.2188ZM288.216 76.7379V73.5455H289.282V79H288.238V78.0554H288.181C288.055 78.3466 287.854 78.5893 287.577 78.7834C287.302 78.9751 286.96 79.071 286.551 79.071C286.2 79.071 285.89 78.9941 285.62 78.8402C285.353 78.6839 285.142 78.4531 284.988 78.1477C284.837 77.8423 284.761 77.4647 284.761 77.0149V73.5455H285.823V76.8871C285.823 77.2588 285.926 77.5547 286.132 77.7749C286.338 77.995 286.605 78.1051 286.934 78.1051C287.133 78.1051 287.331 78.0554 287.527 77.956C287.726 77.8565 287.891 77.7062 288.021 77.505C288.154 77.3037 288.219 77.0481 288.216 76.7379ZM294.596 74.8771L293.633 75.0476C293.593 74.9245 293.529 74.8073 293.442 74.696C293.356 74.5848 293.24 74.4936 293.094 74.4226C292.947 74.3516 292.763 74.3161 292.543 74.3161C292.242 74.3161 291.992 74.3835 291.79 74.5185C291.589 74.651 291.488 74.8227 291.488 75.0334C291.488 75.2157 291.556 75.3625 291.691 75.4737C291.826 75.585 292.044 75.6761 292.344 75.7472L293.211 75.946C293.713 76.062 294.087 76.2408 294.333 76.4822C294.579 76.7237 294.702 77.0374 294.702 77.4233C294.702 77.75 294.608 78.0412 294.418 78.2969C294.231 78.5502 293.969 78.7491 293.633 78.8935C293.3 79.0379 292.912 79.1101 292.472 79.1101C291.861 79.1101 291.363 78.9799 290.977 78.7195C290.591 78.4567 290.354 78.0838 290.267 77.6009L291.293 77.4446C291.357 77.7121 291.488 77.9145 291.687 78.0518C291.886 78.1868 292.145 78.2543 292.465 78.2543C292.813 78.2543 293.091 78.1821 293.3 78.0376C293.508 77.8909 293.612 77.7121 293.612 77.5014C293.612 77.331 293.548 77.1877 293.42 77.0717C293.295 76.9557 293.102 76.8681 292.841 76.8089L291.918 76.6065C291.409 76.4905 291.033 76.3059 290.789 76.0526C290.547 75.7992 290.427 75.4785 290.427 75.0902C290.427 74.7682 290.517 74.4865 290.697 74.245C290.876 74.0036 291.125 73.8153 291.442 73.6804C291.759 73.5431 292.123 73.4744 292.532 73.4744C293.122 73.4744 293.586 73.6023 293.925 73.858C294.263 74.1113 294.487 74.451 294.596 74.8771ZM298.02 79.1101C297.483 79.1101 297.02 78.9953 296.632 78.7656C296.246 78.5336 295.948 78.2081 295.737 77.7891C295.529 77.3677 295.425 76.8741 295.425 76.3082C295.425 75.7495 295.529 75.2571 295.737 74.831C295.948 74.4048 296.241 74.0722 296.618 73.8331C296.997 73.594 297.439 73.4744 297.946 73.4744C298.254 73.4744 298.552 73.5253 298.841 73.6271C299.13 73.7289 299.389 73.8887 299.619 74.1065C299.848 74.3243 300.029 74.6072 300.162 74.9553C300.294 75.3009 300.361 75.7211 300.361 76.2159V76.5923H296.025V75.7969H299.32C299.32 75.5175 299.263 75.2701 299.15 75.0547C299.036 74.8369 298.876 74.6652 298.67 74.5398C298.467 74.4143 298.228 74.3516 297.953 74.3516C297.655 74.3516 297.394 74.425 297.172 74.5717C296.952 74.7161 296.781 74.9055 296.66 75.1399C296.542 75.3719 296.483 75.6241 296.483 75.8963V76.5178C296.483 76.8823 296.547 77.1925 296.675 77.4482C296.805 77.7038 296.986 77.8991 297.218 78.0341C297.45 78.1667 297.721 78.233 298.031 78.233C298.232 78.233 298.416 78.2045 298.582 78.1477C298.747 78.0885 298.891 78.0009 299.011 77.8849C299.132 77.7689 299.224 77.6257 299.288 77.4553L300.293 77.6364C300.213 77.9323 300.068 78.1915 299.86 78.4141C299.654 78.6342 299.395 78.8059 299.082 78.929C298.772 79.0497 298.418 79.1101 298.02 79.1101ZM309.911 74.0923H308.803C308.76 73.8556 308.681 73.6473 308.565 73.4673C308.449 73.2874 308.307 73.1347 308.139 73.0092C307.971 72.8838 307.783 72.7891 307.574 72.7251C307.368 72.6612 307.149 72.6293 306.917 72.6293C306.498 72.6293 306.123 72.7346 305.792 72.9453C305.463 73.156 305.202 73.465 305.01 73.8722C304.821 74.2794 304.726 74.7765 304.726 75.3636C304.726 75.9555 304.821 76.455 305.01 76.8622C305.202 77.2694 305.464 77.5772 305.795 77.7855C306.127 77.9938 306.5 78.098 306.914 78.098C307.143 78.098 307.361 78.0672 307.567 78.0057C307.776 77.9418 307.964 77.8482 308.132 77.7251C308.3 77.602 308.442 77.4517 308.558 77.2741C308.676 77.0942 308.758 76.8883 308.803 76.6562L309.911 76.6598C309.852 77.0173 309.737 77.3464 309.567 77.647C309.398 77.9453 309.182 78.2034 308.917 78.4212C308.654 78.6366 308.353 78.8035 308.015 78.9219C307.676 79.0402 307.307 79.0994 306.907 79.0994C306.277 79.0994 305.716 78.9503 305.223 78.652C304.731 78.3513 304.343 77.9216 304.059 77.3629C303.777 76.8042 303.636 76.1378 303.636 75.3636C303.636 74.5871 303.778 73.9207 304.062 73.3643C304.346 72.8056 304.735 72.3771 305.227 72.0788C305.719 71.7782 306.279 71.6278 306.907 71.6278C307.293 71.6278 307.652 71.6835 307.986 71.7947C308.322 71.9036 308.624 72.0646 308.892 72.2777C309.159 72.4884 309.381 72.7464 309.556 73.0518C309.731 73.3549 309.849 73.7017 309.911 74.0923ZM312.001 75.7614V79H310.939V71.7273H311.986V74.4332H312.054C312.182 74.1397 312.377 73.9065 312.64 73.7337C312.903 73.5608 313.246 73.4744 313.67 73.4744C314.044 73.4744 314.37 73.5514 314.65 73.7053C314.931 73.8591 315.149 74.0888 315.303 74.3942C315.459 74.6972 315.537 75.076 315.537 75.5305V79H314.476V75.6584C314.476 75.2583 314.373 74.9482 314.167 74.728C313.961 74.5054 313.674 74.3942 313.307 74.3942C313.056 74.3942 312.832 74.4474 312.633 74.554C312.436 74.6605 312.281 74.8168 312.167 75.0227C312.056 75.2263 312.001 75.4725 312.001 75.7614ZM319.052 79.1101C318.541 79.1101 318.094 78.9929 317.713 78.7585C317.332 78.5241 317.036 78.1963 316.825 77.7749C316.615 77.3535 316.509 76.861 316.509 76.2976C316.509 75.7318 316.615 75.237 316.825 74.8132C317.036 74.3894 317.332 74.0604 317.713 73.826C318.094 73.5916 318.541 73.4744 319.052 73.4744C319.563 73.4744 320.01 73.5916 320.391 73.826C320.772 74.0604 321.068 74.3894 321.279 74.8132C321.489 75.237 321.595 75.7318 321.595 76.2976C321.595 76.861 321.489 77.3535 321.279 77.7749C321.068 78.1963 320.772 78.5241 320.391 78.7585C320.01 78.9929 319.563 79.1101 319.052 79.1101ZM319.056 78.2188C319.387 78.2188 319.662 78.1312 319.879 77.956C320.097 77.7808 320.258 77.5476 320.362 77.2564C320.469 76.9652 320.522 76.6444 320.522 76.294C320.522 75.946 320.469 75.6264 320.362 75.3352C320.258 75.0417 320.097 74.8061 319.879 74.6286C319.662 74.451 319.387 74.3622 319.056 74.3622C318.722 74.3622 318.445 74.451 318.225 74.6286C318.007 74.8061 317.845 75.0417 317.738 75.3352C317.634 75.6264 317.582 75.946 317.582 76.294C317.582 76.6444 317.634 76.9652 317.738 77.2564C317.845 77.5476 318.007 77.7808 318.225 77.956C318.445 78.1312 318.722 78.2188 319.056 78.2188ZM322.58 79V73.5455H323.606V74.4119H323.663C323.762 74.1184 323.938 73.8875 324.188 73.7195C324.442 73.549 324.728 73.4638 325.048 73.4638C325.114 73.4638 325.192 73.4661 325.282 73.4709C325.375 73.4756 325.447 73.4815 325.499 73.4886V74.5043C325.456 74.4924 325.38 74.4794 325.272 74.4652C325.163 74.4486 325.054 74.4403 324.945 74.4403C324.694 74.4403 324.47 74.4936 324.274 74.6001C324.08 74.7043 323.926 74.8499 323.812 75.0369C323.698 75.2216 323.642 75.4323 323.642 75.669V79H322.58ZM328.373 79.1101C327.836 79.1101 327.373 78.9953 326.985 78.7656C326.599 78.5336 326.301 78.2081 326.09 77.7891C325.882 77.3677 325.777 76.8741 325.777 76.3082C325.777 75.7495 325.882 75.2571 326.09 74.831C326.301 74.4048 326.594 74.0722 326.971 73.8331C327.349 73.594 327.792 73.4744 328.299 73.4744C328.606 73.4744 328.905 73.5253 329.194 73.6271C329.482 73.7289 329.742 73.8887 329.971 74.1065C330.201 74.3243 330.382 74.6072 330.515 74.9553C330.647 75.3009 330.713 75.7211 330.713 76.2159V76.5923H326.377V75.7969H329.673C329.673 75.5175 329.616 75.2701 329.502 75.0547C329.389 74.8369 329.229 74.6652 329.023 74.5398C328.819 74.4143 328.58 74.3516 328.306 74.3516C328.007 74.3516 327.747 74.425 327.525 74.5717C327.304 74.7161 327.134 74.9055 327.013 75.1399C326.895 75.3719 326.836 75.6241 326.836 75.8963V76.5178C326.836 76.8823 326.9 77.1925 327.027 77.4482C327.158 77.7038 327.339 77.8991 327.571 78.0341C327.803 78.1667 328.074 78.233 328.384 78.233C328.585 78.233 328.769 78.2045 328.934 78.1477C329.1 78.0885 329.243 78.0009 329.364 77.8849C329.485 77.7689 329.577 77.6257 329.641 77.4553L330.646 77.6364C330.565 77.9323 330.421 78.1915 330.213 78.4141C330.007 78.6342 329.748 78.8059 329.435 78.929C329.125 79.0497 328.771 79.1101 328.373 79.1101ZM335.779 74.8771L334.817 75.0476C334.776 74.9245 334.712 74.8073 334.625 74.696C334.54 74.5848 334.424 74.4936 334.277 74.4226C334.13 74.3516 333.946 74.3161 333.726 74.3161C333.426 74.3161 333.175 74.3835 332.973 74.5185C332.772 74.651 332.672 74.8227 332.672 75.0334C332.672 75.2157 332.739 75.3625 332.874 75.4737C333.009 75.585 333.227 75.6761 333.527 75.7472L334.394 75.946C334.896 76.062 335.27 76.2408 335.516 76.4822C335.762 76.7237 335.885 77.0374 335.885 77.4233C335.885 77.75 335.791 78.0412 335.601 78.2969C335.414 78.5502 335.153 78.7491 334.817 78.8935C334.483 79.0379 334.096 79.1101 333.655 79.1101C333.044 79.1101 332.546 78.9799 332.16 78.7195C331.774 78.4567 331.538 78.0838 331.45 77.6009L332.476 77.4446C332.54 77.7121 332.672 77.9145 332.87 78.0518C333.069 78.1868 333.329 78.2543 333.648 78.2543C333.996 78.2543 334.274 78.1821 334.483 78.0376C334.691 77.8909 334.795 77.7121 334.795 77.5014C334.795 77.331 334.731 77.1877 334.603 77.0717C334.478 76.9557 334.285 76.8681 334.025 76.8089L333.101 76.6065C332.592 76.4905 332.216 76.3059 331.972 76.0526C331.731 75.7992 331.61 75.4785 331.61 75.0902C331.61 74.7682 331.7 74.4865 331.88 74.245C332.06 74.0036 332.308 73.8153 332.625 73.6804C332.943 73.5431 333.306 73.4744 333.716 73.4744C334.305 73.4744 334.769 73.6023 335.108 73.858C335.446 74.1113 335.67 74.451 335.779 74.8771Z" fill="#98A2B3"/>
<circle cx="175.5" cy="96" r="3.5" fill="#B692F6"/>
<path d="M188.473 97.642H189.553L190.312 98.6328L190.671 99.0732L191.882 100.653H190.76L189.95 99.5987L189.673 99.2152L188.473 97.642ZM192.116 96.3636C192.116 97.1402 191.974 97.8078 191.69 98.3665C191.406 98.9228 191.017 99.3513 190.522 99.652C190.03 99.9503 189.47 100.099 188.842 100.099C188.213 100.099 187.65 99.9503 187.156 99.652C186.663 99.3513 186.275 98.9216 185.991 98.3629C185.707 97.8042 185.565 97.1378 185.565 96.3636C185.565 95.5871 185.707 94.9207 185.991 94.3643C186.275 93.8056 186.663 93.3771 187.156 93.0788C187.65 92.7782 188.213 92.6278 188.842 92.6278C189.47 92.6278 190.03 92.7782 190.522 93.0788C191.017 93.3771 191.406 93.8056 191.69 94.3643C191.974 94.9207 192.116 95.5871 192.116 96.3636ZM191.03 96.3636C191.03 95.7718 190.934 95.2734 190.742 94.8686C190.553 94.4614 190.292 94.1536 189.961 93.9453C189.632 93.7346 189.259 93.6293 188.842 93.6293C188.423 93.6293 188.049 93.7346 187.72 93.9453C187.391 94.1536 187.131 94.4614 186.939 94.8686C186.75 95.2734 186.655 95.7718 186.655 96.3636C186.655 96.9555 186.75 97.455 186.939 97.8622C187.131 98.267 187.391 98.5748 187.72 98.7855C188.049 98.9938 188.423 99.098 188.842 99.098C189.259 99.098 189.632 98.9938 189.961 98.7855C190.292 98.5748 190.553 98.267 190.742 97.8622C190.934 97.455 191.03 96.9555 191.03 96.3636ZM196.655 97.7379V94.5455H197.72V100H196.676V99.0554H196.619C196.494 99.3466 196.292 99.5893 196.015 99.7834C195.741 99.9751 195.399 100.071 194.989 100.071C194.639 100.071 194.329 99.9941 194.059 99.8402C193.791 99.6839 193.58 99.4531 193.427 99.1477C193.275 98.8423 193.199 98.4647 193.199 98.0149V94.5455H194.261V97.8871C194.261 98.2588 194.364 98.5547 194.57 98.7749C194.776 98.995 195.044 99.1051 195.373 99.1051C195.571 99.1051 195.769 99.0554 195.966 98.956C196.165 98.8565 196.329 98.7062 196.459 98.505C196.592 98.3037 196.657 98.0481 196.655 97.7379ZM198.947 100V94.5455H200.008V100H198.947ZM199.483 93.7038C199.298 93.7038 199.14 93.6423 199.007 93.5192C198.877 93.3937 198.812 93.2446 198.812 93.0717C198.812 92.8965 198.877 92.7474 199.007 92.6243C199.14 92.4988 199.298 92.4361 199.483 92.4361C199.667 92.4361 199.825 92.4988 199.955 92.6243C200.088 92.7474 200.154 92.8965 200.154 93.0717C200.154 93.2446 200.088 93.3937 199.955 93.5192C199.825 93.6423 199.667 93.7038 199.483 93.7038ZM201.123 100V99.272L204.078 95.5185V95.4688H201.219V94.5455H205.402V95.3196L202.561 99.027V99.0767H205.502V100H201.123ZM206.441 100V99.272L209.395 95.5185V95.4688H206.537V94.5455H210.72V95.3196L207.879 99.027V99.0767H210.819V100H206.441ZM211.872 100V94.5455H212.934V100H211.872ZM212.408 93.7038C212.224 93.7038 212.065 93.6423 211.932 93.5192C211.802 93.3937 211.737 93.2446 211.737 93.0717C211.737 92.8965 211.802 92.7474 211.932 92.6243C212.065 92.4988 212.224 92.4361 212.408 92.4361C212.593 92.4361 212.75 92.4988 212.881 92.6243C213.013 92.7474 213.079 92.8965 213.079 93.0717C213.079 93.2446 213.013 93.3937 212.881 93.5192C212.75 93.6423 212.593 93.7038 212.408 93.7038ZM216.513 100.11C215.976 100.11 215.513 99.9953 215.125 99.7656C214.739 99.5336 214.44 99.2081 214.23 98.7891C214.021 98.3677 213.917 97.8741 213.917 97.3082C213.917 96.7495 214.021 96.2571 214.23 95.831C214.44 95.4048 214.734 95.0722 215.11 94.8331C215.489 94.594 215.932 94.4744 216.438 94.4744C216.746 94.4744 217.045 94.5253 217.333 94.6271C217.622 94.7289 217.881 94.8887 218.111 95.1065C218.341 95.3243 218.522 95.6072 218.654 95.9553C218.787 96.3009 218.853 96.7211 218.853 97.2159V97.5923H214.517V96.7969H217.813C217.813 96.5175 217.756 96.2701 217.642 96.0547C217.529 95.8369 217.369 95.6652 217.163 95.5398C216.959 95.4143 216.72 95.3516 216.446 95.3516C216.147 95.3516 215.887 95.425 215.664 95.5717C215.444 95.7161 215.274 95.9055 215.153 96.1399C215.035 96.3719 214.975 96.6241 214.975 96.8963V97.5178C214.975 97.8823 215.039 98.1925 215.167 98.4482C215.297 98.7038 215.479 98.8991 215.711 99.0341C215.943 99.1667 216.214 99.233 216.524 99.233C216.725 99.233 216.908 99.2045 217.074 99.1477C217.24 99.0885 217.383 99.0009 217.504 98.8849C217.625 98.7689 217.717 98.6257 217.781 98.4553L218.786 98.6364C218.705 98.9323 218.561 99.1915 218.353 99.4141C218.147 99.6342 217.887 99.8059 217.575 99.929C217.265 100.05 216.911 100.11 216.513 100.11ZM223.919 95.8771L222.956 96.0476C222.916 95.9245 222.852 95.8073 222.765 95.696C222.679 95.5848 222.563 95.4936 222.417 95.4226C222.27 95.3516 222.086 95.3161 221.866 95.3161C221.565 95.3161 221.315 95.3835 221.113 95.5185C220.912 95.651 220.811 95.8227 220.811 96.0334C220.811 96.2157 220.879 96.3625 221.014 96.4737C221.149 96.585 221.367 96.6761 221.667 96.7472L222.534 96.946C223.036 97.062 223.41 97.2408 223.656 97.4822C223.902 97.7237 224.025 98.0374 224.025 98.4233C224.025 98.75 223.931 99.0412 223.741 99.2969C223.554 99.5502 223.293 99.7491 222.956 99.8935C222.623 100.038 222.235 100.11 221.795 100.11C221.184 100.11 220.686 99.9799 220.3 99.7195C219.914 99.4567 219.677 99.0838 219.59 98.6009L220.616 98.4446C220.68 98.7121 220.811 98.9145 221.01 99.0518C221.209 99.1868 221.468 99.2543 221.788 99.2543C222.136 99.2543 222.414 99.1821 222.623 99.0376C222.831 98.8909 222.935 98.7121 222.935 98.5014C222.935 98.331 222.871 98.1877 222.743 98.0717C222.618 97.9557 222.425 97.8681 222.164 97.8089L221.241 97.6065C220.732 97.4905 220.356 97.3059 220.112 97.0526C219.87 96.7992 219.75 96.4785 219.75 96.0902C219.75 95.7682 219.84 95.4865 220.02 95.245C220.199 95.0036 220.448 94.8153 220.765 94.6804C221.083 94.5431 221.446 94.4744 221.856 94.4744C222.445 94.4744 222.909 94.6023 223.248 94.858C223.586 95.1113 223.81 95.451 223.919 95.8771Z" fill="#98A2B3"/>
<circle cx="261.5" cy="96" r="3.5" fill="#0086C9"/>
<path d="M271.799 92.7273H273.131L275.446 98.3807H275.531L277.847 92.7273H279.178V100H278.134V94.7372H278.067L275.922 99.9893H275.055L272.911 94.7337H272.843V100H271.799V92.7273ZM282.839 100.11C282.302 100.11 281.839 99.9953 281.451 99.7656C281.065 99.5336 280.767 99.2081 280.556 98.7891C280.348 98.3677 280.243 97.8741 280.243 97.3082C280.243 96.7495 280.348 96.2571 280.556 95.831C280.767 95.4048 281.06 95.0722 281.437 94.8331C281.815 94.594 282.258 94.4744 282.765 94.4744C283.072 94.4744 283.371 94.5253 283.66 94.6271C283.948 94.7289 284.208 94.8887 284.437 95.1065C284.667 95.3243 284.848 95.6072 284.981 95.9553C285.113 96.3009 285.179 96.7211 285.179 97.2159V97.5923H280.844V96.7969H284.139C284.139 96.5175 284.082 96.2701 283.969 96.0547C283.855 95.8369 283.695 95.6652 283.489 95.5398C283.285 95.4143 283.046 95.3516 282.772 95.3516C282.473 95.3516 282.213 95.425 281.991 95.5717C281.77 95.7161 281.6 95.9055 281.479 96.1399C281.361 96.3719 281.302 96.6241 281.302 96.8963V97.5178C281.302 97.8823 281.366 98.1925 281.493 98.4482C281.624 98.7038 281.805 98.8991 282.037 99.0341C282.269 99.1667 282.54 99.233 282.85 99.233C283.051 99.233 283.235 99.2045 283.4 99.1477C283.566 99.0885 283.709 99.0009 283.83 98.8849C283.951 98.7689 284.043 98.6257 284.107 98.4553L285.112 98.6364C285.031 98.9323 284.887 99.1915 284.679 99.4141C284.473 99.6342 284.214 99.8059 283.901 99.929C283.591 100.05 283.237 100.11 282.839 100.11ZM288.508 100.11C287.971 100.11 287.508 99.9953 287.12 99.7656C286.734 99.5336 286.436 99.2081 286.225 98.7891C286.017 98.3677 285.913 97.8741 285.913 97.3082C285.913 96.7495 286.017 96.2571 286.225 95.831C286.436 95.4048 286.729 95.0722 287.106 94.8331C287.484 94.594 287.927 94.4744 288.434 94.4744C288.742 94.4744 289.04 94.5253 289.329 94.6271C289.618 94.7289 289.877 94.8887 290.106 95.1065C290.336 95.3243 290.517 95.6072 290.65 95.9553C290.782 96.3009 290.849 96.7211 290.849 97.2159V97.5923H286.513V96.7969H289.808C289.808 96.5175 289.751 96.2701 289.638 96.0547C289.524 95.8369 289.364 95.6652 289.158 95.5398C288.955 95.4143 288.716 95.3516 288.441 95.3516C288.143 95.3516 287.882 95.425 287.66 95.5717C287.439 95.7161 287.269 95.9055 287.148 96.1399C287.03 96.3719 286.971 96.6241 286.971 96.8963V97.5178C286.971 97.8823 287.035 98.1925 287.163 98.4482C287.293 98.7038 287.474 98.8991 287.706 99.0341C287.938 99.1667 288.209 99.233 288.519 99.233C288.72 99.233 288.904 99.2045 289.069 99.1477C289.235 99.0885 289.378 99.0009 289.499 98.8849C289.62 98.7689 289.712 98.6257 289.776 98.4553L290.781 98.6364C290.701 98.9323 290.556 99.1915 290.348 99.4141C290.142 99.6342 289.883 99.8059 289.57 99.929C289.26 100.05 288.906 100.11 288.508 100.11ZM294.373 94.5455V95.3977H291.393V94.5455H294.373ZM292.192 93.2386H293.254V98.3984C293.254 98.6044 293.285 98.7595 293.347 98.8636C293.408 98.9654 293.487 99.0353 293.584 99.0732C293.684 99.1087 293.792 99.1264 293.908 99.1264C293.993 99.1264 294.067 99.1205 294.131 99.1087C294.195 99.0968 294.245 99.0874 294.281 99.0803L294.472 99.9574C294.411 99.9811 294.323 100.005 294.209 100.028C294.096 100.054 293.954 100.069 293.783 100.071C293.504 100.076 293.244 100.026 293.002 99.9219C292.761 99.8177 292.565 99.6567 292.416 99.4389C292.267 99.2211 292.192 98.9477 292.192 98.6186V93.2386ZM295.347 100V94.5455H296.409V100H295.347ZM295.884 93.7038C295.699 93.7038 295.54 93.6423 295.408 93.5192C295.278 93.3937 295.212 93.2446 295.212 93.0717C295.212 92.8965 295.278 92.7474 295.408 92.6243C295.54 92.4988 295.699 92.4361 295.884 92.4361C296.068 92.4361 296.226 92.4988 296.356 92.6243C296.488 92.7474 296.555 92.8965 296.555 93.0717C296.555 93.2446 296.488 93.3937 296.356 93.5192C296.226 93.6423 296.068 93.7038 295.884 93.7038ZM298.699 96.7614V100H297.638V94.5455H298.657V95.4332H298.724C298.85 95.1444 299.046 94.9124 299.314 94.7372C299.584 94.562 299.923 94.4744 300.333 94.4744C300.705 94.4744 301.03 94.5526 301.309 94.7088C301.589 94.8627 301.805 95.0923 301.959 95.3977C302.113 95.7031 302.19 96.0807 302.19 96.5305V100H301.128V96.6584C301.128 96.263 301.025 95.9541 300.819 95.7315C300.613 95.5066 300.331 95.3942 299.971 95.3942C299.724 95.3942 299.506 95.4474 299.314 95.554C299.124 95.6605 298.974 95.8168 298.863 96.0227C298.754 96.2263 298.699 96.4725 298.699 96.7614ZM305.701 102.159C305.268 102.159 304.895 102.102 304.582 101.989C304.272 101.875 304.019 101.725 303.823 101.538C303.626 101.351 303.479 101.146 303.382 100.923L304.295 100.547C304.359 100.651 304.444 100.761 304.551 100.877C304.659 100.996 304.806 101.096 304.991 101.179C305.178 101.262 305.418 101.303 305.712 101.303C306.114 101.303 306.447 101.205 306.71 101.009C306.972 100.814 307.104 100.504 307.104 100.078V99.0057H307.036C306.972 99.1217 306.88 99.2507 306.759 99.3928C306.641 99.5348 306.478 99.6579 306.269 99.7621C306.061 99.8662 305.79 99.9183 305.456 99.9183C305.025 99.9183 304.637 99.8177 304.291 99.6165C303.948 99.4129 303.676 99.1134 303.475 98.718C303.276 98.3203 303.176 97.8314 303.176 97.2514C303.176 96.6714 303.274 96.1742 303.471 95.7599C303.67 95.3456 303.942 95.0284 304.288 94.8082C304.633 94.5857 305.025 94.4744 305.463 94.4744C305.802 94.4744 306.075 94.5312 306.283 94.6449C306.492 94.7562 306.654 94.8864 306.77 95.0355C306.888 95.1847 306.98 95.3161 307.043 95.4297H307.122V94.5455H308.162V100.121C308.162 100.589 308.053 100.974 307.835 101.275C307.618 101.576 307.323 101.798 306.951 101.942C306.582 102.087 306.165 102.159 305.701 102.159ZM305.69 99.0376C305.996 99.0376 306.254 98.9666 306.465 98.8246C306.678 98.6802 306.839 98.4742 306.948 98.2067C307.059 97.9368 307.114 97.6136 307.114 97.2372C307.114 96.8703 307.06 96.5471 306.951 96.2678C306.842 95.9884 306.682 95.7706 306.472 95.6143C306.261 95.4557 306.001 95.3764 305.69 95.3764C305.371 95.3764 305.105 95.4593 304.891 95.625C304.678 95.7884 304.517 96.0109 304.408 96.2926C304.302 96.5743 304.249 96.8892 304.249 97.2372C304.249 97.5947 304.303 97.9084 304.412 98.1783C304.521 98.4482 304.682 98.6589 304.895 98.8104C305.11 98.9619 305.376 99.0376 305.69 99.0376ZM313.473 95.8771L312.511 96.0476C312.471 95.9245 312.407 95.8073 312.319 95.696C312.234 95.5848 312.118 95.4936 311.971 95.4226C311.824 95.3516 311.641 95.3161 311.421 95.3161C311.12 95.3161 310.869 95.3835 310.668 95.5185C310.467 95.651 310.366 95.8227 310.366 96.0334C310.366 96.2157 310.434 96.3625 310.569 96.4737C310.704 96.585 310.921 96.6761 311.222 96.7472L312.088 96.946C312.59 97.062 312.964 97.2408 313.211 97.4822C313.457 97.7237 313.58 98.0374 313.58 98.4233C313.58 98.75 313.485 99.0412 313.296 99.2969C313.109 99.5502 312.847 99.7491 312.511 99.8935C312.177 100.038 311.79 100.11 311.35 100.11C310.739 100.11 310.241 99.9799 309.855 99.7195C309.469 99.4567 309.232 99.0838 309.145 98.6009L310.171 98.4446C310.235 98.7121 310.366 98.9145 310.565 99.0518C310.764 99.1868 311.023 99.2543 311.343 99.2543C311.691 99.2543 311.969 99.1821 312.177 99.0376C312.386 98.8909 312.49 98.7121 312.49 98.5014C312.49 98.331 312.426 98.1877 312.298 98.0717C312.173 97.9557 311.98 97.8681 311.719 97.8089L310.796 97.6065C310.287 97.4905 309.91 97.3059 309.667 97.0526C309.425 96.7992 309.304 96.4785 309.304 96.0902C309.304 95.7682 309.394 95.4865 309.574 95.245C309.754 95.0036 310.003 94.8153 310.32 94.6804C310.637 94.5431 311.001 94.4744 311.41 94.4744C312 94.4744 312.464 94.6023 312.802 94.858C313.141 95.1113 313.364 95.451 313.473 95.8771Z" fill="#98A2B3"/>
<circle cx="175.5" cy="117" r="3.5" fill="#4BC286"/>
<path d="M191.839 116.092H190.732C190.689 115.856 190.61 115.647 190.494 115.467C190.378 115.287 190.236 115.135 190.067 115.009C189.899 114.884 189.711 114.789 189.503 114.725C189.297 114.661 189.078 114.629 188.846 114.629C188.427 114.629 188.052 114.735 187.72 114.945C187.391 115.156 187.131 115.465 186.939 115.872C186.75 116.279 186.655 116.777 186.655 117.364C186.655 117.955 186.75 118.455 186.939 118.862C187.131 119.269 187.392 119.577 187.724 119.786C188.055 119.994 188.428 120.098 188.842 120.098C189.072 120.098 189.29 120.067 189.496 120.006C189.704 119.942 189.892 119.848 190.06 119.725C190.228 119.602 190.371 119.452 190.487 119.274C190.605 119.094 190.687 118.888 190.732 118.656L191.839 118.66C191.78 119.017 191.665 119.346 191.495 119.647C191.327 119.945 191.11 120.203 190.845 120.421C190.582 120.637 190.282 120.804 189.943 120.922C189.605 121.04 189.235 121.099 188.835 121.099C188.205 121.099 187.644 120.95 187.152 120.652C186.66 120.351 186.271 119.922 185.987 119.363C185.705 118.804 185.565 118.138 185.565 117.364C185.565 116.587 185.707 115.921 185.991 115.364C186.275 114.806 186.663 114.377 187.156 114.079C187.648 113.778 188.208 113.628 188.835 113.628C189.221 113.628 189.581 113.683 189.915 113.795C190.251 113.904 190.553 114.065 190.82 114.278C191.088 114.488 191.309 114.746 191.484 115.052C191.66 115.355 191.778 115.702 191.839 116.092ZM195.165 121.11C194.654 121.11 194.207 120.993 193.826 120.759C193.445 120.524 193.149 120.196 192.938 119.775C192.728 119.353 192.622 118.861 192.622 118.298C192.622 117.732 192.728 117.237 192.938 116.813C193.149 116.389 193.445 116.06 193.826 115.826C194.207 115.592 194.654 115.474 195.165 115.474C195.676 115.474 196.123 115.592 196.504 115.826C196.885 116.06 197.181 116.389 197.391 116.813C197.602 117.237 197.707 117.732 197.707 118.298C197.707 118.861 197.602 119.353 197.391 119.775C197.181 120.196 196.885 120.524 196.504 120.759C196.123 120.993 195.676 121.11 195.165 121.11ZM195.168 120.219C195.5 120.219 195.774 120.131 195.992 119.956C196.21 119.781 196.371 119.548 196.475 119.256C196.582 118.965 196.635 118.644 196.635 118.294C196.635 117.946 196.582 117.626 196.475 117.335C196.371 117.042 196.21 116.806 195.992 116.629C195.774 116.451 195.5 116.362 195.168 116.362C194.835 116.362 194.558 116.451 194.337 116.629C194.12 116.806 193.957 117.042 193.851 117.335C193.747 117.626 193.695 117.946 193.695 118.294C193.695 118.644 193.747 118.965 193.851 119.256C193.957 119.548 194.12 119.781 194.337 119.956C194.558 120.131 194.835 120.219 195.168 120.219ZM202.148 118.738V115.545H203.213V121H202.169V120.055H202.112C201.987 120.347 201.786 120.589 201.509 120.783C201.234 120.975 200.892 121.071 200.482 121.071C200.132 121.071 199.822 120.994 199.552 120.84C199.285 120.684 199.074 120.453 198.92 120.148C198.768 119.842 198.693 119.465 198.693 119.015V115.545H199.754V118.887C199.754 119.259 199.857 119.555 200.063 119.775C200.269 119.995 200.537 120.105 200.866 120.105C201.065 120.105 201.263 120.055 201.459 119.956C201.658 119.857 201.822 119.706 201.953 119.505C202.085 119.304 202.15 119.048 202.148 118.738ZM204.44 121V115.545H205.466V116.412H205.523C205.622 116.118 205.798 115.888 206.049 115.719C206.302 115.549 206.588 115.464 206.908 115.464C206.974 115.464 207.052 115.466 207.142 115.471C207.235 115.476 207.307 115.482 207.359 115.489V116.504C207.316 116.492 207.241 116.479 207.132 116.465C207.023 116.449 206.914 116.44 206.805 116.44C206.554 116.44 206.33 116.494 206.134 116.6C205.94 116.704 205.786 116.85 205.672 117.037C205.559 117.222 205.502 117.432 205.502 117.669V121H204.44ZM212.165 116.877L211.203 117.048C211.163 116.924 211.099 116.807 211.011 116.696C210.926 116.585 210.81 116.494 210.663 116.423C210.516 116.352 210.333 116.316 210.113 116.316C209.812 116.316 209.561 116.384 209.36 116.518C209.159 116.651 209.058 116.823 209.058 117.033C209.058 117.216 209.125 117.362 209.26 117.474C209.395 117.585 209.613 117.676 209.914 117.747L210.78 117.946C211.282 118.062 211.656 118.241 211.902 118.482C212.149 118.724 212.272 119.037 212.272 119.423C212.272 119.75 212.177 120.041 211.988 120.297C211.801 120.55 211.539 120.749 211.203 120.893C210.869 121.038 210.482 121.11 210.042 121.11C209.431 121.11 208.932 120.98 208.547 120.719C208.161 120.457 207.924 120.084 207.836 119.601L208.863 119.445C208.927 119.712 209.058 119.915 209.257 120.052C209.456 120.187 209.715 120.254 210.035 120.254C210.383 120.254 210.661 120.182 210.869 120.038C211.077 119.891 211.182 119.712 211.182 119.501C211.182 119.331 211.118 119.188 210.99 119.072C210.864 118.956 210.671 118.868 210.411 118.809L209.488 118.607C208.979 118.491 208.602 118.306 208.358 118.053C208.117 117.799 207.996 117.478 207.996 117.09C207.996 116.768 208.086 116.487 208.266 116.245C208.446 116.004 208.695 115.815 209.012 115.68C209.329 115.543 209.692 115.474 210.102 115.474C210.691 115.474 211.155 115.602 211.494 115.858C211.833 116.111 212.056 116.451 212.165 116.877ZM215.59 121.11C215.053 121.11 214.59 120.995 214.202 120.766C213.816 120.534 213.517 120.208 213.307 119.789C213.098 119.368 212.994 118.874 212.994 118.308C212.994 117.75 213.098 117.257 213.307 116.831C213.517 116.405 213.811 116.072 214.187 115.833C214.566 115.594 215.009 115.474 215.515 115.474C215.823 115.474 216.122 115.525 216.41 115.627C216.699 115.729 216.958 115.889 217.188 116.107C217.418 116.324 217.599 116.607 217.731 116.955C217.864 117.301 217.93 117.721 217.93 118.216V118.592H213.594V117.797H216.89C216.89 117.518 216.833 117.27 216.719 117.055C216.606 116.837 216.446 116.665 216.24 116.54C216.036 116.414 215.797 116.352 215.523 116.352C215.224 116.352 214.964 116.425 214.741 116.572C214.521 116.716 214.351 116.906 214.23 117.14C214.112 117.372 214.052 117.624 214.052 117.896V118.518C214.052 118.882 214.116 119.192 214.244 119.448C214.374 119.704 214.555 119.899 214.787 120.034C215.019 120.167 215.291 120.233 215.601 120.233C215.802 120.233 215.985 120.205 216.151 120.148C216.317 120.089 216.46 120.001 216.581 119.885C216.702 119.769 216.794 119.626 216.858 119.455L217.863 119.636C217.782 119.932 217.638 120.192 217.43 120.414C217.224 120.634 216.964 120.806 216.652 120.929C216.342 121.05 215.988 121.11 215.59 121.11ZM222.996 116.877L222.033 117.048C221.993 116.924 221.929 116.807 221.842 116.696C221.756 116.585 221.64 116.494 221.494 116.423C221.347 116.352 221.163 116.316 220.943 116.316C220.642 116.316 220.392 116.384 220.19 116.518C219.989 116.651 219.888 116.823 219.888 117.033C219.888 117.216 219.956 117.362 220.091 117.474C220.226 117.585 220.444 117.676 220.744 117.747L221.611 117.946C222.113 118.062 222.487 118.241 222.733 118.482C222.979 118.724 223.102 119.037 223.102 119.423C223.102 119.75 223.008 120.041 222.818 120.297C222.631 120.55 222.369 120.749 222.033 120.893C221.7 121.038 221.312 121.11 220.872 121.11C220.261 121.11 219.763 120.98 219.377 120.719C218.991 120.457 218.754 120.084 218.667 119.601L219.693 119.445C219.757 119.712 219.888 119.915 220.087 120.052C220.286 120.187 220.545 120.254 220.865 120.254C221.213 120.254 221.491 120.182 221.7 120.038C221.908 119.891 222.012 119.712 222.012 119.501C222.012 119.331 221.948 119.188 221.82 119.072C221.695 118.956 221.502 118.868 221.241 118.809L220.318 118.607C219.809 118.491 219.433 118.306 219.189 118.053C218.947 117.799 218.827 117.478 218.827 117.09C218.827 116.768 218.917 116.487 219.097 116.245C219.276 116.004 219.525 115.815 219.842 115.68C220.159 115.543 220.523 115.474 220.932 115.474C221.522 115.474 221.986 115.602 222.325 115.858C222.663 116.111 222.887 116.451 222.996 116.877Z" fill="#98A2B3"/>
<path d="M141 84L151.636 75H168" stroke="#B3B3B3" stroke-linecap="round" stroke-dasharray="0.1 2"/>
</g>
<rect x="15.5" y="11.5" width="342" height="135" rx="9.5" stroke="#F4EBFF"/>
</g>
<defs>
<filter id="filter0_d_1_45784" x="0" y="0" width="373" height="166" filterUnits="userSpaceOnUse" color-interpolation-filters="sRGB">
<feFlood flood-opacity="0" result="BackgroundImageFix"/>
<feColorMatrix in="SourceAlpha" type="matrix" values="0 0 0 0 0 0 0 0 0 0 0 0 0 0 0 0 0 0 127 0" result="hardAlpha"/>
<feOffset dy="4"/>
<feGaussianBlur stdDeviation="7.5"/>
<feComposite in2="hardAlpha" operator="out"/>
<feColorMatrix type="matrix" values="0 0 0 0 0.816667 0 0 0 0 0.816667 0 0 0 0 0.816667 0 0 0 0.22 0"/>
<feBlend mode="normal" in2="BackgroundImageFix" result="effect1_dropShadow_1_45784"/>
<feBlend mode="normal" in="SourceGraphic" in2="effect1_dropShadow_1_45784" result="shape"/>
</filter>
<filter id="filter1_d_1_45784" x="77" y="74" width="75.8573" height="75.8573" filterUnits="userSpaceOnUse" color-interpolation-filters="sRGB">
<feFlood flood-opacity="0" result="BackgroundImageFix"/>
<feColorMatrix in="SourceAlpha" type="matrix" values="0 0 0 0 0 0 0 0 0 0 0 0 0 0 0 0 0 0 127 0" result="hardAlpha"/>
<feOffset dy="4"/>
<feGaussianBlur stdDeviation="6"/>
<feComposite in2="hardAlpha" operator="out"/>
<feColorMatrix type="matrix" values="0 0 0 0 0.758333 0 0 0 0 0.564126 0 0 0 0 0 0 0 0 0.24 0"/>
<feBlend mode="normal" in2="BackgroundImageFix" result="effect1_dropShadow_1_45784"/>
<feBlend mode="normal" in="SourceGraphic" in2="effect1_dropShadow_1_45784" result="shape"/>
</filter>
<clipPath id="clip0_1_45784">
<rect x="15" y="11" width="343" height="136" rx="10" fill="white"/>
</clipPath>
</defs>
</svg>
