<svg width="25" height="25" viewBox="0 0 25 25" fill="none" xmlns="http://www.w3.org/2000/svg">
<mask id="path-1-inside-1_64_259" fill="white">
<path d="M3.74656 17.1501C3.33656 17.1501 2.99656 16.8101 2.99656 16.4001L2.99656 8.90009C2.99656 8.49009 3.33656 8.15009 3.74656 8.15009C4.15656 8.15009 4.49656 8.49009 4.49656 8.90009V16.4001C4.49656 16.8101 4.15656 17.1501 3.74656 17.1501Z"/>
</mask>
<path d="M3.74656 17.1501C3.33656 17.1501 2.99656 16.8101 2.99656 16.4001L2.99656 8.90009C2.99656 8.49009 3.33656 8.15009 3.74656 8.15009C4.15656 8.15009 4.49656 8.49009 4.49656 8.90009V16.4001C4.49656 16.8101 4.15656 17.1501 3.74656 17.1501Z" fill="#292D32"/>
<path d="M3.74656 15.6501C4.16499 15.6501 4.49656 15.9817 4.49656 16.4001H1.49656C1.49656 17.6385 2.50813 18.6501 3.74656 18.6501L3.74656 15.6501ZM4.49656 16.4001V8.90009H1.49656L1.49656 16.4001H4.49656ZM4.49656 8.90009C4.49656 9.31851 4.16499 9.65009 3.74656 9.65009V6.65009C2.50813 6.65009 1.49656 7.66166 1.49656 8.90009H4.49656ZM3.74656 9.65009C3.32813 9.65009 2.99656 9.31851 2.99656 8.90009H5.99656C5.99656 7.66166 4.98499 6.65009 3.74656 6.65009V9.65009ZM2.99656 8.90009L2.99656 16.4001H5.99656V8.90009H2.99656ZM2.99656 16.4001C2.99656 15.9817 3.32813 15.6501 3.74656 15.6501L3.74656 18.6501C4.98499 18.6501 5.99656 17.6385 5.99656 16.4001H2.99656Z" fill="#101828" mask="url(#path-1-inside-1_64_259)"/>
<mask id="path-3-inside-2_64_259" fill="white">
<path d="M8.24656 19.6501C7.83656 19.6501 7.49656 19.3101 7.49656 18.9001V6.40009C7.49656 5.99009 7.83656 5.65009 8.24656 5.65009C8.65656 5.65009 8.99656 5.99009 8.99656 6.40009V18.9001C8.99656 19.3101 8.65656 19.6501 8.24656 19.6501Z"/>
</mask>
<path d="M8.24656 19.6501C7.83656 19.6501 7.49656 19.3101 7.49656 18.9001V6.40009C7.49656 5.99009 7.83656 5.65009 8.24656 5.65009C8.65656 5.65009 8.99656 5.99009 8.99656 6.40009V18.9001C8.99656 19.3101 8.65656 19.6501 8.24656 19.6501Z" fill="#292D32"/>
<path d="M8.24656 18.1501C8.66499 18.1501 8.99656 18.4817 8.99656 18.9001H5.99656C5.99656 20.1385 7.00813 21.1501 8.24656 21.1501V18.1501ZM8.99656 18.9001V6.40009H5.99656V18.9001H8.99656ZM8.99656 6.40009C8.99656 6.81851 8.66499 7.15009 8.24656 7.15009V4.15009C7.00813 4.15009 5.99656 5.16166 5.99656 6.40009H8.99656ZM8.24656 7.15009C7.82813 7.15009 7.49656 6.81851 7.49656 6.40009H10.4966C10.4966 5.16166 9.48499 4.15009 8.24656 4.15009V7.15009ZM7.49656 6.40009V18.9001H10.4966V6.40009H7.49656ZM7.49656 18.9001C7.49656 18.4817 7.82813 18.1501 8.24656 18.1501V21.1501C9.48499 21.1501 10.4966 20.1385 10.4966 18.9001H7.49656Z" fill="#101828" mask="url(#path-3-inside-2_64_259)"/>
<mask id="path-5-inside-3_64_259" fill="white">
<path d="M12.7466 22.1501C12.3366 22.1501 11.9966 21.8101 11.9966 21.4001V3.90009C11.9966 3.49009 12.3366 3.15009 12.7466 3.15009C13.1566 3.15009 13.4966 3.49009 13.4966 3.90009V21.4001C13.4966 21.8101 13.1566 22.1501 12.7466 22.1501Z"/>
</mask>
<path d="M12.7466 22.1501C12.3366 22.1501 11.9966 21.8101 11.9966 21.4001V3.90009C11.9966 3.49009 12.3366 3.15009 12.7466 3.15009C13.1566 3.15009 13.4966 3.49009 13.4966 3.90009V21.4001C13.4966 21.8101 13.1566 22.1501 12.7466 22.1501Z" fill="#292D32"/>
<path d="M12.7466 20.6501C13.165 20.6501 13.4966 20.9817 13.4966 21.4001H10.4966C10.4966 22.6385 11.5081 23.6501 12.7466 23.6501V20.6501ZM13.4966 21.4001V3.90009H10.4966V21.4001H13.4966ZM13.4966 3.90009C13.4966 4.31851 13.165 4.65009 12.7466 4.65009V1.65009C11.5081 1.65009 10.4966 2.66166 10.4966 3.90009H13.4966ZM12.7466 4.65009C12.3281 4.65009 11.9966 4.31851 11.9966 3.90009H14.9966C14.9966 2.66166 13.985 1.65009 12.7466 1.65009V4.65009ZM11.9966 3.90009V21.4001H14.9966V3.90009H11.9966ZM11.9966 21.4001C11.9966 20.9817 12.3281 20.6501 12.7466 20.6501V23.6501C13.985 23.6501 14.9966 22.6385 14.9966 21.4001H11.9966Z" fill="#101828" mask="url(#path-5-inside-3_64_259)"/>
<mask id="path-7-inside-4_64_259" fill="white">
<path d="M17.2466 19.6501C16.8366 19.6501 16.4966 19.3101 16.4966 18.9001V6.40009C16.4966 5.99009 16.8366 5.65009 17.2466 5.65009C17.6566 5.65009 17.9966 5.99009 17.9966 6.40009V18.9001C17.9966 19.3101 17.6566 19.6501 17.2466 19.6501Z"/>
</mask>
<path d="M17.2466 19.6501C16.8366 19.6501 16.4966 19.3101 16.4966 18.9001V6.40009C16.4966 5.99009 16.8366 5.65009 17.2466 5.65009C17.6566 5.65009 17.9966 5.99009 17.9966 6.40009V18.9001C17.9966 19.3101 17.6566 19.6501 17.2466 19.6501Z" fill="#292D32"/>
<path d="M17.2466 18.1501C17.665 18.1501 17.9966 18.4817 17.9966 18.9001H14.9966C14.9966 20.1385 16.0081 21.1501 17.2466 21.1501V18.1501ZM17.9966 18.9001V6.40009H14.9966V18.9001H17.9966ZM17.9966 6.40009C17.9966 6.81851 17.665 7.15009 17.2466 7.15009V4.15009C16.0081 4.15009 14.9966 5.16166 14.9966 6.40009H17.9966ZM17.2466 7.15009C16.8281 7.15009 16.4966 6.81851 16.4966 6.40009H19.4966C19.4966 5.16166 18.485 4.15009 17.2466 4.15009V7.15009ZM16.4966 6.40009V18.9001H19.4966V6.40009H16.4966ZM16.4966 18.9001C16.4966 18.4817 16.8281 18.1501 17.2466 18.1501V21.1501C18.485 21.1501 19.4966 20.1385 19.4966 18.9001H16.4966Z" fill="#101828" mask="url(#path-7-inside-4_64_259)"/>
<mask id="path-9-inside-5_64_259" fill="white">
<path d="M21.7466 17.1501C21.3366 17.1501 20.9966 16.8101 20.9966 16.4001V8.90009C20.9966 8.49009 21.3366 8.15009 21.7466 8.15009C22.1566 8.15009 22.4966 8.49009 22.4966 8.90009V16.4001C22.4966 16.8101 22.1566 17.1501 21.7466 17.1501Z"/>
</mask>
<path d="M21.7466 17.1501C21.3366 17.1501 20.9966 16.8101 20.9966 16.4001V8.90009C20.9966 8.49009 21.3366 8.15009 21.7466 8.15009C22.1566 8.15009 22.4966 8.49009 22.4966 8.90009V16.4001C22.4966 16.8101 22.1566 17.1501 21.7466 17.1501Z" fill="#292D32"/>
<path d="M21.7466 15.6501C22.165 15.6501 22.4966 15.9817 22.4966 16.4001H19.4966C19.4966 17.6385 20.5081 18.6501 21.7466 18.6501V15.6501ZM22.4966 16.4001V8.90009H19.4966V16.4001H22.4966ZM22.4966 8.90009C22.4966 9.31851 22.165 9.65009 21.7466 9.65009V6.65009C20.5081 6.65009 19.4966 7.66166 19.4966 8.90009H22.4966ZM21.7466 9.65009C21.3281 9.65009 20.9966 9.31851 20.9966 8.90009H23.9966C23.9966 7.66166 22.985 6.65009 21.7466 6.65009V9.65009ZM20.9966 8.90009V16.4001H23.9966V8.90009H20.9966ZM20.9966 16.4001C20.9966 15.9817 21.3281 15.6501 21.7466 15.6501V18.6501C22.985 18.6501 23.9966 17.6385 23.9966 16.4001H20.9966Z" fill="#101828" mask="url(#path-9-inside-5_64_259)"/>
</svg>
