<svg width="343" height="110" viewBox="0 0 343 110" fill="none" xmlns="http://www.w3.org/2000/svg">
<g clip-path="url(#clip0_1_45809)">
<rect width="343" height="110" rx="10" fill="#BDB4FE"/>
<g opacity="0.16">
<path fill-rule="evenodd" clip-rule="evenodd" d="M61.0519 -121.525C48.6821 -110.948 39.4974 -94.7483 37.9836 -75.5335C36.2768 -53.8701 25.2559 -35.865 11.7406 -23.5418C-1.57147 -11.4039 -18.1376 -4.07625 -31.4686 -5.20677C-42.1582 -6.11332 -53.8613 -5.27622 -64.7213 1.50318C-75.605 8.29738 -86.4212 21.5499 -94.1418 47.0135C-107.514 91.1174 -145.141 102.56 -163.02 102.565C-165.778 102.566 -168.044 100.488 -168.082 97.9231C-168.121 95.3586 -165.916 93.279 -163.159 93.2782C-148.831 93.2738 -115.712 83.8124 -103.757 44.3814C-95.6473 17.6357 -83.8147 2.16696 -70.3648 -6.22924C-56.8911 -14.6402 -42.5757 -15.4627 -30.6955 -14.4552C-21.4567 -13.6717 -7.58585 -19.0142 4.69951 -30.216C16.7817 -41.2325 26.5186 -57.2365 28.0234 -76.3369C29.7211 -97.8859 40.0321 -116.253 54.2384 -128.4C68.3982 -140.508 86.8191 -146.709 104.562 -142.992C107.26 -142.427 108.984 -139.941 108.413 -137.439C107.842 -134.938 105.192 -133.368 102.494 -133.933C88.7038 -136.822 73.4683 -132.142 61.0519 -121.525Z" fill="white"/>
<path fill-rule="evenodd" clip-rule="evenodd" d="M111.387 -95.9678C99.0198 -85.3891 89.8383 -69.1881 88.3283 -49.9731C86.6259 -28.3094 75.6085 -10.3028 62.0958 2.02233C48.7861 14.1621 32.2214 21.4921 18.8903 20.3635C8.20053 19.4584 -3.50246 20.2972 -14.3611 27.0781C-25.2434 33.8739 -36.0569 47.1279 -43.7725 72.5926C-57.1361 116.699 -94.761 128.146 -112.64 128.154C-115.397 128.155 -117.664 126.077 -117.703 123.513C-117.742 120.948 -115.538 118.868 -112.78 118.867C-98.4521 118.861 -65.3355 109.395 -53.3878 69.9619C-45.2838 43.215 -33.4543 27.7446 -20.0061 19.3465C-6.53412 10.9336 7.78114 10.1091 19.6615 11.1149C28.9005 11.8971 42.7702 6.55263 55.0534 -4.65086C67.1333 -15.6691 76.867 -31.6745 78.368 -50.7751C80.0614 -72.3244 90.3688 -90.6927 104.573 -102.842C118.73 -114.951 137.15 -121.155 154.894 -117.441C157.592 -116.876 159.316 -114.39 158.746 -111.889C158.175 -109.387 155.525 -107.817 152.827 -108.382C139.036 -111.269 123.802 -106.586 111.387 -95.9678Z" fill="white"/>
<path fill-rule="evenodd" clip-rule="evenodd" d="M161.721 -70.379C149.354 -59.8003 140.172 -43.5993 138.662 -24.3843C136.96 -2.72056 125.943 15.2861 112.43 27.6112C99.1201 39.751 82.5554 47.081 69.2243 45.9523C58.5345 45.0473 46.8315 45.886 35.9729 52.667C25.0906 59.4628 14.2771 72.7168 6.56151 98.1815C-6.80213 142.287 -44.427 153.735 -62.3057 153.743C-65.0632 153.744 -67.3301 151.666 -67.3689 149.102C-67.4077 146.537 -65.2038 144.457 -62.4462 144.456C-48.1181 144.45 -15.0015 134.983 -3.05383 95.5508C5.05021 68.8039 16.8796 53.3335 30.3279 44.9354C43.7999 36.5225 58.1151 35.698 69.9955 36.7038C79.2345 37.486 93.1042 32.1415 105.387 20.938C117.467 9.91981 127.201 -6.08561 128.702 -25.1862C130.395 -46.7355 140.703 -65.1039 154.907 -77.2532C169.064 -89.3626 187.484 -95.5666 205.228 -91.8521C207.926 -91.2873 209.65 -88.8015 209.08 -86.3C208.509 -83.7984 205.859 -82.2284 203.161 -82.7932C189.37 -85.6801 174.136 -80.9975 161.721 -70.379Z" fill="white"/>
<path fill-rule="evenodd" clip-rule="evenodd" d="M212.048 -44.7882C199.68 -34.2094 190.498 -18.0085 188.988 1.20657C187.286 22.8703 176.269 40.8769 162.756 53.202C149.446 65.3418 132.882 72.6718 119.55 71.5432C108.861 70.6381 97.1577 71.4769 86.2991 78.2578C75.4167 85.0536 64.6032 98.3076 56.8877 123.772C43.524 167.878 5.89916 179.326 -11.9795 179.334C-14.737 179.335 -17.0039 177.257 -17.0427 174.692C-17.0815 172.128 -14.8776 170.048 -12.1201 170.047C2.20809 170.04 35.3246 160.574 47.2723 121.142C55.3764 94.3947 67.2058 78.9243 80.6541 70.5262C94.126 62.1133 108.441 61.2888 120.322 62.2946C129.561 63.0768 143.43 57.7323 155.714 46.5288C167.793 35.5106 177.527 19.5052 179.028 0.404601C180.722 -21.1447 191.029 -39.5131 205.233 -51.6623C219.39 -63.7718 237.81 -69.9757 255.554 -66.2613C258.252 -65.6964 259.977 -63.2107 259.406 -60.7092C258.835 -58.2076 256.185 -56.6376 253.487 -57.2024C239.696 -60.0893 224.462 -55.4066 212.048 -44.7882Z" fill="white"/>
<path fill-rule="evenodd" clip-rule="evenodd" d="M262.378 -19.1992C250.01 -8.62052 240.829 7.58047 239.319 26.7955C237.616 48.4592 226.599 66.4658 213.086 78.7909C199.776 90.9307 183.212 98.2607 169.881 97.1321C159.191 96.2271 147.488 97.0658 136.629 103.847C125.747 110.642 114.933 123.897 107.218 149.361C93.8541 193.467 56.2293 204.915 38.3506 204.923C35.5931 204.924 33.3262 202.846 33.2874 200.281C33.2486 197.717 35.4525 195.637 38.21 195.636C52.5382 195.629 85.6547 186.163 97.6024 146.731C105.706 119.984 117.536 104.513 130.984 96.1151C144.456 87.7022 158.771 86.8777 170.652 87.8835C179.891 88.6657 193.76 83.3212 206.044 72.1178C218.124 61.0996 227.857 45.0941 229.358 25.9935C231.052 4.44426 241.359 -13.9241 255.563 -26.0734C269.72 -38.1829 288.14 -44.3868 305.884 -40.6723C308.582 -40.1075 310.307 -37.6218 309.736 -35.1202C309.165 -32.6187 306.515 -31.0487 303.817 -31.6135C290.027 -34.5003 274.792 -29.8177 262.378 -19.1992Z" fill="white"/>
<path fill-rule="evenodd" clip-rule="evenodd" d="M312.706 6.38958C300.338 16.9683 291.157 33.1693 289.647 52.3843C287.944 74.048 276.927 92.0547 263.414 104.38C250.104 116.52 233.54 123.85 220.209 122.721C209.519 121.816 197.816 122.655 186.957 129.436C176.075 136.231 165.261 149.485 157.546 174.95C144.182 219.056 106.557 230.503 88.6787 230.511C85.9212 230.513 83.6543 228.435 83.6155 225.87C83.5767 223.306 85.7806 221.226 88.5381 221.224C102.866 221.218 135.983 211.752 147.931 172.319C156.035 145.572 167.864 130.102 181.312 121.704C194.784 113.291 209.099 112.467 220.98 113.472C230.219 114.255 244.089 108.91 256.372 97.7066C268.452 86.6884 278.185 70.6829 279.686 51.5823C281.38 30.0331 291.687 11.6647 305.891 -0.484595C320.048 -12.5941 338.468 -18.798 356.212 -15.0835C358.91 -14.5187 360.635 -12.033 360.064 -9.53142C359.493 -7.02989 356.843 -5.45987 354.145 -6.02468C340.355 -8.91154 325.12 -4.22891 312.706 6.38958Z" fill="white"/>
<path fill-rule="evenodd" clip-rule="evenodd" d="M363.042 31.9784C350.674 42.5572 341.493 58.7581 339.983 77.9732C338.28 99.6369 327.263 117.644 313.75 129.969C300.44 142.108 283.876 149.438 270.545 148.31C259.855 147.405 248.152 148.243 237.293 155.024C226.411 161.82 215.597 175.074 207.882 200.539C194.518 244.645 156.893 256.092 139.015 256.1C136.257 256.101 133.99 254.024 133.951 251.459C133.913 248.895 136.117 246.815 138.874 246.813C153.202 246.807 186.319 237.341 198.266 197.908C206.371 171.161 218.2 155.691 231.648 147.293C245.12 138.88 259.435 138.055 271.316 139.061C280.555 139.843 294.425 134.499 306.708 123.295C318.788 112.277 328.521 96.2718 330.022 77.1712C331.716 55.6219 342.023 37.2535 356.227 25.1043C370.384 12.9948 388.804 6.79086 406.548 10.5053C409.246 11.0702 410.971 13.5559 410.4 16.0574C409.829 18.559 407.179 20.129 404.481 19.5642C390.691 16.6773 375.456 21.36 363.042 31.9784Z" fill="white"/>
<path fill-rule="evenodd" clip-rule="evenodd" d="M413.372 57.5683C401.004 68.147 391.823 84.348 390.313 103.563C388.61 125.227 377.593 143.233 364.08 155.558C350.771 167.698 334.206 175.028 320.875 173.9C310.185 172.995 298.482 173.833 287.623 180.614C276.741 187.41 265.927 200.664 258.212 226.129C244.848 270.235 207.223 281.682 189.345 281.69C186.587 281.691 184.32 279.613 184.282 277.049C184.243 274.484 186.447 272.404 189.204 272.403C203.532 272.397 236.649 262.931 248.597 223.498C256.701 196.751 268.53 181.281 281.978 172.883C295.45 164.47 309.766 163.645 321.646 164.651C330.885 165.433 344.755 160.089 357.038 148.885C369.118 137.867 378.851 121.862 380.352 102.761C382.046 81.2118 392.353 62.8434 406.557 50.6941C420.714 38.5846 439.134 32.3807 456.878 36.0952C459.576 36.66 461.301 39.1458 460.73 41.6473C460.159 44.1488 457.509 45.7188 454.811 45.154C441.021 42.2672 425.786 46.9498 413.372 57.5683Z" fill="white"/>
<path fill-rule="evenodd" clip-rule="evenodd" d="M463.704 83.1581C451.336 93.7368 442.155 109.938 440.645 129.153C438.942 150.817 427.925 168.823 414.412 181.148C401.103 193.288 384.538 200.618 371.207 199.489C360.517 198.584 348.814 199.423 337.955 206.204C327.073 213 316.259 226.254 308.544 251.719C295.18 295.824 257.555 307.272 239.677 307.28C236.919 307.281 234.652 305.203 234.614 302.639C234.575 300.074 236.779 297.994 239.536 297.993C253.864 297.987 286.981 288.521 298.929 249.088C307.033 222.341 318.862 206.871 332.31 198.472C345.782 190.06 360.098 189.235 371.978 190.241C381.217 191.023 395.087 185.679 407.37 174.475C419.45 163.457 429.183 147.452 430.684 128.351C432.378 106.802 442.685 88.4332 456.889 76.284C471.046 64.1745 489.466 57.9705 507.21 61.685C509.908 62.2498 511.633 64.7356 511.062 67.2371C510.491 69.7387 507.841 71.3087 505.143 70.7439C491.353 67.857 476.118 72.5396 463.704 83.1581Z" fill="white"/>
</g>
</g>
<defs>
<clipPath id="clip0_1_45809">
<rect width="343" height="110" rx="10" fill="white"/>
</clipPath>
</defs>
</svg>
