<svg width="178" height="87" viewBox="0 0 178 87" fill="none" xmlns="http://www.w3.org/2000/svg">
<g clip-path="url(#clip0_1_45762)">
<path d="M175 89C176.105 89 177.002 88.1044 176.977 87.0001C176.73 76.1252 174.469 65.3842 170.301 55.3239C165.879 44.6472 159.397 34.9462 151.225 26.7746C143.054 18.603 133.353 12.121 122.676 7.6986C111.999 3.27619 100.556 0.999999 89 1C77.4437 1 66.0005 3.27619 55.3239 7.6986C44.6472 12.121 34.9462 18.6031 26.7746 26.7746C18.603 34.9462 12.121 44.6472 7.6986 55.3239C3.53145 65.3842 1.26992 76.1252 1.02273 87.0001C0.997625 88.1044 1.89543 89 3 89L89 89H175Z" fill="white"/>
<path fill-rule="evenodd" clip-rule="evenodd" d="M120.394 27.1452C120.466 27.1146 120.54 27.1862 120.511 27.2593L119.574 29.6289C115.347 40.3165 109.197 50.1384 101.428 58.6073L100.475 59.6454L100.449 59.6224C100.293 59.8353 100.125 60.0431 99.9472 60.245C96.7305 63.8884 91.1694 64.2343 87.5261 61.0177C83.8827 57.8011 83.5368 52.24 86.7534 48.5966C86.9316 48.3947 87.1171 48.203 87.309 48.0214L87.2815 47.997C95.7625 39.893 105.643 33.395 116.444 28.8187L120.394 27.1452ZM92.2679 59.2481C94.8316 59.9225 97.4567 58.3908 98.131 55.8271C98.8054 53.2633 97.2737 50.6383 94.7099 49.9639C92.1462 49.2896 89.5212 50.8213 88.8468 53.385C88.1725 55.9488 89.7041 58.5738 92.2679 59.2481Z" fill="#7F56D9"/>
<path d="M-2.53711 77.0488L7.73772 80.1517" stroke="#42307D" stroke-linecap="round"/>
<path d="M176.615 77.5879L166.34 80.6908" stroke="#42307D" stroke-linecap="round"/>
<path d="M4.25391 53.7998L13.7993 58.7075" stroke="#42307D" stroke-linecap="round"/>
<path d="M169.824 54.3389L160.279 59.2466" stroke="#42307D" stroke-linecap="round"/>
<path d="M14.6133 34.5996L23.2629 40.9544" stroke="#42307D" stroke-linecap="round"/>
<path d="M159.465 35.1387L150.815 41.4935" stroke="#42307D" stroke-linecap="round"/>
<path d="M29.8086 18.5996L37.2449 26.3392" stroke="#42307D" stroke-linecap="round"/>
<path d="M144.27 19.1387L136.833 26.8783" stroke="#42307D" stroke-linecap="round"/>
<path d="M46.6523 7.40039L52.4538 16.4305" stroke="#42307D" stroke-linecap="round"/>
<path d="M127.426 7.93945L121.624 16.9696" stroke="#42307D" stroke-linecap="round"/>
<path d="M66.9492 0.460938L70.5556 10.57" stroke="#42307D" stroke-linecap="round"/>
<path d="M107.129 1L103.523 11.1091" stroke="#42307D" stroke-linecap="round"/>
<path d="M87.0371 -2.20508L87.0229 8.52804" stroke="#42307D" stroke-linecap="round"/>
<path d="M44.8864 79.1193C44.4972 79.1136 44.1136 79.0426 43.7358 78.9062C43.3608 78.7699 43.0199 78.5426 42.7131 78.2244C42.4063 77.9062 42.1605 77.4787 41.9759 76.9418C41.794 76.4048 41.7031 75.7344 41.7031 74.9304C41.7031 74.169 41.7784 73.4929 41.929 72.902C42.0824 72.3111 42.3026 71.8125 42.5895 71.4062C42.8764 70.9972 43.223 70.6861 43.6293 70.473C44.0355 70.2599 44.4915 70.1534 44.9972 70.1534C45.517 70.1534 45.9787 70.2557 46.3821 70.4602C46.7855 70.6648 47.1122 70.9474 47.3622 71.3082C47.6151 71.669 47.7756 72.0795 47.8438 72.5398H46.544C46.456 72.1761 46.2813 71.8793 46.0199 71.6491C45.7585 71.419 45.4176 71.304 44.9972 71.304C44.358 71.304 43.8594 71.5824 43.5014 72.1392C43.1463 72.696 42.9673 73.4702 42.9645 74.4616H43.0284C43.179 74.2145 43.3636 74.0043 43.5824 73.831C43.804 73.6548 44.0511 73.5199 44.3239 73.4261C44.5994 73.3295 44.8892 73.2812 45.1932 73.2812C45.6989 73.2812 46.1563 73.4048 46.5653 73.652C46.9773 73.8963 47.3054 74.2344 47.5497 74.6662C47.794 75.098 47.9162 75.5923 47.9162 76.1491C47.9162 76.706 47.7898 77.2102 47.5369 77.6619C47.2869 78.1136 46.9347 78.4716 46.4801 78.7358C46.0256 78.9972 45.4943 79.125 44.8864 79.1193ZM44.8821 78.0114C45.2173 78.0114 45.517 77.929 45.7812 77.7642C46.0455 77.5994 46.2543 77.3778 46.4077 77.0994C46.5611 76.821 46.6378 76.5099 46.6378 76.1662C46.6378 75.831 46.5625 75.5256 46.4119 75.25C46.2642 74.9744 46.0597 74.7557 45.7983 74.5938C45.5398 74.4318 45.2443 74.3509 44.9119 74.3509C44.6591 74.3509 44.4247 74.3991 44.2088 74.4957C43.9957 74.5923 43.8082 74.7259 43.6463 74.8963C43.4844 75.0668 43.3565 75.2628 43.2628 75.4844C43.1719 75.7031 43.1264 75.9347 43.1264 76.179C43.1264 76.5057 43.2017 76.8082 43.3523 77.0866C43.5057 77.3651 43.7145 77.5895 43.9787 77.7599C44.2457 77.9276 44.5469 78.0114 44.8821 78.0114ZM52.2667 79.1449C51.5935 79.142 51.0182 78.9645 50.5409 78.6122C50.0636 78.2599 49.6986 77.7472 49.4457 77.0739C49.1929 76.4006 49.0665 75.5895 49.0665 74.6406C49.0665 73.6946 49.1929 72.8864 49.4457 72.2159C49.7014 71.5455 50.0679 71.0341 50.5452 70.6818C51.0253 70.3295 51.5991 70.1534 52.2667 70.1534C52.9344 70.1534 53.5068 70.331 53.9841 70.6861C54.4613 71.0384 54.8264 71.5497 55.0792 72.2202C55.3349 72.8878 55.4628 73.6946 55.4628 74.6406C55.4628 75.5923 55.3363 76.4048 55.0835 77.0781C54.8307 77.7486 54.4656 78.2614 53.9883 78.6165C53.5111 78.9688 52.9372 79.1449 52.2667 79.1449ZM52.2667 78.0071C52.8577 78.0071 53.3193 77.7188 53.6517 77.142C53.9869 76.5653 54.1545 75.7315 54.1545 74.6406C54.1545 73.9162 54.0778 73.304 53.9244 72.804C53.7738 72.3011 53.5565 71.9205 53.2724 71.6619C52.9912 71.4006 52.656 71.2699 52.2667 71.2699C51.6787 71.2699 51.217 71.5597 50.8818 72.1392C50.5466 72.7187 50.3775 73.5526 50.3747 74.6406C50.3747 75.3679 50.45 75.983 50.6006 76.4858C50.754 76.9858 50.9713 77.3651 51.2525 77.6236C51.5338 77.8793 51.8719 78.0071 52.2667 78.0071ZM59.7728 79.1449C59.0995 79.142 58.5243 78.9645 58.047 78.6122C57.5697 78.2599 57.2047 77.7472 56.9518 77.0739C56.699 76.4006 56.5726 75.5895 56.5726 74.6406C56.5726 73.6946 56.699 72.8864 56.9518 72.2159C57.2075 71.5455 57.574 71.0341 58.0513 70.6818C58.5314 70.3295 59.1052 70.1534 59.7728 70.1534C60.4405 70.1534 61.0129 70.331 61.4902 70.6861C61.9674 71.0384 62.3325 71.5497 62.5853 72.2202C62.841 72.8878 62.9689 73.6946 62.9689 74.6406C62.9689 75.5923 62.8424 76.4048 62.5896 77.0781C62.3368 77.7486 61.9717 78.2614 61.4944 78.6165C61.0172 78.9688 60.4433 79.1449 59.7728 79.1449ZM59.7728 78.0071C60.3638 78.0071 60.8254 77.7188 61.1578 77.142C61.493 76.5653 61.6606 75.7315 61.6606 74.6406C61.6606 73.9162 61.5839 73.304 61.4305 72.804C61.2799 72.3011 61.0626 71.9205 60.7785 71.6619C60.4973 71.4006 60.162 71.2699 59.7728 71.2699C59.1848 71.2699 58.7231 71.5597 58.3879 72.1392C58.0527 72.7187 57.8836 73.5526 57.8808 74.6406C57.8808 75.3679 57.9561 75.983 58.1066 76.4858C58.2601 76.9858 58.4774 77.3651 58.7586 77.6236C59.0399 77.8793 59.378 78.0071 59.7728 78.0071ZM72.0556 72.5653C72.0102 72.1619 71.8227 71.8494 71.4931 71.6278C71.1636 71.4034 70.7488 71.2912 70.2488 71.2912C69.8909 71.2912 69.5812 71.348 69.3198 71.4616C69.0585 71.5724 68.8553 71.7259 68.7105 71.9219C68.5684 72.1151 68.4974 72.3352 68.4974 72.5824C68.4974 72.7898 68.5457 72.9687 68.6423 73.1193C68.7417 73.2699 68.871 73.3963 69.0301 73.4986C69.192 73.598 69.3653 73.6818 69.5499 73.75C69.7346 73.8153 69.9122 73.8693 70.0826 73.9119L70.9349 74.1335C71.2133 74.2017 71.4988 74.294 71.7914 74.4105C72.084 74.527 72.3553 74.6804 72.6053 74.8707C72.8553 75.0611 73.057 75.2969 73.2105 75.5781C73.3667 75.8594 73.4448 76.196 73.4448 76.5881C73.4448 77.0824 73.317 77.5213 73.0613 77.9048C72.8085 78.2884 72.4406 78.5909 71.9576 78.8125C71.4775 79.0341 70.8965 79.1449 70.2147 79.1449C69.5613 79.1449 68.996 79.0412 68.5187 78.8338C68.0414 78.6264 67.6678 78.3324 67.398 77.9517C67.1281 77.5682 66.9789 77.1136 66.9505 76.5881H68.2715C68.2971 76.9034 68.3994 77.1662 68.5784 77.3764C68.7602 77.5838 68.9917 77.7386 69.273 77.8409C69.557 77.9403 69.8681 77.9901 70.2062 77.9901C70.5784 77.9901 70.9093 77.9318 71.1991 77.8153C71.4917 77.696 71.7218 77.5312 71.8894 77.321C72.057 77.108 72.1409 76.8594 72.1409 76.5753C72.1409 76.3168 72.067 76.1051 71.9193 75.9403C71.7744 75.7756 71.5769 75.6392 71.3269 75.5312C71.0798 75.4233 70.7999 75.3281 70.4874 75.2457L69.4562 74.9645C68.7573 74.7741 68.2034 74.4943 67.7943 74.125C67.388 73.7557 67.1849 73.267 67.1849 72.6591C67.1849 72.1562 67.3213 71.7173 67.594 71.3423C67.8667 70.9673 68.236 70.6761 68.7019 70.4688C69.1678 70.2585 69.6934 70.1534 70.2786 70.1534C70.8695 70.1534 71.3909 70.2571 71.8426 70.4645C72.2971 70.6719 72.6551 70.9574 72.9164 71.321C73.1778 71.6818 73.3141 72.0966 73.3255 72.5653H72.0556ZM75.8479 76.7798L75.8394 75.2244H76.061L78.669 72.4545H80.1945L77.2201 75.608H77.0198L75.8479 76.7798ZM74.6761 79V70.2727H75.9502V79H74.6761ZM78.8096 79L76.4658 75.8892L77.3437 74.9986L80.3735 79H78.8096ZM81.1158 79V72.4545H82.3473V73.4943H82.4155C82.5348 73.142 82.745 72.8651 83.0462 72.6634C83.3501 72.4588 83.6939 72.3565 84.0774 72.3565C84.1569 72.3565 84.2507 72.3594 84.3587 72.3651C84.4694 72.3707 84.5561 72.3778 84.6186 72.3864V73.6051C84.5675 73.5909 84.4765 73.5753 84.3459 73.5582C84.2152 73.5384 84.0845 73.5284 83.9538 73.5284C83.6527 73.5284 83.3842 73.5923 83.1484 73.7202C82.9155 73.8452 82.7308 74.0199 82.5944 74.2443C82.4581 74.4659 82.3899 74.7187 82.3899 75.0028V79H81.1158ZM86.4858 81.4545C86.2955 81.4545 86.1222 81.4389 85.966 81.4077C85.8097 81.3793 85.6932 81.348 85.6165 81.3139L85.9233 80.2699C86.1563 80.3324 86.3637 80.3594 86.5455 80.3509C86.7273 80.3423 86.8878 80.2741 87.027 80.1463C87.1691 80.0185 87.2941 79.8097 87.402 79.5199L87.5597 79.0852L85.1648 72.4545H86.5285L88.1861 77.5341H88.2543L89.912 72.4545H91.2799L88.5824 79.8736C88.4574 80.2145 88.2983 80.5028 88.1052 80.7386C87.912 80.9773 87.6819 81.1563 87.4148 81.2756C87.1478 81.3949 86.8381 81.4545 86.4858 81.4545ZM92.2373 81.4545V72.4545H93.4816V73.5156H93.5882C93.662 73.3793 93.7686 73.2216 93.9078 73.0426C94.047 72.8636 94.2402 72.7074 94.4873 72.5739C94.7345 72.4375 95.0612 72.3693 95.4674 72.3693C95.9958 72.3693 96.4674 72.5028 96.8822 72.7699C97.297 73.0369 97.6223 73.4219 97.8581 73.9247C98.0967 74.4276 98.216 75.0327 98.216 75.7401C98.216 76.4474 98.0981 77.054 97.8623 77.5597C97.6265 78.0625 97.3027 78.4503 96.8907 78.723C96.4788 78.9929 96.0086 79.1278 95.4802 79.1278C95.0825 79.1278 94.7572 79.0611 94.5044 78.9276C94.2544 78.794 94.0583 78.6378 93.9163 78.4588C93.7742 78.2798 93.6649 78.1207 93.5882 77.9815H93.5115V81.4545H92.2373ZM93.4859 75.7273C93.4859 76.1875 93.5527 76.5909 93.6862 76.9375C93.8197 77.2841 94.0129 77.5554 94.2657 77.7514C94.5186 77.9446 94.8282 78.0412 95.1947 78.0412C95.5754 78.0412 95.8936 77.9403 96.1492 77.7386C96.4049 77.5341 96.5981 77.2571 96.7288 76.9077C96.8623 76.5582 96.9291 76.1648 96.9291 75.7273C96.9291 75.2955 96.8637 74.9077 96.7331 74.5639C96.6052 74.2202 96.412 73.9489 96.1535 73.75C95.8978 73.5511 95.5782 73.4517 95.1947 73.4517C94.8254 73.4517 94.5129 73.5469 94.2572 73.7372C94.0044 73.9276 93.8126 74.1932 93.6819 74.5341C93.5512 74.875 93.4859 75.2727 93.4859 75.7273ZM102.459 72.4545V73.4773H98.8837V72.4545H102.459ZM99.8425 70.8864H101.117V77.0781C101.117 77.3253 101.154 77.5114 101.227 77.6364C101.301 77.7585 101.396 77.8423 101.513 77.8878C101.632 77.9304 101.762 77.9517 101.901 77.9517C102.003 77.9517 102.092 77.9446 102.169 77.9304C102.246 77.9162 102.306 77.9048 102.348 77.8963L102.578 78.9489C102.504 78.9773 102.399 79.0057 102.263 79.0341C102.127 79.0653 101.956 79.0824 101.752 79.0852C101.416 79.0909 101.104 79.0312 100.814 78.9062C100.524 78.7812 100.29 78.5881 100.111 78.3267C99.932 78.0653 99.8425 77.7372 99.8425 77.3423V70.8864ZM106.666 79V70.2727H109.777C110.456 70.2727 111.019 70.3963 111.465 70.6435C111.911 70.8906 112.245 71.2287 112.466 71.6577C112.688 72.0838 112.799 72.5639 112.799 73.098C112.799 73.6349 112.686 74.1179 112.462 74.5469C112.24 74.973 111.905 75.3111 111.456 75.5611C111.01 75.8082 110.449 75.9318 109.773 75.9318H107.634V74.8153H109.654C110.083 74.8153 110.431 74.7415 110.698 74.5938C110.965 74.4432 111.161 74.2386 111.286 73.9801C111.411 73.7216 111.473 73.4276 111.473 73.098C111.473 72.7685 111.411 72.4759 111.286 72.2202C111.161 71.9645 110.963 71.7642 110.693 71.6193C110.426 71.4744 110.074 71.402 109.637 71.402H107.983V79H106.666ZM116.675 79.1321C116.061 79.1321 115.526 78.9915 115.069 78.7102C114.611 78.429 114.256 78.0355 114.003 77.5298C113.75 77.0241 113.624 76.4332 113.624 75.7571C113.624 75.0781 113.75 74.4844 114.003 73.9759C114.256 73.4673 114.611 73.0724 115.069 72.7912C115.526 72.5099 116.061 72.3693 116.675 72.3693C117.289 72.3693 117.824 72.5099 118.282 72.7912C118.739 73.0724 119.094 73.4673 119.347 73.9759C119.6 74.4844 119.726 75.0781 119.726 75.7571C119.726 76.4332 119.6 77.0241 119.347 77.5298C119.094 78.0355 118.739 78.429 118.282 78.7102C117.824 78.9915 117.289 79.1321 116.675 79.1321ZM116.679 78.0625C117.077 78.0625 117.407 77.9574 117.668 77.7472C117.929 77.5369 118.122 77.2571 118.247 76.9077C118.375 76.5582 118.439 76.1733 118.439 75.7528C118.439 75.3352 118.375 74.9517 118.247 74.6023C118.122 74.25 117.929 73.9673 117.668 73.7543C117.407 73.5412 117.077 73.4347 116.679 73.4347C116.279 73.4347 115.946 73.5412 115.682 73.7543C115.421 73.9673 115.226 74.25 115.098 74.6023C114.973 74.9517 114.911 75.3352 114.911 75.7528C114.911 76.1733 114.973 76.5582 115.098 76.9077C115.226 77.2571 115.421 77.5369 115.682 77.7472C115.946 77.9574 116.279 78.0625 116.679 78.0625ZM120.908 79V72.4545H122.183V79H120.908ZM121.552 71.4446C121.33 71.4446 121.14 71.3707 120.981 71.223C120.825 71.0724 120.746 70.8935 120.746 70.6861C120.746 70.4759 120.825 70.2969 120.981 70.1491C121.14 69.9986 121.33 69.9233 121.552 69.9233C121.773 69.9233 121.962 69.9986 122.119 70.1491C122.278 70.2969 122.357 70.4759 122.357 70.6861C122.357 70.8935 122.278 71.0724 122.119 71.223C121.962 71.3707 121.773 71.4446 121.552 71.4446ZM124.931 75.1136V79H123.657V72.4545H124.88V73.5199H124.961C125.111 73.1733 125.347 72.8949 125.668 72.6847C125.992 72.4744 126.4 72.3693 126.891 72.3693C127.337 72.3693 127.728 72.4631 128.063 72.6506C128.398 72.8352 128.658 73.1108 128.843 73.4773C129.027 73.8437 129.12 74.2969 129.12 74.8366V79H127.846V74.9901C127.846 74.5156 127.722 74.1449 127.475 73.8778C127.228 73.608 126.888 73.473 126.456 73.473C126.161 73.473 125.898 73.5369 125.668 73.6648C125.441 73.7926 125.26 73.9801 125.127 74.2273C124.996 74.4716 124.931 74.767 124.931 75.1136ZM133.644 72.4545V73.4773H130.069V72.4545H133.644ZM131.027 70.8864H132.302V77.0781C132.302 77.3253 132.339 77.5114 132.412 77.6364C132.486 77.7585 132.581 77.8423 132.698 77.8878C132.817 77.9304 132.947 77.9517 133.086 77.9517C133.188 77.9517 133.277 77.9446 133.354 77.9304C133.431 77.9162 133.491 77.9048 133.533 77.8963L133.763 78.9489C133.689 78.9773 133.584 79.0057 133.448 79.0341C133.312 79.0653 133.141 79.0824 132.937 79.0852C132.601 79.0909 132.289 79.0312 131.999 78.9062C131.709 78.7812 131.475 78.5881 131.296 78.3267C131.117 78.0653 131.027 77.7372 131.027 77.3423V70.8864ZM139.613 74.0526L138.458 74.2571C138.41 74.1094 138.333 73.9687 138.228 73.8352C138.126 73.7017 137.986 73.5923 137.81 73.5071C137.634 73.4219 137.414 73.3793 137.15 73.3793C136.789 73.3793 136.488 73.4602 136.246 73.6222C136.005 73.7812 135.884 73.9872 135.884 74.2401C135.884 74.4588 135.965 74.6349 136.127 74.7685C136.289 74.902 136.55 75.0114 136.911 75.0966L137.951 75.3352C138.553 75.4744 139.002 75.6889 139.297 75.9787C139.593 76.2685 139.741 76.6449 139.741 77.108C139.741 77.5 139.627 77.8494 139.4 78.1562C139.175 78.4602 138.861 78.6989 138.458 78.8722C138.057 79.0455 137.593 79.1321 137.064 79.1321C136.332 79.1321 135.734 78.9759 135.27 78.6634C134.807 78.348 134.523 77.9006 134.418 77.321L135.65 77.1335C135.726 77.4545 135.884 77.6974 136.123 77.8622C136.361 78.0241 136.672 78.1051 137.056 78.1051C137.474 78.1051 137.807 78.0185 138.057 77.8452C138.307 77.669 138.432 77.4545 138.432 77.2017C138.432 76.9972 138.356 76.8253 138.202 76.6861C138.052 76.5469 137.82 76.4418 137.508 76.3707L136.4 76.1278C135.789 75.9886 135.337 75.767 135.045 75.4631C134.755 75.1591 134.61 74.7741 134.61 74.3082C134.61 73.9219 134.718 73.5838 134.934 73.294C135.15 73.0043 135.448 72.7784 135.829 72.6165C136.209 72.4517 136.645 72.3693 137.137 72.3693C137.844 72.3693 138.401 72.5227 138.807 72.8295C139.214 73.1335 139.482 73.5412 139.613 74.0526Z" fill="#7F56D9"/>
</g>
<path d="M1 87.2745C1 39.6264 39.6264 1 87.2745 1H90.7255C138.374 1 177 39.6264 177 87.2745C177 88.2275 176.227 89 175.275 89H2.7255C1.77253 89 1 88.2275 1 87.2745Z" stroke="#42307D"/>
<defs>
<clipPath id="clip0_1_45762">
<path d="M1 87.2745C1 39.6264 39.6264 1 87.2745 1H90.7255C138.374 1 177 39.6264 177 87.2745C177 88.2275 176.227 89 175.275 89H2.7255C1.77253 89 1 88.2275 1 87.2745Z" fill="white"/>
</clipPath>
</defs>
</svg>
